<?xml version="1.0" encoding="utf-8"?>
<!-- Generator: Adobe Illustrator 24.0.3, SVG Export Plug-In . SVG Version: 6.00 Build 0)  -->
<svg version="1.0" id="레이어_1" xmlns="http://www.w3.org/2000/svg" xmlns:xlink="http://www.w3.org/1999/xlink" x="0px"
	 y="0px" width="100px" height="100px" viewBox="0 0 100 100" style="enable-background:new 0 0 100 100;" xml:space="preserve">
<style type="text/css">
	.st0{fill-rule:evenodd;clip-rule:evenodd;fill:#AB6C44;}
	.st1{fill-rule:evenodd;clip-rule:evenodd;fill:#00A971;}
	.st2{fill-rule:evenodd;clip-rule:evenodd;fill:#E75297;}
	.st3{fill-rule:evenodd;clip-rule:evenodd;fill:#F29739;}
	.st4{fill-rule:evenodd;clip-rule:evenodd;fill:#D08466;}
	.st5{fill-rule:evenodd;clip-rule:evenodd;fill:#FFFFFF;}
	.st6{fill-rule:evenodd;clip-rule:evenodd;fill:#006CB6;}
	.st7{fill:#CCA05C;}
	.st8{fill-rule:evenodd;clip-rule:evenodd;fill:#231815;}
	.st9{fill-rule:evenodd;clip-rule:evenodd;fill:#3E3A39;}
	.st10{fill:#FFFFFF;}
	.st11{fill:#3E3A39;}
</style>
<path class="st0" d="M78.4,33c0,0-1.2,10,1,13.4c0,0,7.6,2.6,13.3-1.1l1.2-11.9C94,33.4,82.1,33.8,78.4,33z"/>
<path class="st1" d="M84.6,33c0,0-6.1-2.9-6.1-6.6s2.5-3.3,4.1-1.6s4.1,4.9,4.1,4.9s4.1-5.3,5.7-5.7s2.5,3.3,2.5,3.3
	s-1.2,3.3-4.5,4.9S84.6,33,84.6,33z"/>
<path class="st2" d="M78.8,9.6c0,0-1.6,3.3,1.6,6.1s6.1,3.7,8.6,2.9s6.1-2,6.6-5.3s-1.2-5.7-3.7-2.5c0,0-3.3-6.6-7-0.8
	C85,10.1,81.3,6,78.8,9.6z"/>
<path class="st2" d="M5,9.6c0,0-2.9,2.5-0.8,5.7s4.1,4.9,9,3.7s7-4.1,6.6-7s-2-5.7-3.7-4.9s-1.6,3-1.6,3s-0.8-2.9-2.9-2.9
	s-3.8,1.7-3.5,3.1C8.3,11.7,5,9.6,5,9.6z"/>
<path class="st1" d="M14.5,34.6c0,0-5.7-1.2-6.6-3.3s0.8-3.7,3.3-2.5s4.9,4.5,4.9,4.5s2.9-6.1,5.3-5.7c2.5,0.4,0.4,4.1,0.4,4.1
	s-2.5,3.3-4.1,2.9C16.1,34.2,14.5,34.6,14.5,34.6z"/>
<path class="st0" d="M8.3,35.9c0,0,2.5,12.3,5.3,13.9c2.9,1.6,12.8-1.1,12.8-1.1s0.4-12.4-0.9-14.1L8.3,35.9z"/>
<path class="st3" d="M63.2,10.5c0,0,6.6,4.9,8.2,9c0,0,4.5-4.1,1.6-9.8C73.1,9.6,67.3,4.3,63.2,10.5z"/>
<path class="st3" d="M30.9,21.1c0,0-5.3-3.3-2-9s9-2.9,11.1-1.2C39.9,10.9,31.7,18.7,30.9,21.1z"/>
<path class="st3" d="M30.5,31.4c0,0-0.8-9.8,3.7-15.2s10.7-7.4,16-7.8s12.7,0,17.2,6.1S74,27.6,74,32.9S69.9,43.6,69.9,44
	s-12,9.5-25.9,5S30.5,31.4,30.5,31.4z"/>
<path class="st4" d="M39.9,79.7c0,0,0.4-1.2,1.2-1.2c0.7,0,0.8,4.4,0.8,6.2c0,0.3-0.3,0.4-0.6,0.2c-0.7-0.6-1.8-1.9-1.8-2.7
	C39.5,81,39.9,79.7,39.9,79.7z"/>
<path class="st5" d="M44,71.1c0,0-3.7,9-2,12.3c1.6,3.3,6.1,3.3,8.2,0.8s2-4.9,4.9-5.3s4.9,0.8,6.6,3.3s2.8,7.8,2.8,7.8
	s4.1-3.7,5.7-4.1c0,0,0-4.1-0.8-5.7s-2.9-9-4.5-10.2L44,71.1z"/>
<path class="st6" d="M44.4,49.4l-1.2,21.3c0,0,18,0.4,22.1-2L61.6,49L44.4,49.4z"/>
<path class="st3" d="M18.2,50.6c0,0,0.8,3.3,7.4,2.9c0,0,14.3,4.5,18,4.1c0,0,1.2-5.7,0.4-6.6c0,0-10.7,0-12.3-0.8L28,47.7
	c0,0-1.2,1.2-3.7,1.2S18.2,50.6,18.2,50.6z"/>
<path class="st3" d="M62,49.4l1.2,6.6c0,0,9.8,0.4,14.3-2.5s5.7-2.9,5.7-2.9s5.7-0.8,4.9-2.9c0,0-7.8,0-9-1.6c0,0-8.6,3.7-11.5,2.5
	L62,49.4z"/>
<ellipse class="st7" cx="53.3" cy="95.7" rx="22.1" ry="3.3"/>
<path class="st4" d="M64.8,89.7c0,0-0.7,3.2,0.5,4s3.3,2.5,7.4-0.8s1.2-6.1,1.2-6.1S69.2,84.9,64.8,89.7z"/>
<path class="st8" d="M64.9,29.6c2.2-0.7,2.8,3,1,3.5C63.9,33.5,63.3,30.1,64.9,29.6z"/>
<path class="st8" d="M40.8,32.4c3-0.9,2.8,4,0.1,3C39.9,35,39.5,32.8,40.8,32.4z"/>
<path class="st9" d="M53.4,35.2c1.5-0.2,5.1,0.4,5.2,2c0,0.6-0.6,2-1,2.3c-1.2,1.1-6.1,1.6-6.9-0.4C49.9,37.3,51.7,35.5,53.4,35.2z"
	/>
<path class="st9" d="M51,44.4c1.1-0.4,1.3,0.8,2.1,1.2c1.7,1,3.4-0.4,4.2-1.6c2-0.1,1,1.5,0,2.2C55.1,47.9,51,47.1,51,44.4z"/>
<path class="st9" d="M78.1,46.1c-0.5-1.5-0.8-3.2-0.9-5.1c-0.2-3.1-0.1-6.8,0.1-9.3c2-0.2,2.6,1.5,4.9,0.8c-1.4-1.1-3.5-2.8-4.1-4.9
	c-0.7-2.2-0.2-4.8,2.4-4.7c2.6,0.1,3.7,2.9,5.2,4.1c0-2.3,0.1-5.6,0.1-7.2c-1.7-0.2-3-0.8-4.4-1.7c-1.2-0.8-2.5-2.4-2.9-3.3
	c-0.6-1.4-0.8-4.5-0.1-5.9c1-1.8,4.5-2.3,5.9-0.4c1.2-0.8,2.6-1.8,4.3-1.6C90.1,7.1,91,8.4,92,9c1.1-1.3,3.6-0.6,4.4,0.9
	c0.8,1.6,0.3,3.5-0.5,4.9c-1.8,2.7-5.1,3.7-8.6,4.7c0,3.2-0.1,4.7,0.1,7.3c1.5-1.1,2.5-2.6,4.2-3.5c2.6-0.4,4.3,1.9,4,4.2
	c-0.3,2.6-3.4,3.6-4.8,4.7c1.4,0.2,3.7-0.4,4.3,0.7c-0.7,3.7-1.4,9.3-1.6,13c-1,1.2-2.7,1.5-4.4,2c-0.3,1.4-0.4,1.8-1.6,2.5
	C87,50.7,86.4,51,86,51.1c-0.7,0.2-1.3,0.1-2,0.3c-1,0.3-2.3,1-3.3,1.5c-2.6,1.1-5.2,2.2-8.4,3c-0.7,0.2-1.4,0.4-2,0.6
	c-2,0.4-3.9-0.2-6,0.6c1.1,3.6,1.6,7.8,2.3,12c0,0.4-0.3,0.4-0.6,0.6c0.3,0.9,0.8,1.7,1.4,2.5c0.1,0.3,0.1,0.4,0.2,0.7
	c1,2.6,2.1,5.1,2.9,8c0.4,1.4,0.4,2.9,0.8,4.2c1.7,0.4,3.5,1,4.1,2.3c0.7,1.6,0.2,3.8-0.6,4.8c-0.7,0.9-3.3,2.6-5.2,3
	c-1.4,0.3-3.1,0.5-4.3-0.1c-0.6-0.3-1.6-2.1-1.8-2.9c-0.1-0.5-0.1-1-0.2-1.5c0.2-2.6-1-4.6-2-6.8c-0.4-0.9-1.1-1.5-1.5-2.4
	c-1.2-0.3-1.6-1.8-2.9-1.9c-0.4,0-0.6,0.4-1,0.5s-0.9-0.1-1.2,0c-1.8,0.5-2.4,3.2-3.4,4.4c-0.9,0.2-1.6,1.4-2.7,1.7
	c-0.3,0.1-0.8,0-1.1,0.1c-0.5,0.1-1,0.5-1.5,0.6c-1.3,0.2-2.7-0.3-3.6-1.1c-2.9,2.4-5-5.4-3-7.8c0.5-0.6,1.1-1,1.9-1
	c0.6-1.7,0.8-3.5,1.6-5.1c-0.2-0.4-0.7-0.6-0.8-1s0.2-1.4,0.3-2c0.2-3.5,0.4-7,0.6-10.2c-1.5-0.5-3-0.1-4.6-0.5
	c-0.3-0.1-0.6-0.3-0.8-0.4c-1.2-0.3-2.5-0.4-3.7-0.7c-0.9-0.2-1.7-0.4-2.7-0.7c-0.2-0.1-0.5-0.3-0.7-0.4c-0.2,0-0.5,0.2-0.7,0.1
	c-1.4-0.4-2.5-1.3-3.6-1.9c-3.9,0.2-7.9-0.2-9.1-3.2c-1.1-0.1-2.6,0.4-4-0.2c-0.2-0.3-0.5-0.9-0.7-1.1c-2.7-3.7-3.9-8.8-4.7-14
	c1.1-0.5,3.1-0.5,4.3-0.8c-1.2-0.4-2.3-0.7-3.3-1.5c-0.8-0.6-2-1.6-1.9-3c0.1-0.9,1.4-2.2,2.1-2.4c2.4-0.8,5.1,1.3,6.1,2.8
	c-0.4-3.5-1.3-7.3-1.9-10.7c-1.6-0.2-3,0.2-4.4,0c-2.9-0.3-4.2-2.6-5.4-4.7c-0.5-2-0.9-6.8,2.6-6.4c0.6,0,0.8,0.3,1.4,0.5
	c0.7-2.4,3.3-3.8,6-2.1c0.4,0.2,0.7,0.7,0.9,0.9c0.9-0.5,1.3-1.6,2.3-1.8c1.5-0.2,2.9,0.9,3.4,1.7c1.4,2.3,1.1,5.9-0.5,8.1
	c-1,1.4-2.9,2.6-4.7,3.1c0.2,3.9,1.4,7.5,1.9,11.3c0.9-1.1,3.7-5.2,6.2-3.3c0.7,0.6,1,2,0.7,3.2c-0.3,1.4-1.8,2.5-2.7,3.2
	c1.5,0.2,3.6-0.3,5.1-0.1c0.3,0.5,0.6,1,1.2,1.2c0,1.4,0.4,3,0.4,4.4c0,0.3-0.2,0.6-0.2,0.9c0,0.3,0.2,0.6,0.3,0.8
	c0.1,0.5-0.1,1.3-0.1,2c0,0.8,0.3,1.4-0.1,2.1c1,1.6,2.2,2.8,3.5,4c4.2,0.7,8.1,1.6,12.7,0.7c-0.3-0.5-1-0.6-1.5-0.8
	c-1.5-0.7-3.1-1.5-4.8-2c-1.5-1.3-3.3-2.6-4.5-4.5c-0.5-0.9-1-1.9-1.5-3c-0.8-1.8-1.5-3.3-1.7-5.5c-0.3-3.8-0.3-8.2,0.9-11.7
	c-1.5-1.7-3.9-3.5-3.4-6.7c-1.1-1.9,1.4-2.9,1.6-4.7c0.9-0.5,1.5-1.8,2.7-2.4c1.6-0.8,4.7-0.7,6.3,0c1.1,0.4,1.6,1.2,2.4,1.7
	c1.5-0.5,3-1.6,4.8-1.9c1-0.3,2.2-0.3,3.3-0.5c1-0.1,1.9-0.5,2.8-0.7c1.4-0.2,3,0.4,4.6,0.7c2.7,0.3,5,0.4,7,1.7
	c1-0.6,1.9-1.6,2.9-2.2c1.9-0.7,4.5-0.5,6.2,0.3c0.9,0.8,1.7,1.5,2.6,2.3c1.3,3.9,0,8.3-2.4,10.3c0.7,1.1,1,1.8,1.2,3.5
	c0.1,1.1,1,2.4,1,3.3c0.1,1.4,0.1,3,0.4,4.6c0.7,0.7,0.2,1.9,0,3.3c-0.3,1.7-0.4,3.5-1.1,4.7c0.3,0.9-0.6,1.4-0.9,2.1
	c-1.2,2.7-4.4,4.8-7.2,6.2c0,0.1-0.1,0.1-0.1,0.2c1-0.4,2.1-0.2,3.3-0.1C72.1,48.2,75,46.3,78.1,46.1z M10.5,7.9
	C9.1,8.1,8.4,10.5,9,12c-1.5,1.3-2.4-1.8-3.5-1.8c-0.5,0-1.1,1.1-1.1,1.9c-0.2,2.8,2.2,6.3,4.4,6.6c0.9,0.2,2.6,0,3.1-0.1
	c2.2-0.2,4.7-1.3,5.9-2.6c1.3-1.4,1.8-4.7,0.7-6.8c-0.2-0.5-0.8-1.3-1.4-1.3c-2.2-0.1-0.8,4.7-3.4,3.4C13.1,9.6,12.2,7.5,10.5,7.9z
	 M72.5,17.2c0.3-1.9,1.5-3.8,0.7-5.9c-0.5-1.2-2-1.6-2.6-2.6c-0.5,0.1-0.7-0.2-1.2-0.3c-0.8-0.1-1.8,0.4-2.6,0.1
	c-0.7,0.7-1.8,1.1-2.2,2.1c0.8,0.4,1.4,0.9,2.4,1.1c1.1,1.7,2.3,3.2,3.4,4.9c0.2,0.9,0.7,1.5,1.3,2.1C71.7,17.9,72.2,17.7,72.5,17.2
	z M88.8,8.4c-1.1-0.2-2.2,0.7-3,1.2c-0.3,0.9,0,2.4-1,2.6c-1.5-0.3-1.1-3-2.6-3.4c-1.2-0.2-2,0.7-2.5,1.6c0.2,1.2,0.1,2.4,0.5,3.6
	c1.1,1.3,1.7,3,3.4,3.5c0.9-0.2,1.7,0.2,2.6,0.3c2.5,0.1,5.6-1,7.1-2.3s3-4.4,0.8-5.7c-1.3,0.1-1.3,1.5-2.2,2c-1.1,0-1.4-1-1.2-2
	C90,9.6,89.6,8.6,88.8,8.4z M57.6,9.5c-0.7-0.1-1.6,0-2.3-0.1C54.6,9.3,53.9,9,53.4,9c-2.6-0.1-5.2,0.7-7.8,0.7
	c-2.1,0.6-4,1.7-5.6,2.6c-0.6,0.3-1.3,0.6-1.9,0.9c-1.6,1-3.5,3.3-4.5,5c-1.2,2-1.4,4.8-2.1,7.4c-0.1,0.4-0.3,0.7-0.4,1.1
	c-0.2,1.4-0.1,3.2,0,4.8c0.2,2.8,1,4.6,1.2,6.6c1.2,1.1,1.3,3.1,2.3,4.4c0.3,0.3,0.8,0.8,1.3,1.2c1.5,1.5,3.2,2.8,5.5,2.9
	c0.7,1.1,2,1.4,3.7,1.7c3.2,0.6,7,0.7,10.6,0.5c5.5-0.4,9.7-2.4,12.8-5c1.5-1.3,2.1-1.9,2.9-3.7c0.2-0.6,0.2-1.4,0.5-2
	c0.2-0.4,0.5-0.7,0.7-1.1c0.2-0.5,0-1.1,0.1-1.9c0.1-1,0.4-2,0.4-2.7c0-0.4-0.2-0.8-0.3-1.2c-0.2-1.4-0.1-2.8-0.4-4.2
	c-0.2-0.9-0.5-1.8-0.7-2.7c-0.5-1.9-1-3.2-1.8-4.6c-1.1-1.9-2.1-3.9-3.3-5.5C64.2,12.3,61.6,10.1,57.6,9.5z M31.3,10.5
	c-0.1,1.1-1.5,1.5-1.8,2.5c-0.1,0.3,0.1,1-0.1,1.6c-0.1,0.3-0.3,0.5-0.4,0.7c-1,2.4,1,4.2,2.1,5c1.6-4.1,4.2-7.1,7.4-9.6
	C36.6,9.2,33.6,9.4,31.3,10.5z M84.1,27.4c-0.8-1.2-2-2.2-3-2.9c-0.6,0-1.6,0.1-1.8,1.2c-0.5,2.9,3.3,6.6,6.2,6.5
	C86,30.3,85,28.7,84.1,27.4z M93.7,25.6c-0.2-0.3-1-1.1-1.3-0.8c-2.2,1.4-5.2,3.6-4.6,7.4C90,30.9,95.5,29.4,93.7,25.6z M19.8,29
	c-1.2,0.9-2.5,3.4-2.4,4.9c2.6-0.4,5.3-2.2,4.3-5.1C21.1,28.2,20.3,28.6,19.8,29z M12.7,31c-0.9-0.8-1.7-2.4-3.5-1.7
	c-2.2,0.8,0.4,2.8,1.4,3.5c1.3,0.9,3.2,1.3,4.8,1.4C15,33.4,13.7,31.8,12.7,31z M85,34c-0.3,0.1-0.6,0.3-0.8,0.3
	c-1.8,0.2-3.6-0.6-5.2,0.1c0,4.5-0.7,7.9,1,11.2c1.2,0.7,2.9,1.1,4.8,1.1c1.4,0,2.7-0.5,3.9-0.4c1.1-0.5,2.6-0.7,3.4-1.6
	c0.1-3.8,1-7.2,1-10.6C90.3,34.1,87.6,33.5,85,34z M19.4,35.5c-2.9,0.4-6,0.1-8.8,0.9c-0.4,0.1-0.8-0.2-1.4,0.1
	c0.7,3.8,2,7.9,3.4,11.1c0.3,0.6,1.5,1.8,2.1,2c0.5,0.1,1.3-0.1,1.9-0.1c0.7,0,1.2,0.2,1.7,0.2c2.5-0.2,4.9-1.3,7.2-1.3
	c0.8-4.6,0.1-9-0.6-13.3C22.8,34.8,21,35.3,19.4,35.5z M81.5,48c-0.8-0.3-1.4-1-2.5-0.7c-0.3,0.1-0.5,0.4-0.8,0.6
	c-3.6,1-7.5,1.8-11.8,1.9c-1.3,0-2.2,0.1-3.4,0.3c0.1,2,0.6,3.7,0.9,5.5c1.4-0.4,2.8-0.3,4.3-0.5c1.2-0.1,2.6-0.5,3.8-0.7
	c3.1-0.7,5.5-1.7,7.7-2.9c0.5-0.3,1.2-0.5,1.6-0.7c0.4-0.3,0.4-0.6,0.8-0.7c1.7-0.6,3.9,0.1,4.8-1.6C84.9,48.3,83.2,48.6,81.5,48z
	 M35.3,51.8c-0.4-0.1-0.8-0.4-1.2-0.5c-0.2,0-0.5,0.1-0.7,0.1c-2.3-0.2-3.7-1.7-5.2-2.7c-1.1,0.4-2,1.4-3.3,1.6
	c-0.5,0.1-1-0.1-1.6-0.1c-0.5,0-0.9,0.4-1.3,0.5c-1,0.2-2,0-3.1,0.2c0.4,0.7,1.2,1.3,1.9,1.5c1.6,0.5,3.4-0.1,5.1,0.2
	c0.3,0.1,0.7,0.3,1,0.4c2.4,0.4,4.5,1.6,6.4,2.3c2.3,0.3,4.4,1.3,6.9,1c0.6,0.6,1.9,0.4,2.8,0.5c0.1-1.9,0.5-3.3,0.5-5
	C40.7,51.8,37.8,52.3,35.3,51.8z M45.3,50.1c0.1,0.7,0.1,1.3,0.1,2s-0.1,1.3-0.2,2c-0.5,5.1-0.7,10.2-1,16.2
	c6.4-0.1,14-0.1,20.4-1.5C64,62.1,62,56,61.1,49.8C56.8,50.8,50.5,50.7,45.3,50.1z M69.3,82.8c-0.1-1.5-0.8-3.2-1.4-4.7
	c-1.1-2.7-1.9-6.2-3.9-7.7c-5.9,1.1-12.4,1.3-19.5,1.3c0,0.3,0,0.6,0,0.9c-1.2,2.8-2.3,7-2.1,10.4c0.2,0.4,0.5,0.8,0.7,1.3
	c1.3,1.1,2.8,0.9,4.6,0.4c1.9-0.6,2.4-2.1,3.4-3.5c0.8-1.2,2-2,2.4-3.1c0.9,0.1,2.2-0.8,3.4-0.6c0.9,0.1,1.4,0.9,2,1.3
	c0.4,0.3,0.9,0.3,1.3,0.7c1.9,1.6,3.1,4.3,3.7,6.5c0.7,0.5,0.7,1.7,1,2.5c1-0.6,2-1.8,3.3-2.4c0.4-0.2,0.9-0.2,1.3-0.6
	C69,84.8,69.4,83.8,69.3,82.8z M41.5,84.8c-0.2-0.9-0.8-2.4-0.8-3.8c0-0.7,0.4-1.3,0.1-1.8C39.8,80.9,40.4,83.6,41.5,84.8z
	 M72.8,87.3c-1.1-0.2-2.5-0.3-3.5,0.1s-3.2,2.1-3.6,3.1c-0.9,1.9,0,3.4,1.9,3.5c2.6,0,4.9-1.7,6.2-3.2
	C73.3,89.6,74.2,87.9,72.8,87.3z"/>
<g>
	<path class="st10" d="M14.7,3.5c0,0.6-0.5,1.1-1.2,1.1c-0.6,0-1.2-0.5-1.2-1.1s0.5-1.1,1.2-1.1S14.7,2.9,14.7,3.5z"/>
	<path class="st11" d="M14.2,1.8c-1.3-0.3-2.6,1.1-2.3,2.3c0.2,0.7,0.7,1,1.3,1.3c0.1,1,0.2,2,0.2,2.9l0,0c0.2,0.8,0.2,1.6,0.4,2.4
		c0.2-0.2,0.5-0.5,0.7-0.7c-0.2-0.6-0.3-1.2-0.3-1.9C14,7,13.9,6,14,5C15.6,4.5,15.6,2.1,14.2,1.8z M13.9,4.1
		c-0.1,0.2-0.2,0.3-0.4,0.4s-0.4,0-0.6-0.1l0,0c0,0,0,0,0-0.1c-0.1-0.1-0.1-0.1-0.2-0.2l0,0c-0.3-0.7,0.5-1.5,1.4-1.3
		C14.5,3.2,14.3,3.7,13.9,4.1z"/>
</g>
<g>
	<path class="st10" d="M8,4.5C8,5,7.5,5.4,6.8,5.4S5.6,5,5.6,4.5s0.5-0.9,1.2-0.9C7.4,3.7,8,4.1,8,4.5z"/>
	<path class="st11" d="M6.9,3.2C6.3,3.3,5.7,3.7,5.4,4.3c-0.3,0.6,0,1.1,0.5,1.4c0.3,0.2,0.4,0.4,0.6,0.6c0.3,0.6,0.4,1.3,0.5,2
		C7,8.4,7.1,9,7.1,9.2l0,0v0.1c0.1,0.5,0.2,1,0.3,1.5c0.1,0.5,0.2,1.7,1,1.4c0-0.3-0.1-0.6-0.1-0.9L7.8,8.7C7.7,8.4,7.6,8.1,7.6,7.8
		C7.4,7.2,7.3,6.6,7.1,6c0.3-0.3,0.6-0.3,0.8-0.6C8.5,4.7,8,3,6.9,3.2z M7.3,4.6C7.3,4.7,7.3,4.7,7.3,4.6c0,0.3-0.1,0.5-0.4,0.7l0,0
		l0,0C6.7,5.5,6.3,5.4,6.1,5.2C6,5,6,4.8,6.1,4.7l0,0c0-0.1,0.1-0.2,0.2-0.3c0-0.1,0.1-0.2,0.2-0.3C6.6,4,6.7,4,6.9,4
		C7,4,7.1,4.1,7.2,4.1l0,0l0,0C7.3,4.3,7.4,4.5,7.3,4.6z"/>
</g>
<g>
	<path class="st10" d="M93.2,3.9c-0.1,0.6-0.8,1-1.4,0.8c-0.6-0.1-1-0.7-0.9-1.3s0.8-1,1.4-0.8C92.9,2.7,93.3,3.3,93.2,3.9z"/>
	<path class="st11" d="M93.1,2.1c-1.2-0.6-2.8,0.5-2.8,1.8c0,0.7,0.4,1.1,1,1.5c-0.1,1-0.2,2-0.4,2.9l0,0c0,0.8-0.1,1.6-0.1,2.5
		c0.3-0.2,0.6-0.3,0.8-0.5c0-0.6,0-1.3,0.1-1.9c0-1.2,0.2-2.2,0.5-3.2C93.8,5.1,94.4,2.7,93.1,2.1z M92.3,4.3
		c-0.1,0.1-0.3,0.2-0.5,0.3c-0.2,0-0.4-0.1-0.5-0.2l0,0c0,0,0,0,0-0.1c-0.1-0.1-0.1-0.2-0.1-0.3l0,0c-0.1-0.8,0.8-1.3,1.6-1
		C93,3.5,92.7,4,92.3,4.3z"/>
</g>
<g>
	<path class="st10" d="M86.4,3.4c-0.1,0.5-0.7,0.7-1.3,0.6c-0.6-0.1-1.1-0.6-1-1.1s0.7-0.7,1.3-0.6C86.1,2.5,86.5,2.9,86.4,3.4z"/>
	<path class="st11" d="M85.6,1.9c-0.6,0-1.3,0.2-1.6,0.7c-0.4,0.5-0.3,1.1,0.2,1.5c0.2,0.2,0.3,0.4,0.3,0.7c0.1,0.7,0.1,1.4,0.1,2.1
		c0,0.1-0.1,0.7-0.1,1l0,0V8c0,0.5,0,1.1,0,1.6s-0.2,1.8,0.6,1.6c0.1-0.3,0.1-0.6,0.1-0.9l0.1-2.8c0-0.3,0-0.6,0-0.9
		c0-0.6,0-1.2,0-1.8c0.4-0.2,0.7-0.2,1-0.4C86.9,3.6,86.8,1.9,85.6,1.9z M85.7,3.4L85.7,3.4c-0.1,0.3-0.2,0.5-0.5,0.6l0,0l0,0
		c-0.3,0.1-0.6-0.1-0.7-0.3s0-0.3,0-0.5l0,0c0-0.1,0.1-0.2,0.2-0.3s0.1-0.2,0.3-0.2c0.1-0.1,0.3,0,0.4,0s0.2,0.1,0.2,0.2l0,0l0,0
		C85.8,3,85.8,3.2,85.7,3.4z"/>
</g>
</svg>
