<?xml version="1.0" encoding="utf-8"?>
<!-- Generator: Adobe Illustrator 24.0.3, SVG Export Plug-In . SVG Version: 6.00 Build 0)  -->
<svg version="1.0" id="레이어_1" xmlns="http://www.w3.org/2000/svg" xmlns:xlink="http://www.w3.org/1999/xlink" x="0px"
	 y="0px" width="100px" height="100px" viewBox="0 0 100 100" style="enable-background:new 0 0 100 100;" xml:space="preserve">
<style type="text/css">
	.st0{fill-rule:evenodd;clip-rule:evenodd;fill:#EA6DA4;}
	.st1{fill-rule:evenodd;clip-rule:evenodd;fill:#FFF362;}
	.st2{fill-rule:evenodd;clip-rule:evenodd;fill:#FDEABE;}
	.st3{fill-rule:evenodd;clip-rule:evenodd;fill:#3DB270;}
	.st4{fill-rule:evenodd;clip-rule:evenodd;fill:#00A6DB;}
	.st5{fill-rule:evenodd;clip-rule:evenodd;fill:#FFFFFF;}
	.st6{fill-rule:evenodd;clip-rule:evenodd;fill:#A0CAEC;}
	.st7{fill-rule:evenodd;clip-rule:evenodd;fill:#6355A1;}
	.st8{fill-rule:evenodd;clip-rule:evenodd;fill:#FFF000;}
	.st9{fill-rule:evenodd;clip-rule:evenodd;fill:#CCA4A4;}
	.st10{fill-rule:evenodd;clip-rule:evenodd;fill:#E40065;}
	.st11{fill-rule:evenodd;clip-rule:evenodd;fill:#191D6A;}
	.st12{fill-rule:evenodd;clip-rule:evenodd;fill:#1F3134;}
</style>
<path class="st0" d="M18,32.1c0,0,0.5,3.3-1.7,8.1c0,0-5.5,1.7-9,0.2c-3.6-1.4-4.7-4.5-3.8-6.2s2.4-3.6,5-3.1c0,0,0.9-4.3,4.7-4
	C17,27.4,18,32.1,18,32.1z"/>
<path class="st0" d="M31.5,25.5c0,0,4.7-4.5,4-9S32,11,30.3,11.7s-2.6,0.5-3.8,2.6c0,0-3.6-0.5-5.2,1.4c-1.7,1.9-1.2,4.7,1.7,6.9
	S30.8,25.7,31.5,25.5z"/>
<path class="st0" d="M55.5,6.7c0,0,0.7,4.5-2.6,7.6s-3.8,2.4-3.8,2.4s-4.3-1.7-6.2-3.6C41,11.2,40,10,40.8,7.9
	c0.7-2.1,2.1-4,6.6-3.1c0.5,0.1,1.4-2.4,4.5-1.4S55.5,6.7,55.5,6.7"/>
<path class="st0" d="M76.6,4.8c0,0,1.4,3.3-0.9,6.4c-2.4,3.1-7.6,3.6-7.6,3.6s-4-2.1-5.5-5c-1.4-2.8-1.7-5,0.9-7.1
	C66.1,0.6,69,2,69.7,2.9C69.7,2.9,74,0.8,76.6,4.8z"/>
<path class="st0" d="M91.5,10.8c0,0,4.3-1.4,5.5,2.6s-2.1,6.4-4,6.9S87.3,22,85.2,21c-2.1-0.9,0,0,0,0s-3.1-4.5-2.8-6.6
	c0.2-2.1,0.2-5,3.1-6.2C88.2,7,90.1,8.1,91.5,10.8z"/>
<path class="st1" d="M34.6,36.4l1.9,2.1l-4.3,1.4l0.2-2.6c0,0-3.6-1.4-2.4-4.5s5.7-1.7,5.5,0.5S34.6,36.4,34.6,36.4z"/>
<polygon class="st2" points="60.4,65.3 61.6,69.3 57.1,70.3 56.7,66.7 "/>
<path class="st3" d="M69,63.6L62.1,62l-1.8,3.1l1.3,4c0,0-1.9,0.9-4.3,1.4l-2.6,5.2c0,0,7.8,4.7,12.1,3.1c4.3-1.7,0,0,0,0
	S69.2,66.3,69,63.6z"/>
<path class="st4" d="M61.9,62l-1.4,3.1l-4,1.4l0.7,4l-2.6,5.2c0,0-7.4-4.5-7.8-7.1c-0.5-2.6,0,0,0,0l8.5-10.9L61.9,62z"/>
<path class="st5" d="M54.5,58l-4,5.2c0,0-9.2-5.2-10-9c-0.7-3.8,0,0,0,0l1.7-2.1C42.2,52,52.1,57.2,54.5,58z"/>
<path class="st5" d="M79.4,75.3L77,76.7c0,0-4.7-4-8.3-4.5l0.7-6.6C69.5,65.5,77,67,79.4,75.3z"/>
<path class="st2" d="M66.6,79.1c0,0-3.3,12.1-5.7,13.3c-2.4,1.2-3.3-1.2-3.3-1.2s-0.2-6.4-7.6-10.9s-13.7-3.7-13.7-3.7
	s-1.2-2.3,0.2-3.5s2.6-4.5,9.7-4c0,0,0.4-0.4,1.3,1.1C48.5,71.6,55.6,78.9,66.6,79.1z"/>
<path class="st6" d="M71.8,81.4c0,0,1.4,0.2,1.7,1.4c0.2,1.2,0,3.6-2.1,3.8c-2.1,0.2-5-1.2-5.7-2.6s0.9-2.1,0.9-2.1s1.9,2.8,2.8,2.6
	c0.9-0.2,1.8,0.6,2.3-0.8S71,81.6,71.8,81.4z"/>
<path class="st6" d="M41.7,51.6L40,54.2c0,0-3.1-0.5-3.6-1.9s-0.2-3.6-0.2-3.6l2.6-1.2C38.9,47.5,41.9,48,41.7,51.6z"/>
<path class="st6" d="M78.2,76.2c0,0,2.6-0.7,3.3,1.4s-1.9,3.6-1.9,3.6s-2.8-0.5-2.6-2.6C77.3,76.5,78.2,76.2,78.2,76.2z"/>
<path class="st5" d="M86.8,60.8L83.5,62c0,0-4.7-7.8-12.6-14.7S60.7,38,54.8,34c0,0,0.2-3.6,0.9-3.8c0,0,11.9,8.3,18,14.7
	S84.9,57,86.8,60.8z"/>
<path class="st7" d="M60.3,33.2c7.6,5.7,20,18.5,20,18.5l3.6,4.4c0,0,1.7-0.7,3.3-8.1s0.2-15.2,0.2-15.2
	c-10.3-3.7-16.2-1.8-20.8-1.5C62.2,31.5,60.3,33.2,60.3,33.2z M76.7,45.7l1.9-2.6l0.2-2.6l2.6,1.7l3.1-1.2l-0.7,3.6l1.9,2.4
	l-2.8,0.9c-1.7,2.1-2,1.8-2,1.8l-0.3-0.8c-0.2-1.9-0.8-2.1-0.8-2.1L76.7,45.7z"/>
<polygon class="st8" points="85.6,47 83.9,44.4 84.4,40.9 81.3,42.3 78.7,40.4 78.5,43.5 76.6,46.1 79.9,46.8 80.8,49.7 82.7,47.8 
	"/>
<path class="st6" d="M71.1,30.7l-11.4,2.1c0,0-0.7-3.1,0.9-5.2C62.3,25.5,70.2,22.4,71.1,30.7z"/>
<path class="st6" d="M87.7,46.6c0,0,7.4-0.9,7.4,6.2s-9,5.7-9,5.7l-1.9-2.1L87.7,46.6z"/>
<path class="st6" d="M81.8,59.4c0,0-8.3,8.8-22.5,0.9c0,0-8.8-5-7.4-14.7c0,0,1.7-8.1,5.7-9.7C57.6,35.9,78.5,53,81.8,59.4z"/>
<path class="st9" d="M32.8,96.2c0,1.5,8.4,2.8,18.7,2.8s18.7-1.3,18.7-2.8s-8.4-2.8-18.7-2.8C41.1,93.4,32.8,94.6,32.8,96.2z"/>
<path class="st6" d="M64.2,95.2l-3.3-2.4h-2.8L57.8,95C57.8,95,62.8,97.1,64.2,95.2z"/>
<path class="st10" d="M61.6,4.3c0.7-1.5,2-2.6,3.6-3.3c2.2-0.2,3.4,0.5,4.6,1.3C70.3,2,71,1.9,71.6,1.6c1.7,0.1,2.9,0.5,4,1.2
	c0,0.1,0.1,0.2,0.1,0.3c1,0.6,1.3,1.7,1.8,2.7c0.1,2.2-0.2,3.8-1.3,5.2c-0.8,0.9-1.5,1.8-2.6,2.3c-0.6,0.3-1.4,0.3-1.6,0.9
	c-0.8,0.4-1.7,0.6-2.7,0.8c-0.1,0.1-0.2,0.2-0.3,0.3c-0.8,0.2-1.1,0-1.6-0.3c-0.8-0.5-1.5-1.2-2.2-1.6c-0.5-0.8-1.4-1.3-2.1-2.1
	C63,11.2,63,11,62.8,10.8c-0.1-0.1-0.3-0.2-0.4-0.3c-0.2-0.3-0.5-0.7-0.7-1.1c-0.4-0.7-0.5-1-0.5-1.8C61.1,7,61,6.3,61.1,5.7
	c0.1-0.5,0.3-1,0.3-1.4C61.3,4.4,61.6,4.4,61.6,4.3z M69.7,3.3c-1-0.6-1.8-1.3-3.2-1.4c-1.1-0.1-1.8,0.3-2.4,0.7
	c-1,0.7-1.7,1.8-2.1,3.1c-0.1,0.3,0,0.5-0.1,0.7c-0.1,0.7,0,1.3,0.3,1.7c0.4,1.9,1.8,3.1,3.1,4.3c0.9,0.8,1.6,1.5,2.6,2.1
	c2,0,3.2-1.2,4.9-1.7c1.4-1,2.8-1.9,3.4-3.6c-0.1-0.5,0.2-0.9,0.3-1.3c0.3-1.7-0.4-3.2-1.3-4.1c-0.5-0.5-0.6-0.6-1.3-0.8
	c-0.6-0.2-1.4-0.5-2.4-0.3C70.9,2.8,70.2,3.1,69.7,3.3z"/>
<path class="st10" d="M50.4,16.6c-0.3,0.2-0.7,0.5-1,0.5s-0.7-0.2-1.2-0.4c-0.4-0.2-0.9-0.2-1.1-0.3c-0.3-0.1-0.5-0.3-0.7-0.4
	c-0.7-0.3-1.5-0.6-2.1-1.1c-0.1-0.1-0.2-0.3-0.4-0.4c-0.2-0.1-0.3-0.2-0.5-0.3c-0.9-0.7-1.6-1.2-2.3-2.2c-0.2-0.3-0.4-0.6-0.6-0.9
	c-0.4-0.8-0.5-1.6-0.4-2.7c0.1-0.9,0.4-1.6,0.8-2.1c0.2-0.2,0.3-0.5,0.4-0.6c0.5-0.7,1.8-1.3,2.8-1.5c0.7-0.2,1.4,0,1.8,0
	c0.2,0,0.4,0,0.6,0c0.3,0,0.5,0.2,0.8,0.1c0.2-0.1,0.4-0.3,0.6-0.5c0.2-0.2,0.6-0.3,0.9-0.5c0.5-0.3,0.9-0.7,1.6-0.7
	c0.8,0,1.4,0.1,2.2,0.2c1.1,0.5,1.7,1.3,2.3,2.2c0.3,0.5,0.7,1.1,0.8,1.6c0.1,0.9,0.2,2.3,0,3.3c-0.1,0.3-0.3,0.7-0.3,1
	C54.4,13.5,52.6,15.2,50.4,16.6z M47.5,5.3c-0.9-0.1-1.9-0.5-2.8-0.4c-0.9,0.1-2,0.6-2.6,1.1c-0.8,0.8-1.1,1.9-1.2,3.3
	c0.2,0.5,0.3,1.1,0.5,1.6c0.7,1.1,1.6,2,2.8,2.8c1.1,0.7,1.9,1.3,3.2,1.9c0.3,0.1,0.6,0.2,0.9,0.4c0.3,0.1,0.8,0.3,0.9,0.3
	c0.4,0,1.3-0.8,1.6-1.1c0.5-0.4,1-0.8,1.5-1.1c0.2-0.6,0.8-0.8,1.1-1.2c0.1-0.1,0.1-0.3,0.1-0.4c0.1-0.3,0.4-0.4,0.5-0.8
	c0.3-0.6,0.6-1.1,0.8-1.8c0.3-1.1,0.3-2.8-0.1-3.7c-0.1-0.2-0.3-0.5-0.5-0.8c-0.4-0.6-0.9-1.5-1.7-1.8c-0.5-0.2-1.3-0.2-1.8-0.2
	C49.4,3.5,48.4,4.5,47.5,5.3z"/>
<path class="st10" d="M89.2,7.7C90,8,90.4,8.6,90.9,9.3c0.1,0.2,0.6,0.9,0.7,0.9c0.3,0.1,1.1-0.2,1.6-0.2c0.4,0,0.9,0.3,1.4,0.5
	s1,0.4,1.4,0.5c0.1,0.2,0.2,0.4,0.5,0.5c0.4,0.8,1,1.5,1.2,2.4c0.1,0.7-0.1,1.5,0,2.1c-0.2,0.5-0.4,1.1-0.7,1.6
	c-0.3,0.5-0.5,1.2-0.9,1.5c-0.1,0.1-0.3,0.1-0.5,0.2c-0.3,0.2-0.5,0.4-0.7,0.6c-0.5,0.3-1.2,0.4-1.9,0.7c-0.5,0.2-1,0.2-1.5,0.4
	c-0.2,0-0.3,0.2-0.5,0.3c-0.7,0.3-1.9,0.4-2.8,0.5c-0.7,0-1.4,0.1-2,0c-0.2,0-0.5-0.2-0.8-0.3c-0.5-0.1-0.6-0.2-1-0.4
	c-0.3-0.3-0.3-0.7-0.5-1.1c-0.2-0.5-0.7-0.8-0.9-1.3c-0.1-0.2,0-0.4-0.1-0.6c-0.1-0.3-0.3-0.5-0.4-0.8s-0.4-0.5-0.5-0.8
	c0-0.2,0-0.5-0.1-0.8c-0.3-1.7-0.1-3.7,0.5-4.9c0.2-0.5,0.6-1.1,0.9-1.5c0-0.2,0-0.3,0-0.4c0.6-0.4,1.3-0.8,1.8-1.3
	c0.3,0,0.6-0.1,0.7-0.3C87.2,7.3,88.1,7.3,89.2,7.7z M85.8,20.8c1.8,0.2,3.4-0.3,4.9-0.3c0.6-0.2,1.2-0.4,1.8-0.6
	c0.5-0.2,1-0.2,1.4-0.3c0.7-0.3,1.2-0.9,1.8-1.3c0.2-0.8,1-1.5,1.1-2.6c0.1-1-0.1-2.1-0.6-2.9c-0.5-0.6-1-1.2-2-1.5
	c-0.3-0.1-0.7-0.2-1-0.2c-0.5,0-1,0.4-1.6,0.3c-0.1,0-0.4,0.1-0.6,0c-0.2-0.4-0.4-0.9-0.6-1.3c-0.3-0.5-0.8-1.2-1.3-1.4
	c-0.2-0.1-0.6-0.2-1-0.3c-0.6-0.2-1.2-0.4-1.9-0.3c-0.4,0.1-1.2,0.5-1.6,0.8c-0.7,0.5-1.2,1.5-1.6,2.5c-0.6,1.5-0.2,3.9,0.2,5.3
	c0.1,0.4,0.3,0.8,0.5,1.2c0.6,1.2,1,2.2,1.9,2.9C85.7,20.7,85.8,20.7,85.8,20.8z"/>
<path class="st10" d="M27.5,12c1.4-1.1,4.6-1.2,6.1-0.1c0.7,0.7,1.4,1.4,1.8,2.4c1.7,4.6-1,9.1-3.7,11.5c-1.2,0.3-2.6,0-3.7-0.3
	c-0.3-0.1-0.6-0.1-0.9-0.1c-0.2,0-0.3-0.2-0.5-0.2c-0.9-0.2-1.4-0.6-2.1-0.9c-0.1-0.1-0.3-0.1-0.4-0.1c-0.3-0.2-0.6-0.5-0.9-0.7
	c-0.6-0.4-1.1-0.8-1.6-1.3c-0.6-0.6-1.1-1-1.3-2c-0.6-0.3-0.3-1.2-0.4-1.8c0-0.2-0.1-0.3-0.1-0.5s0.1-0.5,0.2-0.7
	c0.1-0.4,0.6-1.1,0.7-1.4c0.3-0.5,0.9-0.9,1.1-1.2c0.7-0.2,1.3-0.6,2.1-0.8c0.9-0.2,1.6-0.3,2.5,0C26.6,13.2,27.2,12.7,27.5,12z
	 M31.3,25.1c1.5-1.2,2.5-3,3.3-5c0.3-0.7,0.4-1.1,0.4-1.9c0-0.2,0.1-0.4,0.1-0.6c0-0.7-0.1-1.5-0.3-2.1s-0.5-1.3-0.8-1.8
	c-0.2-0.4-0.9-1.2-1.4-1.4c-1.1-0.6-3.4-0.4-4.3,0.3c-0.1,0.1-0.4,0.4-0.6,0.6c-0.2,0.2-0.5,0.5-0.6,0.6c-0.2,0.3-0.3,0.8-0.7,0.9
	c-0.3,0.1-1-0.2-1.5-0.1c-1.4,0.1-3.1,0.6-3.8,1.9c-0.2,0.3-0.3,0.8-0.3,1.3c0,0.3-0.2,0.6-0.2,0.8c0,0.8,0.4,1.4,0.7,2.1
	c0.1,0.1,0.3,0.1,0.4,0.2c0.4,0.5,0.7,1.2,1.5,1.4c1,0.9,2.4,1.7,4,2.2c0.7,0.2,1.4,0.2,2.3,0.3C30.1,25,30.7,25.1,31.3,25.1z"/>
<path class="st10" d="M9.2,28.6c0.2-0.1,0.3-0.2,0.5-0.3c0.1-0.1,0.2-0.3,0.4-0.5c0.3-0.3,1.1-0.7,1.6-0.9c0.3-0.1,0.7-0.3,1-0.3
	c3.4-0.4,4.6,2.1,5.7,4.2c0.2,0.9,0.3,1.7,0.3,2.7c0,1.7-0.5,3.1-0.9,4.6c-0.1,0.4-0.4,0.7-0.5,1.1c-0.1,0.3-0.1,0.7-0.3,1
	c-0.1,0.2-0.4,0.3-0.5,0.5c-1.5,0.5-3.7,0.6-5.3,0.6C10.3,41.6,9,41.1,8,41c-0.7-0.1-1.3-0.3-2-0.6c-0.6-0.3-1.4-0.8-1.8-1.2
	c-0.1-0.1-0.1-0.4-0.3-0.6c-0.2-0.2-0.5-0.3-0.6-0.5C3.2,37.8,3.2,37.4,3,37c-0.1-0.2-0.3-0.3-0.4-0.5c-0.1-0.3,0.1-0.7,0.1-1.1
	c0-0.3-0.1-0.4-0.1-0.7s0.4-0.6,0.5-1c0.2-0.6,0.2-0.7,0.7-1.1C4,32.4,4.2,32.2,4.5,32c0.2,0,0.4,0,0.5-0.1c0.4-0.2,0.8-0.6,1.1-0.8
	c0.3-0.1,0.7-0.1,1-0.2c0.4-0.1,0.7-0.2,1.1-0.2C8.4,29.9,8.9,29.2,9.2,28.6z M8.8,31.4c-0.7,0.3-1.6,0.2-2.3,0.5
	c-0.4,0.2-0.8,0.5-1.1,0.8C5,33,4.6,33.2,4.3,33.5c-0.3,0.3-0.6,0.9-0.7,1.4c-0.1,0.3,0,0.8,0.1,1.2c0.2,1,0.5,1.8,1.1,2.4
	c0.2,0.2,0.6,0.6,0.9,0.8s0.9,0.5,1.2,0.6c0.2,0.1,0.4,0,0.6,0c1,0.2,1.7,0.7,3,0.7c0.4,0,0.8-0.1,1.2-0.1c0.6,0,1.2,0.1,1.8,0
	c0.8-0.1,1.5-0.3,2.3-0.3c0.2-0.1,0.3-0.4,0.5-0.5c0-0.2,0-0.3,0-0.4c0.4-0.7,0.6-1.5,0.9-2.4c0.1-0.4,0.2-0.6,0.3-1.1
	c0-0.3,0.2-0.5,0.3-0.8c0-0.3,0-0.8,0-1.1c0-0.8,0-2-0.3-2.8c-0.2-0.4-0.5-0.9-0.7-1.3c-0.6-0.9-1.6-2.2-2.9-2.2
	c-1.1,0-2,0.2-2.7,0.7c-0.2,0.1-0.4,0.3-0.5,0.5c-0.2,0.2-0.5,0.3-0.6,0.4C9.4,29.7,9.1,30.6,8.8,31.4z"/>
<path class="st11" d="M78.9,40.1c0.8,0.5,1.8,1.2,2.6,1.8c0.9-0.4,1.7-1,2.9-1.1c0,0.1,0.2,0.1,0.3,0.3c-0.1,1.1-0.3,2.4-0.5,3.5
	c0.5,1,1.6,1.4,1.9,2.7c-0.7,0.6-1.9,0.7-3,0.9c-0.9,0.7-1.3,2-2.5,2.2c-0.6-0.8-0.5-2.4-1-3.3c-1.3,0-2.1-0.3-3.1-0.6
	c0-0.3-0.3-0.3-0.4-0.5c0.5-1,1.4-1.7,2-2.5c0.2-1.3,0-2.1,0.1-3.3C78.5,39.9,78.8,40,78.9,40.1z M79,40.9c-0.2,0.9,0.1,1.9-0.1,2.7
	c-0.1,0.3-0.8,0.9-1,1.1c-0.4,0.4-0.7,0.8-0.9,1.2c0.9,0.4,2.3,0.5,3.3,0.8c0.3,0.8,0.4,1.9,0.6,2.8c0.7-0.4,1.1-1.4,1.8-1.9
	c0.8-0.1,1.8-0.3,2.6-0.5C85,46.5,84.5,46,84,45.5c-0.2-0.2-0.4-0.4-0.4-0.5c-0.1-0.5,0.2-1.2,0.3-1.8c0.1-0.6,0.2-1.2,0.3-1.6
	c-0.5,0.1-0.9,0.3-1.3,0.5c-0.6,0.3-1.1,0.8-1.7,0.5c-0.3-0.1-0.6-0.5-1-0.8C79.7,41.3,79.2,41.2,79,40.9z"/>
<path class="st12" d="M59,42.7c0.2-1.3-0.5-1.9-1.4-1.4c-0.8,0.4-1.2,1.8-0.3,2.3C58,44,58.7,43.3,59,42.7z"/>
<path class="st11" d="M61.1,48.2c-0.8-0.1-1.7,0.3-1.7,1.2c-0.1,0.8,0.6,1.4,1.2,1.8c0.6,0.4,1.6,0.9,2.3,0.3
	c0.7-0.7,0.4-1.9-0.1-2.6C62.5,48.5,61.8,48.3,61.1,48.2z"/>
<path class="st11" d="M58.4,53.2c0.2,1.8,1.1,3.3,3,3.3c0.7,0,1.5-0.5,1.6-1.2c-0.6-0.1-0.7,0.3-1.1,0.5c-2,0.2-2.6-1.3-2.9-2.9
	C58.8,52.7,58.5,53,58.4,53.2z"/>
<path class="st12" d="M75.1,56.6c-0.1,0-0.2,0-0.2-0.1C74.9,56.5,75,56.5,75.1,56.6c-0.3-0.2-0.9-0.6-1.2-0.5
	c-0.8-0.4-1.5,0.3-1.7,0.9c-0.3,1,0.5,1.6,1.6,1.6c0.7-0.1,1.1-0.5,1.4-1.1C75,57.3,75.1,57.1,75.1,56.6z"/>
<path class="st6" d="M35.5,73.8l0.9,3.1c0,0-1.9,1.7-3.1-0.2c-1.2-1.9-1.9-4-1.9-4S32.9,72.2,35.5,73.8z"/>
<path class="st11" d="M71.5,65.4c3.5,1.7,6.1,4.3,8,7.7c0,0.2,0.4,1.5,0.5,2.4c0.4,0.2,0.6,0.1,0.9,0.4c0.5,0.2,1.4,1.4,1.5,1.9
	c0.2,0.8-0.2,1.2-0.2,1.9c-0.3,0.3-0.6,0.6-0.8,1.1c-0.8,0.4-2.8,1.5-3.4,0.3c-0.5,0-0.5-0.2-0.8-0.5s-0.7-0.5-0.8-0.9
	c-0.1-0.3-0.2-0.8-0.2-0.9c0-0.6,0.4-0.9,0.6-1.4c-1.3-1.4-3.2-2.6-5.1-3.5c-0.5-0.2-1-0.3-1.4-0.5s-0.8-0.5-1.4-0.2
	c-0.2,1.2-0.2,2.3-0.5,3.6c-0.1,0.6-0.5,1.1-0.5,1.6c0,0.1,0,0.3,0,0.4c-0.1,0.5-0.7,1.5-0.6,2.1c0,0.2,0.1,0.5,0.2,0.7
	c0.2,0.4,0.3,0.6,0.5,0.9c0.6,1.1,3.3,2.7,3.8,0.5c-0.2-0.7-1.2-1.2-0.5-1.9c1.4-0.7,2.7,1.1,2.8,2.2c0.3,2.4-1.5,4-3.9,3.8
	c-2.1-0.2-3.2-1.2-4.5-2.2c-1,2.8-2.4,5.7-3.8,8c0.4,0.3,0.8,0.7,1.2,1c0.4,0.2,1,0.6,0.9,0.7c0.2,0,0.5,0.5,0.6,0.5
	c0.4,0.9,0,1-1.1,1.2c-0.2,0-0.3,0.1-0.5,0.1c-0.6,0-1.1-0.1-1.8-0.1c-1.1-0.1-3.2-0.5-3.6-1c-0.5-0.7-0.1-1.5,0.3-2.6
	c-0.1-0.4-0.7-0.1-0.8-0.5s-0.3-1.5-0.4-1.9c-0.1-0.3-0.3-0.5-0.3-0.8c-0.1-0.8-0.5-1.1-0.6-1.9c-0.5-0.4-0.4-1.4-1.1-1.7
	c-0.1-0.4-0.5-0.6-0.6-1c-0.7-0.5-1.2-1.3-1.8-1.9c-1.2-1.1-2.6-2.1-4.1-2.8c-0.5-0.2-1.1-0.4-1.7-0.7c-2.8-1.4-5.5-1.9-9.6-2
	c-0.5,0.6-1.5,0.9-2.6,0.6c-0.5-0.4-1-1.1-1.4-1.7c-0.4-0.7-0.7-1.3-1.2-1.9c-0.2-0.3-0.6-0.6-0.7-0.8c-0.2-0.4-0.1-0.9-0.2-1.4
	c0.4-0.4,0.8-0.7,1.5-0.6c0.9,0.2,1.6,0.8,2.5,0.8c0,0.3,0.2,0.2,0.5,0.2c0.2,0,1.2-0.8,1.4-1.1c0.4-0.4,0.7-0.9,1.1-1.2
	c0.6-0.5,1.6-0.9,2.3-1.3c0.3-0.1,0.5-0.3,0.8-0.5c0.5-0.2,1.7-0.4,2.3-0.4c0.8-0.1,1.6-0.2,2.4-0.1c1.8-1.4,2.7-2.8,4.1-4.6
	c-0.5-0.2-0.9-0.3-1.2-0.7c-1.6-0.7-2.8-1.9-4.3-2.8c0-0.2-0.1-0.3-0.2-0.4c-1.2-0.7-1.8-2.1-2.9-2.9c-0.1-0.1-0.3-0.1-0.4-0.2
	c-0.6-0.5-0.4-1.8-0.8-2.4c-1.2,0.2-2.5-0.3-3.3-1c-0.9-1.2-2.4-3.9,0-5c-0.1-1-0.5-1.8-0.8-2.6c-0.6-1.8-1.1-3.6-1.8-5.4
	c-0.6,0.2-1.2,0.6-1.8,0.5c-0.7-0.8-0.5-2.2-0.2-3.2c-2.9-0.6-3.3-3.7-1.8-5.3c0.2-0.3,0.7-0.7,1-1c1.2-0.6,2.4-0.5,3.6,0
	c0.7,0.4,1.3,1.4,1.4,2.4c0.2,1.3,0,2.1-0.6,3c0.4,0.4,1.1,0.9,1.4,1.4c0.1,0.2,0.4,0.7,0.3,0.9c-0.1,0.2-0.4,0.1-0.7,0.2
	c-0.3,0.2-1,0.2-1.2,0.4c0.9,2.5,1.9,5.3,2.8,7.7c0.2-0.1,0.8,0,1.1-0.1c0.9,0.2,1,0.4,1.5,1s0.8,1.1,1,1.9c0.1,0.4,0.1,0.9,0.3,1.2
	s1,0.3,1.4,0.6c0.5,0.3,0.9,0.5,1.2,0.8c0.9,0.6,1.9,1.2,2.7,1.8c0.9,0.5,2,0.8,3,1.2c0.2,0.5,0.7,0.4,1.1,0.5
	c0.8,0.3,1.6,0.9,2.5,1.1c0,0.2,0.2,0.3,0.4,0.2c-1.3-1.6-2.2-4.1-3-6.3c-0.1-1.1-0.7-2.7-0.4-4.1c-0.6-0.5-1.2-0.6-1.7-1.1
	c-0.3-0.1-0.6-0.2-0.7-0.5c-0.1-0.7,1,0,1.3,0.2c0.6,0.3,0.8,0.4,1.1,0.5c0.1-0.3,0.1-0.7,0.2-1c-0.3-0.4-0.5-0.6-0.9-1
	s-0.9-0.7-1.2-1.2c0.5-0.5,0.8-0.2,1.1,0.2c0.4,0.5,0.9,0.8,1.3,1.1c0-0.4,0.1,0,0-0.5c0.2-0.3,0.5-0.8,0.3-1.1
	c0.3-0.6,0.8-1.5,1.1-2.2c0.3-0.6,0.6-1.2,1-1.8c0.5-0.9,1.2-1.5,1.9-2.3c0.1-0.1,0.2-0.1,0.2-0.1c0-0.2-0.7-0.5-0.9-0.6
	c-0.4-0.3-0.5-0.4-0.9-0.6c-0.5-0.8-0.3-2.5,0-3.7c0.2-0.8,0.5-1.1,0.8-1.6c0.1-0.2,0.7,0,0.9,0s0.8,0.3,1.1,0.5
	c0.8,0.5,0.7,0.9,1.5,1.2c0.1-0.7,0.3-1.5,0.6-2.1c0.1-0.3,0.3-0.5,0.4-0.8c0.1-0.2,0.3-0.3,0.4-0.5c0.3-0.6,1-1.3,1.5-1.8
	c0.4-0.4,0.7-0.5,1.3-0.8c0.3-0.2,0.9-0.4,1.3-0.5c0.2-0.1,0.4,0,0.6,0s0.4-0.2,0.6-0.2c0.6-0.1,1-0.1,1.7-0.1
	c1.1,0.1,2.2,0.8,2.9,1.3c0.5,0.5,0.9,0.9,1.2,1.4c0.4,0.7,0.5,1.5,0.7,2.4c0.1,0.1,0,0.5,0,0.6c0.5,0.2,1.5-0.2,1.9-0.2
	c0.3,0,0.6,0.1,1,0.1c0.2,0,0.3-0.1,0.5-0.1c0.4,0,0.8,0.1,1.2,0.1c0.2,0,0.3-0.1,0.5-0.1c0.4,0,0.8,0.2,1.2,0.2
	c0.6,0,1.2-0.1,1.6,0.2c0.3-0.1,0.5-0.1,0.8,0c0.7,0.1,1.5,0.3,2,0.4c0.2,0,0.4,0,0.7,0.1c1.2,0.2,2.6,0.7,3.7,0.9
	c0.7,0.4,1.5,0.6,1.4,1.3c0.1,0.5,0.2,0.9,0.3,1.4c0.1,0.8,0.2,1.7,0.2,2.4s0,1.5,0,2.1c0.1,0.7,0,1.5,0,2.3
	c-0.1,1.7-0.2,3.1-0.4,4.6c0.6-0.2,1.4,0,2.1,0c0.3,0.4,1,0.3,1.6,0.5c1,0.2,1.5,1.3,2.4,1.7c0.4,0.5,0.6,1.2,0.9,1.8
	c0.1,0.4,0.4,1.1,0.4,1.4c0,0.1,0,0.1,0,0.2c0,0.4,0.1,0.9,0.1,1.3c0,1.7-0.5,3.3-1.4,4.2c-0.3,0.3-0.6,0.9-1,1.2s-0.8,0.5-1.3,0.7
	c-0.3,0.2-0.6,0.4-0.9,0.5c-1.2,0.3-2.5,0.3-3.9,0.3c0.2,0.2,0.1,0.2,0.4,0.5c0.1,0.2,0.3,0.2,0.3,0.4c0.1,0.2-0.1,0.8-0.4,1
	c-0.5,0-0.7,0.4-1.4,0.6c-0.6,0.2-1.5,0.7-2,0.8c-1.2,0.3-1.5-0.7-1.9-1.3c-0.2-0.4-0.6-0.7-0.8-1.1C81,61,80.8,61.2,80,61.7
	s-1.7,0.6-2.3,1.3c0.7,0.6,1.5,1,1.9,1.8c-0.5,0.3-0.7,0.1-1.1-0.3c-0.2-0.2-0.4-0.3-0.5-0.4c-0.3-0.3-0.8-0.8-1.1-0.8
	c-0.4,0-0.9,0.3-1.4,0.4c0.4,0.6,1.2,1.1,1.5,1.8c-0.6,0.7-1.7-1.3-2.4-1.6c-0.8,0.3-2.3,0.7-3.3,0.5c-0.4-0.1-1-0.4-1-0.2
	C70.4,64.9,70.8,65.3,71.5,65.4z M59.9,32.2c0.6-0.1,1.1-0.5,1.7-0.6c0.2,0,0.3,0,0.5,0c0.3,0,0.7-0.2,1.1-0.3
	c0.4-0.1,0.9-0.1,1.2-0.3c0.2-0.1,0.4-0.2,0.5-0.3c0.4-0.1,1-0.1,1.5-0.2c1.3-0.2,2.8-0.3,4.3-0.5c0-0.7-0.2-1.4-0.5-2
	c-0.7-1.5-2.2-2.3-4.1-2.4c-1.3-0.1-2.4,0.6-3.5,1.1C61,28,60,29.7,59.9,32.2z M86.3,60.6c-0.9-1.5-1.8-2.8-2.9-4.1
	c-0.5-0.6-1-1.1-1.3-1.9c-0.6-0.4-1-1-1.5-1.6s-1-1.1-1.4-1.7c-1-1-1.9-1.9-2.8-2.9c-0.1-0.2-0.3-0.3-0.5-0.5s-0.2-0.4-0.4-0.5
	c-0.2-0.2-0.4-0.3-0.6-0.5c-1.3-1.3-2.6-2.6-4-3.9c-4.6-4.4-9.7-8.4-15.1-12c-0.1,0.3-0.2,0.8-0.3,1.4c-0.1,0.4-0.3,0.9-0.3,1.2
	c0,0.2,0.6,0.6,1,0.8c0.4,0.3,0.8,0.5,1.1,0.7c0.7,0.5,1.4,1.1,2,1.6c0.7,0.6,1.4,1,2.1,1.5c0.7,0.5,1.3,1.1,1.9,1.6
	c1.3,1.1,2.5,2.2,3.7,3.3c6.2,5.4,12.3,11.5,16.8,18.4c0.3,0.1,0.5,0,0.8-0.1C85.1,61,85.8,60.9,86.3,60.6z M61.1,33.2
	c1.5,1.4,3.3,2.6,4.8,4c0.8,0.5,1.7,1.3,2.4,2c0.7,0.6,1.4,1.2,2,1.8c0.7,0.6,1.3,1.2,1.9,1.9c0.6,0.6,1.2,1.3,1.9,1.9
	c0.5,0.4,1,0.7,1.4,1.2c0.4,0.4,0.8,0.9,1.2,1.3c2.5,2.6,5,5.3,7.2,8.1c1.7-3.6,3.2-7.7,3.6-12.5c0.1-1-0.1-2.3,0.1-3.2
	c-0.1-2.3,0-4.7-0.6-6.3c-1.1-0.6-2.3-0.8-3.9-1.2c-2.2-0.5-4.9-0.8-7.5-0.9c-1.4,0-2.9,0.2-4.3,0.2c-1.7,0-3.6,0.1-5.3,0.4
	c-0.8,0.2-1.7,0.5-2.5,0.7C62.7,32.7,61.9,32.9,61.1,33.2z M33.2,31.7c-1.5-0.2-2.6,0.9-2.6,2.3c0,0.8,0.3,1.8,1,2.1
	c0.2,0.1,0.9,0.3,1.1,0.3c0.5,0,1.1-0.2,1.4-0.4c0.6-0.4,1.1-1.5,0.9-2.8C34.9,32.4,34.2,31.8,33.2,31.7z M57.1,36.6
	c-1.5,1-2.3,2.6-3.2,4.3c-0.3,0.6-0.6,1.4-0.8,2.1c-0.5,1.6-1,3.1-1,5c0.3,2.5,1.2,4.6,2.2,6.5c0.2,0.5,0.5,0.9,0.9,1.3
	c0.1,0.6,0.7,1.1,1.2,1.5c1.1,0.9,2.4,1.9,3.5,2.8c0.2,0.1,0.2-0.1,0.4,0c0.9,0.5,1.9,1.1,3,1.5c0.5,0.2,0.8,0.3,1.5,0.4
	c0.4,0.1,0.8,0.3,1.2,0.4c0.5,0.1,0.9,0.1,1.4,0.2c0.2,0,0.4,0.2,0.6,0.2c0.3,0.1,0.5,0,0.8,0c0.8,0,1.8,0.3,2.5,0.3
	c1.4,0,2.9,0,3.9-0.6c1-0.2,1.9-0.6,2.7-1.1c0.3-0.2,0.7-0.3,1-0.5c0.1-0.1,0.2-0.3,0.4-0.4c0.5-0.4,1-0.5,1.4-1.1
	c-2.4-3-4.8-6-7.5-8.8c-1.3-1.4-2.7-2.8-4.1-4c-1.4-1.3-2.9-2.5-4.4-3.7c-0.1-0.1-0.1-0.2-0.2-0.4C62.1,40.5,59.7,38.5,57.1,36.6z
	 M32.9,37.5c-0.1,0.7-0.2,1.2-0.2,1.9c1.1-0.3,2-0.7,2.9-1.2c-0.3-0.5-0.8-0.8-1.1-1.2C34,37.3,33.5,37.5,32.9,37.5z M88,47.2
	c-0.7,3.4-1.9,6.4-3.2,9.2c0.3,0.5,0.7,0.9,1,1.4c0.4-0.1,0.6,0.1,0.9,0.2c0.4,0.1,0.9,0,1.4,0.1c0.7,0.1,1.3,0.3,2.1,0
	c0.2-0.1,0.3-0.2,0.5-0.3c0.3-0.1,0.6-0.1,0.8-0.3c0.2-0.1,0.5-0.3,0.7-0.5s0.6-0.3,0.7-0.5c0.1-0.1,0.2-0.4,0.3-0.6
	c0.4-0.5,0.9-1.2,1.1-2.2c0.1-0.3,0.2-0.9,0.2-1.2c0-0.2-0.1-0.4-0.2-0.6c-0.1-0.4,0-0.8-0.1-1.2c-0.1-0.3-0.4-1.1-0.5-1.3
	c-0.2-0.4-0.6-0.6-0.9-0.9c-0.3-0.3-0.6-0.7-1-0.9c-0.2-0.1-0.4-0.1-0.5-0.1c-0.7-0.2-1.4-0.5-2.1-0.7C88.9,47.1,88.4,47.1,88,47.2z
	 M38.1,48.5c0.2,0.4,0.9,0.3,1,0.7c0.1,0,0.1,0,0.1,0.2c0.4,0.4,0.8,1.4,0.1,2c-0.2,0.2-0.7,0.4-0.9,0c-0.1-0.2,0.1-0.4,0.2-0.7
	c0.1-0.5-0.2-0.6-0.3-1c-0.4-0.1-0.7-0.3-0.9-0.6c-0.2,0.1-0.5,0.2-0.8,0.2c-0.2,0.6-0.2,1.1,0,1.8c0.1,0.4,0.2,0.9,0.4,1.1
	c0.6,0.7,1.9,0.6,2.9,1.1c0.5-0.4,0.6-1.2,1.1-1.6c-0.6-0.5-0.3-1.6-0.7-2.2c-0.1-0.3-0.3-0.7-0.3-0.9
	C39.3,48.7,38.6,47.7,38.1,48.5z M41,54.2c0.3,0.4,0.5,0.9,0.7,1.4c0.5,0.1,0.8,0.7,1.1,1.2c0.8,0.3,1,1.1,1.7,1.5
	c0,0.1,0,0.2,0,0.3c0.4,0.3,0.7,0.6,1.1,0.9c0.3,0.5,0.7,0.7,1.3,1c0.8,0.6,1.9,1.3,2.9,1.7c0.3,0.1,0.4,0,0.6,0.3
	c1.3-1.2,2.3-2.9,3.4-4.2c-1-0.8-2.4-0.6-3.4-1.2c-0.2-0.1-0.4-0.3-0.5-0.5c-0.5-0.3-1.1-0.4-1.7-0.6c-0.9-0.3-1.5-1.1-2.4-1.4
	c-0.1-0.1-0.1-0.2-0.2-0.3c-1.1-0.5-2-1.4-3.2-1.9C41.8,52.9,41.5,53.6,41,54.2z M49.2,66.1c-0.2,0.2-0.6,0.5-0.6,0.8
	C48,67.5,47.5,68,47,68.8c0.8,1.5,2.1,2.6,3.4,3.6c1.3,1,2.5,2.2,4.1,2.8c0.5-0.7,0.8-1.6,1.3-2.2c0.3-0.8,0.7-1.5,1.1-2.2
	c-0.3-1.3-0.5-2.9-1-4.2c0.1-0.4,0.5-0.6,0.8-0.7c1.1-0.4,2.4-0.8,3.5-1.2c0.4-0.9,0.8-1.8,1.2-2.7c-0.9-0.6-1.6-0.9-2.6-1.4
	c-0.9-0.5-1.9-1.3-2.8-1.8c-0.1-0.3-0.6-0.4-0.8-0.5c-1.2,1.8-2.5,3.2-3.9,4.8C51.5,63.3,49.9,65.4,49.2,66.1z M55.1,75.6
	c1.1,0.7,2.4,1.1,3.7,1.6c0.2,0.1,0.3,0.2,0.5,0.3c0.3,0.1,0.7,0.2,1.1,0.3c0.6,0.2,1,0.3,1.7,0.4c0.4,0.1,0.9,0.3,1.3,0.3
	c0.9,0.1,2.1,0,3-0.1c0.4-1,0.6-2.3,0.9-3.5c0.1-0.6,0.4-1.1,0.2-1.6c0.4-1.1,0.4-2.5,0.6-3.7c0.1-0.6,0.3-1.2,0.3-1.8
	c0-0.2,0.1-0.3,0.1-0.5c0-0.7,0.2-1.5,0.2-2.2c0-0.3-0.4-0.8-0.4-1.1c-2.2-0.4-4.5-0.9-6.2-1.7c-0.4,0.8-0.7,1.6-1.2,2.3
	c0.2,1,0.5,2.2,0.8,3.1c0.2,0.8,0.6,1.4,0.1,2.1c-1.1,0.6-2.6,0.8-4.1,1.1c-0.6,0.7-0.9,1.6-1.3,2.4C56,74.1,55.5,74.8,55.1,75.6z
	 M56.9,66.8c0.1,1.1,0.4,2.2,0.7,3.1c1.4-0.1,2.6-0.4,3.6-0.8c-0.2-1.4-0.8-2.2-0.9-3.5C59.1,66,58,66.4,56.9,66.8z M69.9,66.2
	c-0.2,1.9-0.5,3.6-0.7,5.5c0.9-0.1,1.3,0.4,2,0.7c1.6,0.7,3.1,1.4,4.4,2.2c0.5,0.6,1.1,1.1,1.6,1.6c0.7-0.2,1.2-0.7,1.7-1
	c-0.3-1.6-1.5-2.2-1.9-3.7c-0.5-0.9-1.4-1.6-2-2.4c-1-0.5-1.8-1.4-2.8-1.9C71.5,66.7,69.9,66.2,69.9,66.2z M46,69.5
	c-1.6,0.3-2.7,0.1-4.3,0.5c-0.5,0.1-1.4,0.5-1.9,0.8c-1.1,0.6-1.6,1.1-2.5,2c-0.3,0.3-1.1,1.1-1.2,1.5c-0.2,0.6,0.1,1.1,0.3,1.7
	c0.5,0,0.9,0.1,1.3,0.2c0.5,0.1,1.6,0,2.1,0c2.5,0.3,4.2,0.5,6.2,1.4c0.9,0.4,1.7,0.8,2.5,1.2c0.6,0.3,1,0.9,1.7,1.2
	c0.2,0.2,0.6,0.4,0.9,0.8c1.8,0.9,3.2,2.4,4.5,4.1c0.4,0.5,0.9,1.3,1.2,1.9c0.2,0,0.2,0.2,0.2,0.3c0.1,0.2,0.3,0.4,0.4,0.7
	c0.2,0.6,0.1,1.3,0.5,1.8c0.1,0.6,0.3,1.5,0.4,2.2c0.6,0.4,1.3,0.4,2.2,0.5c0.4-0.4,0.9-0.9,0.9-1.5c0.4-0.6,0.9-1.2,1.1-1.9
	c1.2-2.3,2.2-4.8,3.1-7.4c-0.1-0.8,0.6-1.2,0.5-1.9c-1.7,0.3-3.6,0.2-5.1-0.2c-0.7-0.2-1.6-0.4-2.1-0.7c-0.1-0.1-0.2-0.3-0.4-0.3
	c-0.2-0.1-0.6-0.2-0.8-0.3c-2.5-1.1-4.9-2.3-6.9-3.9c-0.5-0.4-1.2-0.8-1.7-1.3c-0.4-0.4-0.8-0.8-1.2-1.2C47.2,71,46.5,70.2,46,69.5z
	 M31.9,72.8c-0.1,0.3,0,0.6,0.2,0.8c0.2,0.2,0.6,0.6,0.8,0.9c0.1,0.1,0.1,0.3,0.1,0.4s0.1,0.1,0.2,0.1c0.1,0.2,0.1,0.4,0.4,0.5
	c0.1,0.2,0.1,0.3,0.1,0.5c0.3,0.3,0.6,1.1,1.1,1.2c0.4,0.1,0.8-0.1,1.1-0.4c-0.5-0.6-0.7-1.4-0.8-2.5c-0.1,0-0.2,0-0.3,0
	C34,73.7,33.2,72.8,31.9,72.8z M78.2,77c-0.5,0.6-0.5,1.3-0.8,1.4c0,0.6,0.2,1.4,0.6,1.6c0.1,0,0.2-0.4,0.2-0.5
	c0.3,0,0.2,0.6,0.3,0.7c0.8,0.7,2.2,0.4,2.2-0.6c0.8-0.7,0.4-2.1-0.3-2.7c-0.5,0-0.6-0.4-1.1-0.4C79.5,76.4,78.6,76.7,78.2,77z
	 M72.1,81.9c-0.1,0.3,0.4,0.6,0.4,1c0.1,0.8-0.4,1.6-0.8,1.9s-1,0.4-1.6,0.3C69,85,67.6,84,67,83.1c-0.2-0.2-0.2-0.6-0.5-0.8
	c-0.1,0.5-0.2,1-0.5,1.4c0.5,0.3,0.7,0.9,1.2,1.2c1.1,0.9,4.2,2,5.4,0.5c0.5-0.6,0.7-1.6,0.6-2.3C73.1,82.7,72.6,82.1,72.1,81.9z
	 M63.7,95.3c-1-0.6-2.2-1-2.8-2c-0.7,0.2-1.6,0.1-2.1,0c-0.4-0.1-0.5,1.3-0.3,1.5c0.1,0.1,0.7,0.3,1.1,0.4
	C60.6,95.5,62.6,95.6,63.7,95.3z"/>
</svg>
