<?xml version="1.0" encoding="utf-8"?>
<!-- Generator: Adobe Illustrator 23.1.1, SVG Export Plug-In . SVG Version: 6.00 Build 0)  -->
<svg version="1.0" id="레이어_1" xmlns="http://www.w3.org/2000/svg" xmlns:xlink="http://www.w3.org/1999/xlink" x="0px"
	 y="0px" width="1200px" height="1000px" viewBox="0 0 1200 1000" style="enable-background:new 0 0 1200 1000;"
	 xml:space="preserve">
<style type="text/css">
	.st0{fill:#FF9C7D;}
	.st1{fill:#417FD8;}
	.st2{fill:#FFF2A4;}
	.st3{fill:#CCF9FF;}
	.st4{fill:#E6FCB6;}
	.st5{fill:#FFCFD5;}
	.st6{fill:#E2AAF9;}
	.st7{fill:#FF928D;}
	.st8{fill:#D4FC7E;}
	.st9{fill:#98A6F9;}
	.st10{fill:#C5FCE9;}
	.st11{fill:#ECC0FF;}
	.st12{fill:#9FDAFF;}
	.st13{fill:#E0FFA4;}
	.st14{fill:#F6D9FF;}
	.st15{fill:#FFE180;}
	.st16{fill:#FFC7D3;}
	.st17{fill:#FC97C5;}
	.st18{fill:#F97A7A;}
	.st19{fill:#FFA188;}
	.st20{fill:#D0F9C2;}
	.st21{fill:#D8F7D0;}
	.st22{fill:#FF83B3;}
	.st23{fill:#AAEF3C;}
	.st24{fill:#8D7AEA;}
	.st25{fill:#FFAD5C;}
	.st26{fill:#FFF8D4;}
	.st27{fill:#C5FFE3;}
	.st28{fill:#D2AAF9;}
	.st29{fill:#65D6BB;}
	.st30{fill:#9DFCF7;}
	.st31{fill:#E9F9B2;}
	.st32{fill:#7FF4D0;}
	.st33{fill:#FF718C;}
	.st34{fill:#F75252;}
	.st35{fill:#B5F7F5;}
	.st36{fill:#DFF4AB;}
	.st37{fill:#9FF4D5;}
	.st38{fill:#FF92C9;}
	.st39{fill:#FFCFE3;}
	.st40{fill:#FFEB76;}
	.st41{fill:#D2EEFF;}
	.st42{fill:#AEF784;}
	.st43{fill:#C4DB61;}
	.st44{fill:#B4F9D0;}
	.st45{fill:#D398F4;}
	.st46{fill:#9FBEFC;}
	.st47{fill:#BE62EF;}
	.st48{fill:#A0D3F2;}
	.st49{fill:#919DF2;}
	.st50{fill:#FFCCCC;}
	.st51{fill:#F2B4F9;}
	.st52{fill:#FF8676;}
	.st53{fill:#FFC271;}
	.st54{fill:#FFF9D9;}
	.st55{fill:#BBF3F9;}
	.st56{fill:#A4C9FF;}
	.st57{fill:#7EFCE7;}
	.st58{fill:#FF85AB;}
	.st59{fill:#FFE1E1;}
	.st60{fill:#BBFFE5;}
	.st61{fill:#3EEDC3;}
	.st62{fill:#FFEF9F;}
	.st63{fill:#CFF7A1;}
	.st64{fill:#EDFFC0;}
</style>
<path class="st0" d="M103.8,744.4c0,0,11.4-2.3,25.2,0c0,0-2.3,25.2,2.3,43.4c0,0-18.3,0-25.2-4.6
	C106.1,783.3,99.3,767.3,103.8,744.4z"/>
<path class="st1" d="M643.5,593.5c0,0,18.3-18.3,29.7-18.3c0,0,16,13.7,36.6,18.3c0,0-22.9,16-22.9,22.9
	C686.9,616.3,654.9,607.2,643.5,593.5z"/>
<path class="st2" d="M659.5,563.8c0,0,0,22.9,13.7,34.3c0,0,9.1-6.9,25.2-6.9c0,0-20.6-29.7-18.3-38.9
	C680,552.3,668.6,554.6,659.5,563.8z"/>
<path class="st3" d="M444.5,165.9c0,0,11.4-6.9,9.1-29.7c0,0,22.9,9.1,48,2.3c0,0-2.3,18.3-13.7,27.4
	C488,165.9,467.4,172.8,444.5,165.9z"/>
<path class="st4" d="M501.7,186.5c0,0,11.4,20.6-4.6,43.4c0,0,25.2,2.3,29.7,11.4c0,0,9.1-32,0-50.3
	C526.8,191.1,510.8,188.8,501.7,186.5z"/>
<path class="st5" d="M418.2,212.8c0,0,13.7,2.3,20.6,9.1l18.3-45.7c0,0-20.6,2.3-25.2-6.9C431.9,169.3,425.1,199.1,418.2,212.8z"/>
<path class="st6" d="M295.9,184.2c0,0,18.3,2.3,34.3,29.7c0,0,11.4-18.3,22.9-18.3c0,0-20.6-25.2-34.3-27.4
	C318.8,168.2,302.8,175,295.9,184.2z"/>
<path class="st7" d="M627.4,184.2c0,0,4.6,18.3,0,29.7c0,0,29.7-4.6,41.2-16c0,0,2.3-20.6,0-27.4
	C668.6,170.5,645.7,188.8,627.4,184.2z"/>
<path class="st8" d="M728.1,184.2c0,0,16,6.9,20.6,13.7c0,0,16-25.2,22.9-32c0,0-13.7-9.1-16-13.7
	C755.5,152.2,739.5,165.9,728.1,184.2z"/>
<path class="st9" d="M247.9,154.5c0,0,4.6,11.4,13.7,13.7c0,0,27.4,4.6,41.2,0c0,0-6.9-4.6-6.9-11.4
	C295.9,156.8,261.6,159,247.9,154.5z"/>
<path class="st10" d="M186.2,191.1c0,0,4.6,20.6,4.6,32c0,0,32-13.7,38.9-27.4c0,0,2.3-13.7-4.6-27.4
	C225,168.2,204.4,188.8,186.2,191.1z"/>
<path class="st11" d="M138.1,227.6c0,0,27.4,4.6,36.6,27.4c0,0,11.4-13.7,25.2-16c0,0-16-22.9-38.9-29.7
	C161,209.3,145,218.5,138.1,227.6z"/>
<path class="st12" d="M131.3,344.2c0,0,11.4-16,16-20.6h43.4c0,0-11.4,18.3-13.7,25.2L131.3,344.2z"/>
<path class="st13" d="M142.7,307.7c0,0,2.3,25.2,11.4,34.3c0,0,13.7-20.6,34.3-27.4c0,0-9.1-16-9.1-25.2
	C179.3,289.4,154.1,298.5,142.7,307.7z"/>
<path class="st14" d="M163.3,287.1c0,0-2.3,18.3,9.1,29.7c0,0,11.4-18.3,32-27.4c0,0-6.9-18.3-2.3-32
	C202.2,257.4,177,273.4,163.3,287.1z"/>
<path class="st15" d="M108.4,268.8c0,0,6.9,32,16,48c0,0,16-4.6,22.9-2.3c0,0-11.4-27.4-6.9-45.7
	C140.4,268.8,117.6,264.2,108.4,268.8z"/>
<path class="st16" d="M215.9,305.4c0,0,2.3,20.6,0,32c0,0,36.6-2.3,43.4-13.7l2.3-25.2C261.6,298.5,231.9,305.4,215.9,305.4z"/>
<path class="st17" d="M231.9,307.7c0,0,2.3,22.9-2.3,34.3c0,0,32-4.6,45.7-18.3c0,0,4.6-13.7,0-29.7
	C275.3,293.9,257,305.4,231.9,307.7z"/>
<path class="st18" d="M323.3,291.7c0,0,6.9,6.9,9.1,25.2c0,0,18.3-22.9,36.6-25.2c0,0,0-11.4-13.7-20.6
	C355.4,271.1,332.5,277.9,323.3,291.7z"/>
<path class="st19" d="M305,351.1c0,0,16,9.1,13.7,36.6c0,0,32-20.6,45.7-38.9c0,0,2.3-16-11.4-32C353.1,316.8,318.8,348.8,305,351.1
	z"/>
<path class="st20" d="M403.4,316.8l-2.3,48c0,0,22.9-2.3,27.4,9.1l2.3-48C430.8,326,414.8,314.5,403.4,316.8z"/>
<path class="st21" d="M433.1,351.1c0,0,9.1,2.3,32-9.1v27.4c0,0-20.6,11.4-29.7,4.6L433.1,351.1z"/>
<path class="st22" d="M407.9,335.1c0,0,9.1,16,32,11.4l-2.3,59.4c0,0-22.9,0-32-16L407.9,335.1z"/>
<path class="st23" d="M472,293.9c0,0,9.1,41.2,22.9,50.3c0,0,2.3-11.4,6.9-16c0,0-16-18.3-18.3-43.4
	C483.4,284.8,478.8,282.5,472,293.9z"/>
<path class="st24" d="M490.3,305.4c0,0,34,8.7,50.3,4.6c0,0-6.9-2.3-6.9-11.4c0,0-36.6,0-48-4.6C485.7,293.9,488,303.1,490.3,305.4z
	"/>
<path class="st25" d="M586.3,351.1c0,0,11.4-20.6,27.4-36.6c0,0,0,22.9,13.7,27.4c0,0-25.2,29.7-29.7,41.2
	C597.7,383.1,586.3,367.1,586.3,351.1z"/>
<path class="st23" d="M570.3,339.7c0,0,4.6,13.7-13.7,27.4c0,0,36.6,11.4,50.3,9.1c0,0,13.7-16,11.4-25.2L570.3,339.7z"/>
<path class="st26" d="M625.2,358c0,0,4.6,16-4.6,29.7c0,0,27.4,2.3,48-20.6c0,0,2.3-13.7-6.9-22.9
	C661.7,344.2,641.2,362.5,625.2,358z"/>
<path class="st27" d="M60.4,40.1c0,0-9.1,18.3-4.6,32c0,0-27.4-2.3-34.3,0c0,0-6.9-20.6,6.9-32C28.4,40.1,51.2,35.6,60.4,40.1z"/>
<path class="st28" d="M49,106.5c0,0-13.7-16-13.7-32c0,0-16,6.9-16,13.7c0,0,6.9,22.9,16,27.4C35.2,115.6,44.4,111,49,106.5z"/>
<path class="st12" d="M131.3,79c0,0,13.7-18.3,16-27.4c0,0,34.3,4.6,41.2,9.1c0,0-11.4,16-11.4,22.9C177,83.6,138.1,76.7,131.3,79z"
	/>
<path class="st16" d="M215.9,42.4c0,0,6.9,18.3,2.3,27.4c0,0,27.4-2.3,38.9-13.7c0,0,4.6-9.1,0-20.6L215.9,42.4z"/>
<path class="st4" d="M426.2,83.6c0,0,2.3,18.3-4.6,29.7c0,0,34.3,0,43.4-9.1c0,0,4.6-13.7,0-22.9C465.1,81.3,433.1,88.2,426.2,83.6z
	"/>
<path class="st23" d="M476.5,35.6c0,0,11.4,34.3,20.6,43.4c0,0-2.3-9.1,4.6-13.7l-16-27.4C485.7,37.9,481.1,31,476.5,35.6z"/>
<path class="st25" d="M584,85.9c0,0,6.9,20.6,16,27.4c0,0,11.4-22.9,27.4-34.3c0,0-16-16-11.4-27.4C616,51.6,590.9,69.9,584,85.9z"
	/>
<path class="st29" d="M721.2,120.2c0,0,2.3,4.6,6.9,6.9c0,0,32-4.6,38.9-13.7l-2.3-6.9C764.6,106.5,723.5,117.9,721.2,120.2z"/>
<path class="st1" d="M645.7,330.5c0,0,9.1-16,27.4-22.9l34.3,22.9c0,0-13.7,6.9-20.6,22.9C686.9,353.4,648,335.1,645.7,330.5z"/>
<path class="st30" d="M643.5,305.4v13.7c0,0,22.9,20.6,41.2,25.2l-2.3-13.7C682.3,330.5,657.2,321.4,643.5,305.4z"/>
<path class="st29" d="M821.8,296.2c0,0,6.9-9.1,13.7-6.9v48c0,0-6.9,0-9.1,6.9L821.8,296.2z"/>
<path class="st31" d="M814.9,307.7c0,0,13.7,9.1,16,27.4c0,0-22.9,20.6-29.7,34.3c0,0-4.6-20.6-16-27.4
	C785.2,342,810.4,316.8,814.9,307.7z"/>
<path class="st32" d="M858.4,216.2c0,0,6.9,38.9,16,45.7c0,0,11.4-4.6,20.6-6.9c0,0-9.1-25.2-11.4-43.4
	C883.5,211.6,863,213.9,858.4,216.2z"/>
<path class="st33" d="M970.4,124.7c0,0,4.6,18.3,0,34.3c0,0,34.3-20.6,45.7-20.6v-25.2C1016.2,113.3,988.7,124.7,970.4,124.7z"/>
<path class="st34" d="M1034.4,127c0,0,18.3,11.4,36.6,34.3c0,0,2.3-6.9,25.2-13.7c0,0-22.9-11.4-29.7-34.3
	C1066.5,113.3,1050.4,127,1034.4,127z"/>
<path class="st35" d="M892.7,85.9c0,0,13.7,13.7,13.7,34.3c0,0,29.7-25.2,38.9-43.4c0,0-4.6-16-16-27.4
	C929.3,49.3,920.1,72.2,892.7,85.9z"/>
<path class="st36" d="M1043.6,63c0,0,18.3,22.9,43.4,29.7c0,0,2.3-9.1,2.3-11.4c0,0-25.2-6.9-38.9-27.4L1043.6,63z"/>
<path class="st37" d="M821.8,37.9c0,0,2.3,34.3,4.6,41.2c0,0,4.6-6.9,9.1-6.9c0,0-4.6-20.6-2.3-34.3
	C833.2,37.9,826.4,33.3,821.8,37.9z"/>
<path class="st38" d="M1066.5,195.6c0,0,9.1,13.7,9.1,41.2c0,0,11.4,0,13.7-6.9c0,0-2.3-29.7-11.4-48
	C1077.9,181.9,1075.6,191.1,1066.5,195.6z"/>
<path class="st38" d="M1148.8,92.7c0,0-9.1,29.7,0,43.4c0,0,9.1-4.6,22.9-2.3c0,0-4.6-25.2,2.3-41.2
	C1173.9,92.7,1155.6,90.4,1148.8,92.7z"/>
<path class="st39" d="M1041.3,241.4c0,0,4.6,13.7,0,29.7c0,0,34.3-6.9,45.7-20.6c0,0,2.3-13.7-4.6-22.9
	C1082.5,227.6,1057.3,241.4,1041.3,241.4z"/>
<path class="st40" d="M1087,257.4c0,0,27.4,13.7,38.9,27.4c0,0-16,4.6-22.9,18.3c0,0-11.4-20.6-34.3-27.4
	C1068.7,275.7,1073.3,259.6,1087,257.4z"/>
<path class="st36" d="M1050.4,321.4c0,0-4.6,2.3-2.3,11.4c0,0,20.6,18.3,38.9,27.4c0,0-2.3-9.1,2.3-11.4
	C1089.3,348.8,1064.2,337.4,1050.4,321.4z"/>
<path class="st38" d="M1146.5,358v41.2c0,0,13.7,6.9,25.2,0V358C1171.6,358,1157.9,362.5,1146.5,358z"/>
<path class="st41" d="M1123.6,394.6c0,0,22.9,4.6,32,0c0,0-4.6,32,4.6,43.4c0,0-20.6,4.6-32-2.3C1128.2,435.7,1119,422,1123.6,394.6
	z"/>
<path class="st34" d="M1034.4,392.3c0,0,13.7,4.6,29.7-16c0,0,13.7,27.4,29.7,36.6c0,0-18.3,16-27.4,11.4L1034.4,392.3z"/>
<path class="st42" d="M1018.4,442.6c0,0,22.9-38.9,25.2-48c0,0,9.1,13.7,22.9,18.3c0,0-4.6,20.6-20.6,43.4
	C1045.9,456.3,1027.6,456.3,1018.4,442.6z"/>
<path class="st38" d="M1066.5,458.6c0,0,13.7,11.4,11.4,48c0,0,6.9-2.3,11.4-9.1c0,0,0-29.7-11.4-48
	C1077.9,449.4,1073.3,456.3,1066.5,458.6z"/>
<path class="st39" d="M1043.6,502c0,0,6.9,18.3,0,32c0,0,25.2,0,41.2-13.7c0,0,6.9-11.4,0-25.2
	C1084.7,495.2,1064.2,508.9,1043.6,502z"/>
<path class="st40" d="M1064.2,543.2c-2.1-0.8,13.7-18.3,22.9-18.3c0,0,18.3,6.9,34.3,27.4c0,0-11.4,2.3-20.6,16
	C1100.8,568.3,1087,552.3,1064.2,543.2z"/>
<path class="st43" d="M1103,545.5l2.3,13.7c0,0,27.4,6.9,41.2,4.6v-11.4C1146.5,552.3,1121.3,554.6,1103,545.5z"/>
<path class="st35" d="M892.7,353.4c0,0,13.7,6.9,13.7,29.7c0,0,27.4-13.7,38.9-38.9c0,0,0-13.7-13.7-27.4
	C931.6,316.8,924.7,332.8,892.7,353.4z"/>
<path class="st29" d="M718.9,385.4c0,0,2.3,9.1,11.4,9.1c0,0,27.4-11.4,34.3-16c0,0-4.6-4.6-4.6-9.1
	C760.1,369.4,741.8,380.8,718.9,385.4z"/>
<path class="st23" d="M737.2,399.1c0,0,11.4,13.7,9.1,32c0,0,29.7-13.7,36.6-32c0,0,0-22.9-6.9-29.7
	C776.1,369.4,769.2,385.4,737.2,399.1z"/>
<path class="st44" d="M730.3,447.1c0,0,11.4,6.9,16,16c0,0,25.2-25.2,25.2-32c0,0-4.6-6.9-13.7-11.4L730.3,447.1z"/>
<path class="st7" d="M627.4,451.7c0,0,4.6,11.4,0,29.7c0,0,27.4-6.9,41.2-18.3c0,0,2.3-11.4,0-25.2
	C668.6,438,641.2,451.7,627.4,451.7z"/>
<path class="st45" d="M517.7,456.3c0,0,6.9,2.3,9.1,6.9c0,0,16-11.4,43.4-11.4c0,0-4.6-9.1-9.1-9.1
	C561.1,442.6,529.1,444.9,517.7,456.3z"/>
<path class="st3" d="M444.5,431.1c0,0,11.4-6.9,11.4-27.4c0,0,29.7,4.6,45.7,0c0,0-2.3,16-13.7,27.4H444.5z"/>
<path class="st20" d="M504,449.4c0,0,6.9,16-4.6,48c0,0,20.6,2.3,29.7,13.7c0,0,4.6-29.7-2.3-50.3
	C526.8,460.9,522.3,451.7,504,449.4z"/>
<path class="st5" d="M414.8,479.2c0,0,13.7-18.3,16-43.4c0,0,11.4,2.3,22.9,11.4c0,0,0,22.9-11.4,38.9
	C442.2,486,417.1,486,414.8,479.2z"/>
<path class="st6" d="M295.9,449.4c0,0,20.6,9.1,34.3,32c0,0,11.4-16,25.2-18.3c0,0-16-22.9-34.3-29.7
	C321.1,433.4,307.3,433.4,295.9,449.4z"/>
<path class="st9" d="M247.9,417.4c0,0,4.6,9.1,2.3,13.7c0,0,34.3,6.9,50.3,4.6c0,0,4.6-4.6-4.6-11.4
	C295.9,424.3,254.7,417.4,247.9,417.4z"/>
<path class="st46" d="M259.3,415.1c0,0-4.6,38.9,0,50.3c0,0,13.7,6.9,27.4,6.9c0,0-4.6-29.7,0-45.7
	C286.8,426.6,270.8,422,259.3,415.1z"/>
<path class="st10" d="M183.9,456.3c0,0,11.4,18.3,6.9,34.3c0,0,32-16,41.2-27.4c0,0,2.3-16-6.9-29.7
	C225,433.4,195.3,451.7,183.9,456.3z"/>
<path class="st47" d="M115.3,408.3c0,0,2.3,13.7-9.1,29.7c0,0,34.3-4.6,48,0c0,0-2.3-18.3,6.9-32C161,406,122.1,408.3,115.3,408.3z"
	/>
<path class="st28" d="M26.1,328.2c0,0,20.6,41.2,25.2,45.7c0,0-18.3,11.4-22.9,13.7c0,0-16-27.4-20.6-45.7
	C7.8,342,21.5,335.1,26.1,328.2z"/>
<path class="st27" d="M33,310c0,0,0,11.4,2.3,25.2c0,0,11.4,0,18.3,2.3c0,0,4.6-20.6,4.6-29.7C58.1,307.7,39.8,307.7,33,310z"/>
<path class="st48" d="M74.1,460.9c0,0-13.7,11.4-11.4,25.2c0,0,27.4-2.3,43.4,4.6c0,0,2.3-18.3,13.7-27.4
	C119.8,463.1,92.4,458.6,74.1,460.9z"/>
<path class="st0" d="M101.6,474.6c0,0,13.7-4.6,27.4,0c0,0-2.3,22.9,4.6,45.7c0,0-20.6,2.3-27.4-6.9
	C106.1,513.5,101.6,492.9,101.6,474.6z"/>
<path class="st11" d="M138.1,490.6c0,0,16-6.9,25.2-16c0,0,27.4,16,38.9,32c0,0-20.6,6.9-25.2,16C177,522.6,163.3,499.7,138.1,490.6
	z"/>
<path class="st49" d="M202.2,511.2c0,0,13.7,2.3,22.9,20.6c0,0-4.6,27.4-16,41.2c0,0-9.1-16-22.9-18.3
	C186.2,554.6,202.2,531.7,202.2,511.2z"/>
<path class="st15" d="M108.4,534c0,0,11.4,4.6,29.7,0c0,0,0,25.2,11.4,41.2c0,0-13.7,6.9-27.4,0C122.1,575.2,106.1,547.7,108.4,534z
	"/>
<path class="st14" d="M161,552.3c0,0,9.1,16,9.1,27.4c0,0,29.7-25.2,34.3-32c0,0,0-16-9.1-18.3C195.3,529.5,167.9,540.9,161,552.3z"
	/>
<path class="st13" d="M140.4,572.9c0,0,27.4-9.1,34.3-18.3c0,0,4.6,18.3,16,25.2c0,0-32,18.3-36.6,25.2
	C154.1,604.9,147.3,575.2,140.4,572.9z"/>
<path class="st50" d="M193,595.8c0,0,13.7,13.7,16,22.9c0,0,16-22.9,16-34.3c0,0-2.3-11.4-9.1-16C215.9,568.3,206.7,588.9,193,595.8
	z"/>
<path class="st17" d="M229.6,572.9c0,0,4.6,13.7,0,29.7c0,0,25.2-2.3,45.7-13.7c0,0,6.9-18.3,0-29.7
	C275.3,559.2,250.2,572.9,229.6,572.9z"/>
<path class="st51" d="M42.1,545.5c0,0,4.6,4.6,16,6.9c0,0-22.9,18.3-34.3,20.6c0,0-4.6,0-6.9-4.6C16.9,568.3,30.7,556.9,42.1,545.5z
	"/>
<path class="st21" d="M405.7,543.2c0,0,9.1,6.9,6.9,13.7c0,0,25.2-2.3,36.6,11.4c0,0,2.3-2.3,0-11.4
	C449.1,556.9,433.1,545.5,405.7,543.2z"/>
<path class="st24" d="M488,559.2c0,0,0,6.9,4.6,13.7c0,0,29.7,9.1,48,4.6c0,0-9.1-4.6-6.9-13.7C533.7,563.8,510.8,568.3,488,559.2z"
	/>
<path class="st52" d="M945.3,353.4c0,0,6.9,16,2.3,34.3c0,0,36.6-9.1,43.4-20.6c0,0,4.6-25.2-2.3-34.3
	C988.7,332.8,979.6,346.5,945.3,353.4z"/>
<path class="st33" d="M968.1,390c0,0-2.3,27.4,2.3,34.3c0,0,34.3-16,45.7-16c0,0,4.6-22.9,0-32C1016.2,376.3,995.6,390,968.1,390z"
	/>
<path class="st53" d="M929.3,396.8c0,0,11.4,22.9,34.3,34.3c0,0-20.6,6.9-25.2,13.7c0,0-25.2-13.7-32-32
	C906.4,412.8,920.1,406,929.3,396.8z"/>
<path class="st54" d="M945.3,451.7c0,0,6.9-4.6,25.2-2.3c0,0,16,20.6,22.9,32c0,0-18.3,0-20.6,4.6
	C972.7,486,945.3,467.7,945.3,451.7z"/>
<path class="st55" d="M858.4,483.7c0,0,11.4,0,22.9-6.9c0,0,11.4,36.6,18.3,43.4c0,0-17.9,11.8-25.2,4.6
	C872.1,522.6,860.7,497.4,858.4,483.7z"/>
<path class="st56" d="M897.3,572.9c0,0,18.3-11.4,29.7-4.6c0,0,18.3,27.4,22.9,38.9c0,0-16,0-25.2,9.1
	C924.7,616.3,911,579.8,897.3,572.9z"/>
<path class="st57" d="M1002.4,522.6c0,0,20.6,4.6,32-2.3c0,0,9.1,32,18.3,41.2c0,0-20.6,4.6-29.7,0
	C1023,561.5,1004.7,538.6,1002.4,522.6z"/>
<path class="st52" d="M945.3,620.9c0,0,29.7-4.6,43.4-20.6c0,0,4.6,20.6,0,32c0,0-20.6,16-38.9,18.3
	C949.8,650.6,952.1,632.3,945.3,620.9z"/>
<path class="st58" d="M1151.1,652.9c0,0,20.6-11.4,29.7-11.4c0,0,13.7,20.6,4.6,41.2c0,0-13.7,6.9-20.6,9.1
	C1164.8,691.8,1169.3,666.6,1151.1,652.9z"/>
<path class="st41" d="M1123.6,657.5l32,4.6c0,0-6.9,20.6,6.9,41.2c0,0-20.6,4.6-32-2.3C1130.5,700.9,1121.3,691.8,1123.6,657.5z"/>
<path class="st42" d="M1043.6,666.6c0,0,18.3,4.6,22.9,11.4c0,0-20.6,34.3-22.9,43.4c0,0-18.3-9.1-22.9-13.7
	C1020.7,707.8,1029.9,684.9,1043.6,666.6z"/>
<path class="st30" d="M661.7,522.6c0,0,0,13.7,25.2,25.2c0,0-22.9,20.6-25.2,43.4c0,0-18.3-4.6-18.3-25.2
	C643.5,566,652.6,534,661.7,522.6z"/>
<path class="st59" d="M593.1,559.2c0,0,16,22.9,32,29.7c0,0,2.3-4.6,11.4-4.6c0,0-29.7-22.9-29.7-29.7
	C606.9,554.6,595.4,552.3,593.1,559.2z"/>
<path class="st26" d="M627.4,632.3c0,0-9.1,9.1-6.9,22.9c0,0,25.2-18.3,45.7-18.3c0,0-2.3-18.3,0-22.9
	C666.3,614.1,643.5,620.9,627.4,632.3z"/>
<path class="st60" d="M588.6,611.8c0,0,32,16,36.6,32c0,0,22.9-13.7,22.9-20.6c0,0-16-22.9-32-27.4
	C616,595.8,590.9,602.6,588.6,611.8z"/>
<path class="st61" d="M572.6,604.9c0,0-2.3,20.6-13.7,27.4c0,0,38.9,6.9,48,9.1c0,0,9.1-11.4,2.3-22.9L572.6,604.9z"/>
<path class="st45" d="M517.7,721.5c0,0,2.3,6.9,13.7,11.4c0,0,16-13.7,38.9-13.7c0,0-4.6-6.9-11.4-9.1
	C558.9,710.1,533.7,707.8,517.7,721.5z"/>
<path class="st20" d="M403.4,579.8c0,0,4.6,6.9,29.7,11.4c0,0-6.9,38.9-4.6,52.6c0,0-22.9-2.3-25.2-18.3V579.8z"/>
<path class="st22" d="M407.9,602.6c0,0,4.6,11.4,34.3,11.4c0,0-11.4,22.9-4.6,57.2c0,0-25.2-2.3-32-16
	C405.7,655.2,398.8,632.3,407.9,602.6z"/>
<path class="st19" d="M305,614.1c0,0,13.7,11.4,11.4,41.2c0,0,43.4-29.7,45.7-41.2c0,0,2.3-20.6-9.1-34.3
	C353.1,579.8,334.8,609.5,305,614.1z"/>
<path class="st62" d="M268.5,632.3c0,0,0,16,9.1,25.2c0,0-11.4,20.6-29.7,25.2c0,0-13.7-11.4-11.4-22.9
	C236.5,659.8,261.6,646.1,268.5,632.3z"/>
<path class="st46" d="M257,680.4c0,0,9.1,11.4,29.7,9.1c0,0-4.6,36.6,0,50.3c0,0-22.9-2.3-27.4-11.4
	C259.3,728.4,254.7,700.9,257,680.4z"/>
<path class="st47" d="M115.3,673.5c0,0-9.1,16-6.9,29.7c0,0,36.6-2.3,48,0c0,0,0-22.9,9.1-29.7C165.6,673.5,131.3,671.2,115.3,673.5
	z"/>
<path class="st48" d="M71.8,726.1c0,0-6.9,13.7-4.6,22.9c0,0,27.4,0,41.2,6.9c0,0-4.6-18.3,11.4-29.7
	C119.8,726.1,90.1,723.8,71.8,726.1z"/>
<path class="st51" d="M19.2,833.6c0,0,0,4.6,9.1,4.6l27.4-20.6c0,0-9.1,0-11.4-6.9L19.2,833.6z"/>
<path class="st49" d="M183.9,817.6c0,0,16,9.1,25.2,22.9c0,0,18.3-34.3,16-45.7c0,0-11.4-16-20.6-18.3
	C204.4,776.4,197.6,808.4,183.9,817.6z"/>
<path class="st50" d="M195.3,861c0,0,13.7,9.1,13.7,20.6c0,0,18.3-20.6,20.6-29.7c0,0-4.6-16-13.7-18.3
	C215.9,833.6,209,854.1,195.3,861z"/>
<path class="st62" d="M236.5,925c0,0,0,18.3,11.4,25.2c0,0,13.7-6.9,29.7-27.4c0,0-9.1-16-6.9-25.2
	C270.8,897.6,243.3,913.6,236.5,925z"/>
<path class="st63" d="M405.7,808.4c0,0,6.9,4.6,6.9,11.4c0,0,27.4,6.9,36.6,13.7c0,0,2.3-6.9-2.3-11.4
	C446.8,822.1,430.8,810.7,405.7,808.4z"/>
<path class="st60" d="M586.3,874.7c0,0,27.4,13.7,36.6,32c0,0,9.1-16,25.2-16c0,0-18.3-25.2-34.3-32
	C613.7,858.7,593.1,858.7,586.3,874.7z"/>
<path class="st23" d="M737.2,664.4c0,0,6.9,11.4,6.9,29.7c0,0,34.3-13.7,41.2-32c0,0,0-16-9.1-25.2
	C776.1,636.9,753.2,655.2,737.2,664.4z"/>
<path class="st31" d="M782.9,604.9c0,0,13.7,11.4,16,29.7c0,0,22.9-9.1,29.7-36.6c0,0-2.3-13.7-13.7-22.9
	C814.9,575.2,796.6,600.3,782.9,604.9z"/>
<path class="st53" d="M899.5,680.4c0,0,11.4,0,29.7-16c0,0,11.4,25.2,34.3,32c0,0-9.1,16-25.2,13.7
	C938.4,710.1,906.4,694.1,899.5,680.4z"/>
<path class="st54" d="M945.3,716.9c0,0,20.6,2.3,29.7-2.3c0,0,9.1,27.4,20.6,32c0,0-9.1,2.3-13.7,0
	C981.9,746.7,947.6,723.8,945.3,716.9z"/>
<path class="st57" d="M1004.7,787.8c0,0,18.3,4.6,29.7,0c0,0,11.4,29.7,18.3,38.9c0,0-20.6,9.1-29.7,0
	C1023,826.7,1013.9,813,1004.7,787.8z"/>
<path class="st26" d="M593.1,822.1c0,0,13.7-4.6,27.4,0c0,0,13.7,13.7,16,27.4c0,0-6.9-4.6-25.2,0
	C611.4,849.6,604.6,831.3,593.1,822.1z"/>
<path class="st30" d="M641.2,833.6c0,0,6.9,13.7,20.6,20.6c0,0,6.9-25.2,22.9-41.2c0,0-16-4.6-18.3-25.2
	C666.3,787.8,645.7,815.3,641.2,833.6z"/>
<path class="st56" d="M897.3,838.1c0,0,11.4-9.1,29.7-2.3c0,0,20.6,22.9,22.9,36.6c0,0-11.4-4.6-29.7,0
	C920.1,872.4,911,854.1,897.3,838.1z"/>
<path class="st43" d="M1100.8,808.4c0,0-2.3,4.6,4.6,11.4c0,0,29.7,11.4,45.7,6.9c0,0-4.6-2.3-4.6-9.1
	C1146.5,817.6,1119,819.8,1100.8,808.4z"/>
<path class="st58" d="M1151.1,920.4c0,0,16,18.3,11.4,41.2c0,0,20.6-13.7,32-11.4c0,0,0-36.6-9.1-41.2
	C1185.4,909,1167.1,906.7,1151.1,920.4z"/>
<path class="st64" d="M645.7,289.4l25.2,43.4c0,0,20.6,2.3,29.7-9.1l-25.2-38.9C675.5,284.8,666.3,291.7,645.7,289.4z"/>
</svg>
