<?xml version="1.0" encoding="utf-8"?>
<!-- Generator: Adobe Illustrator 23.1.1, SVG Export Plug-In . SVG Version: 6.00 Build 0)  -->
<svg version="1.0" id="레이어_1" xmlns="http://www.w3.org/2000/svg" xmlns:xlink="http://www.w3.org/1999/xlink" x="0px"
	 y="0px" width="100px" height="55px" viewBox="0 0 100 55" style="enable-background:new 0 0 100 55;" xml:space="preserve">
<style type="text/css">
	.st0{fill:#FFFFFF;}
</style>
<g>
	<polygon class="st0" points="78.8,0.5 78.8,11.7 57.4,11.7 57.4,21.1 78.1,21.1 78.1,32.3 57.4,32.3 57.4,41.9 78.8,41.9 
		78.8,53.2 43.8,53.2 43.8,0.5 	"/>
	<rect x="85.2" y="0.5" class="st0" width="13.5" height="52.7"/>
	<path class="st0" d="M23.9,0.5v37.4c0,2.6-2.1,4.6-4.6,4.6c-2.6,0-4.6-2.1-4.6-4.6v-4.6H1v4.6c0,9.1,7,16.6,18.2,16.6
		c11.3,0,18.3-7.4,18.3-16.6V0.5H23.9z"/>
</g>
</svg>
