<?xml version="1.0" encoding="utf-8"?>
<!-- Generator: Adobe Illustrator 24.0.3, SVG Export Plug-In . SVG Version: 6.00 Build 0)  -->
<svg version="1.0" id="레이어_1" xmlns="http://www.w3.org/2000/svg" xmlns:xlink="http://www.w3.org/1999/xlink" x="0px"
	 y="0px" width="232.3px" height="48.2px" viewBox="0 0 232.3 48.2" style="enable-background:new 0 0 232.3 48.2;"
	 xml:space="preserve">
<g>
	<path fill="#60A8F4" d="M6.4,12.3c0-1.7,0.3-3.4,1-4.9c0.7-1.5,1.6-2.8,2.8-3.9c1.2-1,2.5-1.9,4.1-2.5c1.5-0.6,3.2-0.9,5-0.9c1.7,0,3.4,0.3,5,0.9
		c1.5,0.6,2.9,1.5,4.1,2.5c1.2,1.2,2.1,2.4,2.8,3.9c0.7,1.5,1,3.2,1,4.9c0,1.4-0.2,2.8-0.6,4c-0.5,1.3-1.1,2.4-1.9,3.4
		c-0.8,1-1.8,2-2.8,2.7c-1.1,0.8-2.3,1.4-3.5,1.7v1.8h15.3V32H0v-6.1h15.4v-1.8c-1.3-0.3-2.5-0.9-3.5-1.7c-1.2-0.7-2.1-1.6-2.9-2.7
		c-0.8-1-1.4-2.1-1.9-3.4C6.7,15.1,6.4,13.8,6.4,12.3z M9.8,41.5h26.6v6.7H2.3V34.3h7.5V41.5z M13.6,12.3c0,0.8,0.1,1.6,0.5,2.3
		c0.2,0.8,0.6,1.4,1.2,1.9c0.5,0.6,1.1,1,1.9,1.2c0.7,0.3,1.4,0.5,2.3,0.5c0.8,0,1.6-0.1,2.3-0.5c0.7-0.2,1.3-0.6,1.9-1.2
		c0.5-0.5,0.9-1.1,1.2-1.9c0.2-0.7,0.4-1.4,0.4-2.3c0-1.6-0.6-2.9-1.6-4.1c-1.2-1-2.5-1.6-4.1-1.6c-0.8,0-1.6,0.2-2.3,0.4
		c-0.8,0.3-1.4,0.8-1.9,1.2c-0.6,0.6-1,1.2-1.2,1.9C13.7,10.8,13.6,11.5,13.6,12.3z"/>
	<path fill="#60A8F4" d="M68.8,3.1v18.5H52.6v5.8h17.6V34H45.1V15.2h16.2V9.7H45.1V3.1H68.8z M85.9,12.3V19H81v29.2h-7.5V1.9H81v10.4H85.9z"/>
	<path fill="#60A8F4" d="M116.4,14.9c0,1.9-0.3,3.5-1,5c-0.7,1.6-1.6,2.9-2.8,4.1c-1.2,1.2-2.6,2.1-4.2,2.8c-1.6,0.7-3.3,1-5,1c-1.9,0-3.5-0.3-5-1
		c-1.6-0.6-2.9-1.6-4.1-2.8c-1.2-1.2-2.1-2.5-2.8-4.1c-0.7-1.5-1-3.2-1-5c0-1.7,0.3-3.4,1-5c0.6-1.6,1.6-2.9,2.8-4.2
		c1.2-1.2,2.5-2.1,4.1-2.8c1.5-0.6,3.2-1,5-1c1.7,0,3.4,0.3,5,1c1.6,0.7,2.9,1.6,4.2,2.8c1.2,1.2,2.1,2.6,2.8,4.2
		C116.1,11.5,116.4,13.1,116.4,14.9z M129.5,48.2H97.2V32.6h7.5v9h24.9V48.2z M98,14.9c0,0.8,0.1,1.5,0.5,2.1
		c0.2,0.7,0.6,1.3,1.2,1.7c0.5,0.5,1,0.9,1.7,1.2c0.6,0.3,1.3,0.5,2.1,0.5c0.7,0,1.4-0.1,2.1-0.5c0.6-0.2,1.2-0.6,1.8-1.2
		c0.5-0.5,0.9-1,1.2-1.7c0.2-0.6,0.4-1.3,0.4-2.1c0-0.8-0.2-1.5-0.4-2.2c-0.3-0.6-0.8-1.2-1.2-1.7c-0.6-0.5-1.2-0.9-1.8-1.2
		c-0.7-0.2-1.4-0.4-2.1-0.4c-0.8,0-1.5,0.2-2.1,0.4c-0.7,0.3-1.3,0.8-1.7,1.2c-0.5,0.5-0.9,1.1-1.2,1.7C98.1,13.4,98,14.1,98,14.9z
		 M122,1.9h7.5v34.7H122V1.9z"/>
	<path fill="#60A8F4" d="M162.9,9.7l9.6,17.3h-8.4l-5.2-10.7l-5.5,10.7H145l9.5-17.3h-8.1V3.1h24.9v6.7H162.9z M183.2,48.2h-30.2V32.4h7.2v9h23.1
		V48.2z M175.9,1.9h7.5v34.7h-7.5V1.9z"/>
	<path fill="#60A8F4" d="M215.3,9.7h-16.2V21h16.2v6.7h-23.7V3.1h23.7V9.7z M227.4,48.2h-31.2V32.6h7.5v9h23.7V48.2z M232.3,18.1h-4.9v18.5h-7.5
		V1.9h7.5v9.5h4.9V18.1z"/>
</g>
</svg>
