<?xml version="1.0" encoding="utf-8"?>
<!-- Generator: Adobe Illustrator 24.0.3, SVG Export Plug-In . SVG Version: 6.00 Build 0)  -->
<svg version="1.0" id="레이어_1" xmlns="http://www.w3.org/2000/svg" xmlns:xlink="http://www.w3.org/1999/xlink" x="0px"
	 y="0px" width="65px" height="100px" viewBox="0 0 65 100" style="enable-background:new 0 0 65 100;" xml:space="preserve">
<style type="text/css">
	.st0{fill-rule:evenodd;clip-rule:evenodd;fill:#F8CEB0;}
	.st1{fill-rule:evenodd;clip-rule:evenodd;fill:#FFFFFF;}
	.st2{fill-rule:evenodd;clip-rule:evenodd;fill:#D2CAC4;}
	.st3{fill-rule:evenodd;clip-rule:evenodd;fill:#AF5E46;}
	.st4{fill-rule:evenodd;clip-rule:evenodd;fill:#F5A726;}
	.st5{fill-rule:evenodd;clip-rule:evenodd;fill:#BAD55C;}
	.st6{fill-rule:evenodd;clip-rule:evenodd;fill:#100964;}
	.st7{fill-rule:evenodd;clip-rule:evenodd;fill:#3D3355;}
	.st8{fill:#3D3355;}
</style>
<path class="st0" d="M13.9,62.1c0,0-1.2-1.4-0.3-2.6s4.4-0.6,4.4-0.6h4.5l5.3,4.5c0,0,3.2,4.5,3.2,10.6c0,0-5.3,3.9-6.7,2.9l-1-3.9
	c0,0-4.5-2.5-4.5-5.1s-1.4-4.7-1.4-4.7L13.9,62.1z"/>
<path class="st0" d="M14.8,55.1c0,0-2.2-1-1.8-2s1.8-1.2,2.5-2.7c0.6-1.4,2-1.4,3.5-0.4c0,0,1.8-0.8,3.3-0.4c0,0,0.2-0.2,2.2,2.9
	s1.8,0.6,2.2,6.3c0,0-1.2,0-2.5-1.4c-1.2-1.4-5-0.9-5-0.9L14.8,55.1z"/>
<path class="st1" d="M19.1,56.6l0.2,1.6c0,0,4.1,0,7.6,4.3c0,0,1-1-0.4-3.1C26.4,59.4,24,56.6,19.1,56.6z"/>
<polygon class="st1" points="16.2,55.9 16.2,58 18.6,58.2 18.8,56.2 "/>
<path class="st1" d="M6.9,61.8v1.8c0,0,4.3-2.7,6.1-2.9v-0.8C13.1,59.8,8.9,60.3,6.9,61.8z"/>
<path class="st2" d="M6,52.4c0,0,1.4,6.9,0.8,9.5c0,0,3.1-2.2,6.5-2.2c0,0,1-0.8,2.5-0.8c0,0,0.4-3.3-0.2-3.7L6,52.4z"/>
<path class="st1" d="M3.3,50.4l0.8,16.1c0,0,2.5,0.2,2.9-3.3S7,49.6,3.3,50.4z"/>
<path class="st3" d="M21.7,28.4c0,0-2.7-9.8,8-19.4s29-8.2,34.7-4.5l0.3,0.3V63c0,0-6.5-6.2-7.1-10.5c0,0,4.7-3.9,2.5-12.9
	s-9.4-3.5-10-1s-2.4,2.7-2.4,2.7s1.4-4.3-2.5-9.2s-4.3-9.2-4.3-9.2s-1.3,2.5-2-1.9s-0.3-5-0.3-5s-0.5-0.7-4.2,1.9S26.2,28.5,27,34.6
	c0,0-2.9-3.1-2.9-7.8S23.2,27,21.7,28.4z"/>
<polygon class="st4" points="27.5,98.7 23.5,76.5 24.9,76.6 27.6,76 30.8,73.8 33,73.4 33.8,79.6 36.9,88.6 39.6,95.5 41.7,89.3 
	44.2,83.8 52.4,72.8 55.1,71.8 64.6,67.3 64.7,98.7 "/>
<path class="st0" d="M64.6,67.4l-11.2,5l-4.5,0.9l-1.5-2.7l-0.9-0.7l-6.4,0.7l-6.3-1.4L29.6,66l-2.3-4.7l-1-5.9L26,54.3l-2.7-3.7
	v-0.7l2.8-2.8l1.2-2.7l0.4-2.5l-1-6.7l0.5-4.2l1.2-5.3l1.8-3.7l2-2.6l3.6-2.7l2.5-1l0.1,3.6l1,4l1.2,1l0.8,0.8l1.8,4.6l2.5,4
	l1.6,2.7l0.4,2.6l-0.2,2.5l1.5-1l1.1-2.3l1.1-1.7l1.2-0.9L55,35l2.5,0.4l1.8,2l1.5,3.9l-1,8.3c-0.3,0.5-0.7,0.9-1,1.4
	c-0.3,0.4-0.5,0.7-0.8,1.1c-0.1,0.2-0.2,0.3-0.3,0.5c-0.2,0.2-0.2,0.3-0.1,0.6c0.2,0.8,1.3,1.3,1.5,2.1c0.1,0.3-0.2,0.7,0,1
	c0.1,0.2,0.4,0.3,0.5,0.5c0.3,0.4,0.3,0.8,0.6,1.2c0.7,0.8,1.3,1.5,2,2.3c0.5,0.5,1.9,2.1,2.4,2.6V67.4z"/>
<path class="st5" d="M42,98.7h2.3c0,0,1.2-4.2,1.2-6.4c0-2.2,0.6-10,0.6-10s4.4-3.1,6.6-9.8s3.7-19.9,2.9-25.8c0,0,0-1-1.2-0.6
	s-0.8,2.2-0.8,2.2s0.2,11.6-1.4,16.3s-2.9,10.2-6.5,13.7c0,0-1-8.2-1-8.4S42,70.5,42,70.5s0.7,7.6,2.1,10.9
	C44.2,81.4,44.3,94,42,98.7z"/>
<path class="st1" d="M52.7,45.9c0,0-1-2.5,0.4-3.3s2.7,0,3.3,0.8s-0.2,3.3-0.2,3.3L55,45.9C55,45.9,53,46.3,52.7,45.9z"/>
<path class="st5" d="M30.1,67l2.5,1.8c0,0,1,12.9,0.6,15.9s1.2,11.6,3.7,13.7l0.1,0.3h-2.1l-1-1.7c0,0-2.7-4.1-1.8-10.4
	c0.8-6.3,0-0.2,0-0.2L31.3,77C31.3,77,30.7,68.6,30.1,67z"/>
<path class="st6" d="M31.1,38.3c-0.2,0-0.4-0.1-0.5-0.1c-0.2-0.1-0.4-0.1-0.6-0.2c-0.1,0-0.1-0.2-0.1-0.3s0.2-0.1,0.3-0.1
	c0.3,0,0.5,0.1,0.8,0.1s0.7,0,1,0c0.7,0,0.9,0.1,1.2,0.8c0.3,0.8,0.5,1.6,0.5,2.4c0,0.8-0.2,1.7-0.6,2.4c-0.2,0.4-0.5,0.5-0.9,0.4
	c-0.4-0.1-0.7-0.4-0.8-0.8c-0.1-0.3-0.1-0.7-0.1-1C31.1,40.6,31,39.5,31.1,38.3z"/>
<path class="st7" d="M32.7,27c0.5,0,1,0.2,1.5,0.4c0.6,0.3,1,0.7,1.5,1c0.3,0.2,0.5,0.5,0.8,0.8c0.1,0.1,0.1,0.3,0.1,0.4
	c-0.1,0.1-0.3,0.1-0.4,0.1c-0.3-0.1-0.5-0.2-0.6-0.5c-0.2-0.5-0.6-0.9-1-1.2c-0.5-0.3-1-0.7-1.6-0.7s-1.3,0-1.7,0.7
	c0,0.1-0.1,0.1-0.1,0.1c-0.1,0-0.2,0-0.2,0c-0.1,0-0.1-0.1-0.1-0.2c0-0.2,0.1-0.4,0.2-0.5C31.4,27.1,32.5,27,32.7,27z"/>
<path class="st8" d="M59.9,47.1c-0.2,1.3-0.1,2.6-0.9,3.8c0,0.1,0.3,0,0.4-0.1c0.7-1.1,0.7-2.5,0.9-3.8C60.3,47,59.9,47,59.9,47.1
	L59.9,47.1z"/>
<path class="st8" d="M27.3,95.6c-0.2-1-0.3-2-0.5-2.9c-0.3-1.8-0.7-3.5-1-5.3S25.3,83.8,25,82c-0.1-0.7-0.2-1.5-0.3-2.2
	c-0.1-0.7-0.3-1.5-0.5-2.2c-0.1-0.4,0-0.4,0.4-0.5c0.4,0,0.8,0,1.3-0.1s1.1-0.3,1.6-0.6c0.8-0.3,1.6-0.7,2.3-1.1
	c0.3-0.1,0.6-0.3,0.8-0.5c0.1,0,0.1-0.1,0.3-0.1c0,0.2,0.1,0.3,0.1,0.5c0.1,1.8,0.2,3.7,0.3,5.5c0,0.6,0.1,1.3,0.1,1.9
	c0,0.5-0.1,1-0.1,1.4c0,0.9,0.1,1.9,0.2,2.8c0,0.4,0.1,0.8,0.1,1.2c0,0.3-0.1,0.7-0.1,1c0,0.4,0.2,0.8,0.1,1.2
	c0,0.8,0.1,1.6,0.3,2.4c0.1,0.6,0.2,1.2,0.4,1.8c0.2,0.7,0.5,1.4,0.7,2.1c0.1,0.4,0.4,0.6,0.6,0.9c0.2,0.2,0.3,0.5,0.5,0.7
	s0.3,0.4,0.6,0.2c0.1,0,0.1,0,0.1-0.1s0-0.2,0-0.3c-0.1-0.2-0.2-0.5-0.3-0.7s-0.4-0.4-0.5-0.6c-0.3-0.7-0.6-1.4-0.8-2.2
	c-0.2-0.9-0.4-1.8-0.5-2.7c-0.1-0.7-0.2-1.4-0.2-2.1c-0.1-0.6-0.2-1.3,0-1.9c0-0.1,0-0.2,0-0.4c-0.1-0.8-0.1-1.5-0.2-2.3
	c0-0.2-0.1-0.4,0-0.6c0.2-0.7,0.1-1.5,0.1-2.2c0-1.6-0.1-3.2-0.2-4.8c0-0.2-0.1-0.4,0-0.6c0.1-0.4,0-0.7,0-1.1
	c-0.1-0.5-0.1-1-0.2-1.5c-0.3-1.9-0.6-3.8-1.1-5.7c-0.1-0.2-0.1-0.5-0.1-0.8c0.2,0.2,0.4,0.3,0.6,0.4c0.3,0.2,0.5,0.5,0.5,0.9
	c0,0.1,0.1,0.3,0.1,0.4c0.2,0.9,0.4,1.9,0.5,2.8s0.2,1.9,0.3,2.8c0.1,0.7,0.2,1.4,0.2,2c0,1,0,2.1,0,3.1c0,1.5,0,3.1,0,4.6
	c0,2.6,0.1,5.2,0.7,7.7c0.3,1.4,0.6,2.7,1.2,4c0.2,0.4,0.4,0.7,0.7,1c0.2,0.3,0.5,0.6,0.8,0.8c0.1,0.1,0.5,0.2,0.7,0.1
	c0.2-0.3-0.4-0.7-0.5-0.9c-0.2-0.2-0.4-0.3-0.6-0.5c-0.1-0.2-0.2-0.5-0.3-0.7c-0.1-0.4-0.2-0.7-0.4-1.1c-0.1-0.3-0.3-0.6-0.4-0.9
	c-0.4-1.2-0.6-2.5-0.7-3.7C34,89,34,87.5,33.9,86c0-0.7,0-1.4,0.1-2.1c0.1-0.8,0-1.5,0-2.3c0-0.2,0-0.4,0-0.6h0.1
	c0.1,0.3,0.3,0.6,0.3,0.9c0,0.5,0.2,1,0.3,1.4c0.3,0.9,0.5,1.8,0.9,2.7c0,0.1,0,0.1,0.1,0.2c0.3,1.1,0.6,2.1,0.9,3.2
	c0.1,0.3,0.3,0.6,0.4,0.9c0.5,1.6,1.1,3.2,1.6,4.8c0.1,0.4,0.1,0.7-0.1,1c-0.2,0.4-0.2,0.8-0.2,1.2c0,0.4-0.2,0.8-0.2,1.3
	c0.1,0,0.5,0,0.6,0c0.2-0.1,0.4-0.5,0.4-0.7c0.1-0.2,0.1-0.4,0.2-0.6c0-0.1,0.1-0.2,0.1-0.3c0-0.1,0-0.2,0.1-0.4
	c0-0.1,0.1-0.2,0.2-0.3c0.1-0.3,0.3-0.5,0.4-0.8c0.1-0.2,0.2-0.4,0.2-0.6c0.1-0.2,0.1-0.5,0.2-0.7c0.3-1,0.6-2.1,1-3.1
	c0.3-0.9,0.6-1.8,0.9-2.8c0.3-0.8,0.6-1.5,0.9-2.2c0.1-0.1,0.1-0.3,0.2-0.4c0.1,0.1,0.1,0.2,0.1,0.3c0,0.5,0,1-0.1,1.4
	c0,0.8,0,1.6-0.1,2.4c-0.1,1.7-0.2,3.4-0.3,5.1c0,0.3-0.1,0.5-0.1,0.8c-0.1,0.4-0.4,0.9-0.4,1.4c0,0.4-0.4,0.8-0.5,1.1
	c0,0.1-0.1,0.2-0.1,0.3c-0.1,0.1-0.2,0.2-0.2,0.3c0.3,0.1,1,0.1,1.2,0c0.3-0.1,0.4-0.7,0.5-1s0.2-0.6,0.2-0.9c0-0.4,0.2-0.9,0.2-1.3
	C44,95.1,44,94.5,44,94c0-0.6,0-1.3,0.2-1.9c0.1-0.6,0.2-1.3,0.2-2c0-1.4,0.1-2.7,0.3-4.1c0.1-0.6,0.1-1.1,0.1-1.7
	c0-0.8,0.1-1.5,0-2.3c0-0.6,0-1.1-0.6-1.6C44,80.3,44,80,43.9,79.8c-0.1-0.3,0-0.5-0.1-0.8c-0.5-1.3-0.8-2.6-0.8-3.9
	c-0.1-1.1-0.2-2.2-0.2-3.3c0-0.2,0-0.5-0.1-0.7c0.6-0.1,1.1-0.2,1.7-0.1v0.1c0,0.1,0,0.2,0,0.2c0,2.4,0.3,4.8,0.9,7.2
	c0.1,0.3,0.2,0.5,0.5,0.6s0.4-0.1,0.6-0.3c0.2-0.2,0.3-0.4,0.5-0.5s0.4-0.3,0.5-0.5c0.7-1,1.2-2.2,2-3.2c0.1-0.1,0.1-0.2,0.2-0.3
	c0.4-0.8,0.8-1.7,1.1-2.5s0.7-1.6,1-2.4c0.3-1.2,0.6-2.3,0.8-3.5c0-0.2,0.1-0.3,0.1-0.5c0.1-0.4,0.3-0.9,0.4-1.3
	c0.1-0.6,0.2-1.3,0.3-1.9c0.4-1.5,0.5-3.1,0.7-4.7c0.1-1.2,0.2-2.5,0.3-3.7c0-0.1,0-1,0.1-1.1c0-0.5,0-0.7,0-1
	c-0.1-1.9,0-2.9-0.1-4.7c0-0.1,0-0.3,0.1-0.3c0.2-0.1,0.4-0.2,0.6-0.2c0.3-0.1,0.5,0,0.5,0.4c0.1,0.4,0.1,0.7,0.1,1.1
	c0,1,0.1,1.9,0.1,2.9c0,0.6,0,1.3,0,1.9c0,0.5-0.1,0.9-0.1,1.4c-0.1,1-0.2,2-0.3,3c-0.1,1.2-0.3,2.5-0.4,3.7
	c-0.1,1.4-0.3,2.9-0.7,4.3c-0.1,0.3-0.2,0.7-0.2,1c-0.1,0.5-0.2,1-0.3,1.5c-0.1,0.4-0.3,0.9-0.4,1.3c-0.2,0.6-0.3,1.2-0.5,1.7
	c-0.3,0.9-0.6,1.7-0.9,2.6c-0.2,0.7-0.4,1.5-0.8,2.1c-0.5,0.9-1.1,1.7-1.6,2.6c0,0.1-0.1,0.1-0.1,0.2c0,0.4-0.3,0.6-0.5,0.9
	c-0.2,0.2-0.3,0.5-0.5,0.7c-0.5,0.6-1,1.1-1.5,1.7c0,0.1-0.1,0.1-0.2,0.1c-0.4,0.2-0.6,0.5-0.7,1c-0.1,1-0.1,2.1-0.2,3.1
	c0,0.6,0,1.2-0.1,1.9c-0.1,1-0.1,2-0.2,2.9c0,0.6,0,1.3-0.1,1.9c-0.1,0.9-0.2,1.8-0.4,2.7c-0.1,0.4-0.2,0.9-0.2,1.3
	c0,0.1,0,0.2,0,0.4c0,0.2-0.2,0.4-0.2,0.6c-0.1,0.2-0.2,0.4-0.3,0.6s-0.2,0.4-0.3,0.6c0.2,0.1,0.4,0,0.6,0.1c0.2,0,0.4,0.1,0.5-0.1
	c0.2-0.3,0.3-0.6,0.4-0.9c0.1-0.2,0.2-0.4,0.2-0.7c0.1-0.5,0.2-1,0.3-1.5s0.1-1.1,0.1-1.6c0-0.7,0.1-1.3,0.1-2c0-0.5,0-0.9,0-1.4
	c0.1-1.5,0.3-3.1,0.4-4.6c0.1-1.1,0.1-2.1,0.2-3.2c0-0.2,0.1-0.4,0.3-0.6c0.5-0.5,1.1-1.1,1.6-1.7s0.9-1.2,1.4-1.9
	c0.9-1.2,1.5-2.5,2.1-3.8c0.1-0.3,0.2-0.6,0.3-0.9c0.1-0.1,0.1-0.2,0.3-0.2c0.4-0.1,0.8-0.3,1.1-0.5c0.7-0.4,1.4-0.8,2.2-1.2
	c0.3-0.2,0.7-0.3,1-0.6c0.6-0.5,1.2-0.8,2-0.8c0.1,0,0.2,0,0.3-0.1c0.3-0.1,4.7-2,5-2.1c0.1-0.1,0.2-0.1,0.2-0.2
	c0.1-0.5,0.1-0.9,0-1.4c-0.2,0.1-0.2,0.2-0.3,0.2c-0.6,0.5-5.5,2.6-6.3,2.8c-0.4,0.1-0.7,0.3-1.1,0.5c-1.1,0.6-2.1,1.1-3.2,1.7
	c-0.1,0.1-0.2,0.1-0.4,0.2c0.1-0.6,0.2-1.1,0.4-1.6c0.1-0.3,0.3-0.5,0.4-0.8c0.3-1.2,0.6-2.4,0.8-3.7c0.2-0.9,0.2-1.7,0.4-2.6
	c0.1-0.6,0.3-1.2,0.4-1.8c0.1-1.1,0.2-2.3,0.3-3.4c0-0.2,0.1-0.4,0.1-0.6c0.1-1,0.4-2,0.3-3c-0.1-1.1,0.2-1,1-1.6
	c-0.1,0.6,0.5,1.5,0.8,2c0.5,0.9,1,1.9,1.6,2.7c0.7,0.8,1.5,1.6,2.2,2.5c0.3,0.4,1.7,1.9,2.1,2.3c0.3,0.3,0.5,0.4,0.6,0.7
	c0-0.4,0-0.8,0-1.2c-0.4-0.3-1.5-1.5-1.9-1.9c-0.3-0.4-0.5-0.8-0.8-1.1c-0.3-0.4-0.7-0.7-1-1.1c-0.3-0.6-0.7-1.2-1.1-1.8
	c-0.3-0.4-0.5-0.9-0.7-1.3c-0.2-0.6-0.8-1.6-0.7-2.3c0.1-0.6,0.9-0.9,1.2-1.4c0.1-0.2,0.2-0.4,0.3-0.6c0.3-0.4,0.5-0.9,0.6-1.4
	c0.1-0.2,0.2-0.5,0.3-0.8c0.4-1.2,0.2-2.6,0.3-3.9c0.1-1.4,0.1-2.8,0-4.2c-0.1-1.1-0.4-2-0.9-2.9c-0.2-0.3-0.3-0.7-0.5-0.9
	c-0.4-0.6-0.9-1.2-1.7-1.4c-0.4-0.1-0.9-0.3-1.3-0.4c-1.1-0.3-2.1-0.3-3.2,0.3c-0.5,0.3-1,0.6-1.5,0.8c-0.7,0.4-1.2,1-1.6,1.7
	c-0.1,0.1-0.1,0.3-0.3,0.4c-0.3,0.2-0.4,0.4-0.5,0.7s-0.2,0.6-0.4,0.9c-0.2,0.6-0.7,0.9-1.2,1.3c0-0.3,0-0.5,0-0.8
	c0.2-0.6,0.1-1.2,0.1-1.8c0-0.2,0-0.4,0-0.5c0-0.8-0.3-1.6-0.7-2.4c-0.2-0.3-0.4-0.7-0.5-1c-0.1-0.4-0.3-0.7-0.5-1
	c-0.6-1-1.5-1.8-2-2.8c-0.5-1.1-1.1-2.1-1.7-3.1c-0.1-0.1-0.1-0.2-0.1-0.3c0.1-0.3-0.1-0.5-0.2-0.8c-0.2-0.3-0.3-0.7-0.4-1
	c-0.3-1.1-0.6-2.1-0.9-3.2c-0.1-0.2-0.1-0.4-0.2-0.5c-0.1-0.2-0.4-0.2-0.6-0.2c-0.2,0.1-0.3,0.2-0.3,0.4c0,0.4-0.1,0.7-0.1,1.1
	c-0.1-0.2-0.2-0.3-0.2-0.5c-0.1-0.5-0.2-1-0.4-1.5c-0.5-1.6-0.5-3.2-0.3-4.9c0-0.2,0-0.4-0.2-0.4c-0.2-0.1-0.4-0.1-0.5-0.1
	c-0.4,0.1-0.8,0.3-1.1,0.4c-0.1,0-0.2,0.2-0.4,0.2c-0.4,0-0.7,0.2-1,0.4c-0.4,0.3-0.8,0.5-1.2,0.8c-0.2,0.1-0.4,0.2-0.6,0.4
	c-0.3,0.2-0.6,0.4-0.9,0.6c-0.2,0.2-0.4,0.4-0.6,0.6c-0.6,0.3-0.9,0.9-1.3,1.4c-0.2,0.3-0.3,0.6-0.6,0.9c-0.5,0.5-0.8,1-1.1,1.6
	c-0.7,1.1-1.3,2.3-1.7,3.6c-0.2,0.7-0.4,1.5-0.6,2.2c-0.1,0.4-0.2,0.8-0.3,1.1c-0.1,0.3-0.2,0.6-0.3,0.9c-0.1,0.6-0.2,0.7-0.3,1.3
	c0,0.4-0.1,0.5-0.1,1c0,0.1-0.1,0.2-0.1,0.3c-0.3-0.3-0.4-0.6-0.5-1c0-0.2-0.1-0.5-0.2-0.7c-0.2-0.6-0.4-1.1-0.6-1.7
	c-0.1-0.2-0.1-0.5-0.2-0.7c-0.2-0.4-0.2-0.8-0.2-1.3s0-1.1,0.1-1.6c0.1-0.8,0.2-0.9,0.5-1.6c0.1-0.1,0-0.3,0-0.5s-0.1-0.4-0.3-0.4
	c-0.1,0-0.3,0.1-0.4,0.1c-0.3,0.4-0.7,0.8-1,1.2c-0.5,0.7-0.9,1.5-1.2,2.3c-0.1,0.1,0.1,0.2-0.1,0.2c0-0.2,0-0.4,0-0.5
	c0-0.4,0-0.8-0.1-1.2c-0.2-0.8,0-1.6,0-2.3c0.1-0.9,0.3-1.7,0.5-2.5s0.5-1.5,0.9-2.2c0.4-0.6,0.5-1.1,0.9-1.7
	c0.1-0.1,0.1-0.3,0.1-0.4c0-0.2,0-0.3,0.1-0.4c0.3-0.3,0.6-0.7,0.9-1c0.1-0.1,0.2-0.2,0.2-0.3c-0.1-0.2,0.1-0.4,0.2-0.5
	c0.4-0.4,0.8-0.8,1.2-1.2c0.1-0.1,0.2-0.2,0.2-0.3c0-0.4,0.3-0.6,0.5-0.8c0.4-0.4,0.8-0.7,1.3-1c0.2-0.2,0.4-0.3,0.3-0.7
	c0.4-0.3,0.7-0.5,1-0.8c0.2-0.1,0.4-0.3,0.6-0.5c0.2-0.3,0.4-0.4,0.7-0.6C32,8.2,32.4,8,32.8,7.7C33,7.2,33.1,7.1,33.2,7
	c0.2-0.1,0.3-0.3,0.5-0.3c1.1-0.5,2.1-1,3.2-1.5c0.1,0,0.2-0.1,0.3-0.2c0.2-0.2,0.5-0.3,0.9-0.4c0.6-0.2,1.2-0.4,1.8-0.6
	c0,0.1,0.1,0,0.2,0c0.1-0.1,0.3-0.2,0.4-0.2c0.7-0.1,1.3-0.3,2-0.4c0.3,0,0.6-0.1,0.8-0.3C43.4,3,43.6,3,43.7,3
	c0.8-0.1,1.6-0.1,2.4-0.2c0.6-0.1,1.2,0,1.7-0.3c0.1,0,0.2,0,0.3,0c0.7,0,1.4,0,2,0c0.3,0,0.7,0.1,1-0.2c0.1-0.1,0.2,0,0.3,0
	c1.4,0.1,2.8,0.3,4.2,0.4c0.4,0,0.9,0.1,1.3,0.1c0.3,0,3.6,0.9,3.9,1C61,3.9,61.2,3.9,61.4,4c0.1,0,0.2,0.1,0.3,0
	c0.2-0.1,1.4,0.5,1.6,0.6c0.3,0.1,1.1,0.5,1.4,0.6c0-0.4,0-0.7,0-1.1c-0.2-0.1-0.9-0.4-1.1-0.5c-1.4-0.3-6.8-2-8.2-2.2
	c-0.5-0.1-1,0-1.4,0c-0.3,0-0.6,0-0.8,0c-0.3,0-0.5-0.1-0.8-0.1c-1.3-0.1-2.7-0.1-4,0c-0.5,0.1-1,0.1-1.4,0.2
	c-0.7,0.1-1.5,0.3-2.2,0.4c-0.9,0.1-1.7,0.2-2.6,0.4c-1.1,0.2-2.2,0.5-3.3,0.8c-0.3,0.1-0.6,0.1-0.8,0.2c-1,0.4-1.7,0.8-2.7,1.2
	c-0.3,0.1-0.6,0.3-0.9,0.5c-0.2,0.1-0.4,0.3-0.6,0.4c-0.1,0.1-0.3,0.3-0.4,0.3c-0.8,0.4-1.7,0.8-2.4,1.4C30.6,7.7,30,8,29.4,8.4
	c-0.1,0.2-0.3,0.4-0.4,0.7c-0.1,0.2-0.2,0.3-0.3,0.4c-0.3,0.3-0.9,0.5-1.2,0.8c-0.1,0.1-0.1,0.1-0.1,0.2c0,0.2-0.2,0.4-0.3,0.5
	c-0.4,0.4-1,0.8-1.2,1.4c0,0.1-0.1,0.1-0.2,0.2c-0.3,0.3-0.6,0.6-0.9,1s-0.6,0.9-0.9,1.4c-0.3,0.6-0.7,1.1-1,1.7
	c-0.4,0.9-0.7,1.9-1.1,2.8c-0.5,1.3-0.7,2.7-0.9,4c-0.2,1.3-0.1,2.6,0,3.8c0.1,0.6,0.2,1.3,0.3,1.9c0.1,0.5,0.6,0.6,1.1-0.1
	c0.8-1.6,1-2.3,1.4-2.7c0,0.3-0.1,0.4-0.1,0.7c-0.1,1.2,0,2.3,0.4,3.4c0,0.1,0.1,0.2,0.1,0.3c0.3,1.1,0.6,2.2,1.4,3.1
	c0.2,0.3,0.4,0.6,0.7,0.8c0.2,0.2,0.3,0.3,0.2,0.6c0,0.3,0,0.6,0,0.9c0.1,0.7,0.2,1.3,0.3,2c0.2,1.3,0.6,2.7,0.8,4
	c0.1,0.4,0,0.9-0.2,1.3c-0.2,0.5-0.5,1-0.6,1.5s-0.4,0.8-0.7,1.2c-0.4,0.5-0.9,1.1-1.3,1.6c-0.4,0.4-0.8,0.8-1.2,1.2
	c-0.1,0.1-0.4,0.3-0.5,0.2c-0.4-0.1-0.9-0.2-1.3-0.3c-0.3-0.1-0.6-0.2-0.9-0.1c-0.3,0.1-0.6,0.2-0.9,0.3c-0.1,0-0.1,0.1-0.2,0.1
	c-0.5-0.1-1.7-0.2-1.9-0.3c-0.7-0.2-1.4-0.3-2,0.4c-0.2,0.2-0.5,0.5-0.7,0.7c-0.6,0.7-1.2,1.4-1.8,2.1c-0.1,0.1-0.2,0.2-0.4,0.3
	c-0.4,0.2-0.5,0.4-0.5,0.9c0,0.2,0,0.3,0.1,0.6c-0.6-0.1-1.1-0.2-1.6-0.3C10.3,53.4,9.6,53.3,9,53c-0.9-0.3-1.9-0.6-2.7-1.2
	c-0.1-0.1-0.2-0.2-0.2-0.2c-0.4-0.6-0.8-1.2-1.2-1.8c0-0.1-0.1-0.1-0.2-0.2c-0.5-0.3-1-0.4-1.6-0.4c-0.4,0-0.6,0.2-0.9,0.4
	c-0.1,0-0.1,0.1-0.2,0.1c-0.4,0.3-0.6,0.7-0.7,1.2c0,0.1-0.1,0.3-0.1,0.4C1.1,51.5,1,51.8,1,52c0,0.5,0,0.9,0,1.4
	c-0.1,0.7-0.2,1.3-0.2,2c0,1.3-0.1,2.7,0.1,4c0.1,1,0.2,2,0.3,3.1c0.1,0.9,0.5,1.7,0.7,2.6c0.1,0.2,0.2,0.4,0.2,0.6
	c0.3,0.8,1.3,1.6,2.2,1.5c0.2,0,0.3,0,0.5,0c0.3-0.1,0.5-0.1,0.8-0.3c0.4-0.2,0.6-0.5,0.9-0.7c0.3-0.3,0.5-0.6,0.6-1
	c0.1-0.2,0.2-0.5,0.3-0.6c0.8-1.1,1.6-1.9,2.8-2.5c0.1,0,0.2,0,0.3-0.1c0.4-0.1,1.1-0.3,1.5-0.4c0.2-0.1,0.7-0.2,0.9-0.2
	c0.4,0.7,1.1,0.9,1.8,1.1c0.4,0.1,1.1,0.6,1.4,0.8s0.3,0.6,0.7,0.8c0.4,0.3,0.4,0.7,0.6,1.1c0.5,1.4,1.1,2.7,1.7,4.1
	c0.3,0.8,0.8,1.5,1.4,2.2c0.2,0.2,0.3,0.4,0.6,0.6c0.6,0.4,1.1,0.7,1.7,1.1c0.2,0.1,0.2,0.2,0.3,0.4c0.2,0.8,0.4,1.5,0.6,2.3
	c0,0.1,0,0.1,0,0.2c-0.1,0-0.1,0-0.2-0.1c-0.4-0.1-0.8,0.1-0.7,0.5c0,0.5,0.1,1,0.2,1.5c0.1,0.8,0.3,1.5,0.5,2.3
	c0.2,1.3,0.4,2.6,0.6,3.9c0,0.1,0,0.2,0,0.4c0,0.2,0,0.4,0,0.6c0.2,0.9,0.4,1.8,0.5,2.7c0.2,0.7,0.4,1.5,0.5,2.2
	c0.2,1.1,0.3,2.3,0.6,3.4c0.1,0.5,0.3,1,0.4,1.5c0.2,0.7,0.3,1.4,0.4,2.2c0.1,0.5,0.4,0.8,0.5,1.2c0.1,0.3,0.5,0.3,0.8,0.3
	c0.2,0,0.2-0.2,0.2-0.4c0-0.2-0.1-0.4-0.1-0.6c0-0.1-0.1-0.3-0.1-0.4C27.5,96.7,27.4,96.2,27.3,95.6z M60.1,48
	c-0.1,0.7-0.1,1.4-0.4,2c0-0.1,0-0.1,0-0.1c0.3-0.7,0.3-1.5,0.5-2.2c0,0,0-0.1-0.1-0.1c0,0,0-0.1,0.1-0.1
	C60.2,47.6,60.2,47.8,60.1,48C60.1,47.9,60.1,47.9,60.1,48z M15,51.6c0.4-0.5,0.8-0.9,1.1-1.4c0.3-0.4,0.6-0.5,1-0.5
	c0.5,0,0.9,0.2,1.4,0.5c-1.2,0.7-2.4,1.5-3.8,1.7C14.9,51.7,14.9,51.6,15,51.6z M13.6,53.2c0.6-0.2,1.5-0.3,2-0.5s1.1-0.4,1.6-0.7
	c0.5-0.2,1-0.4,1.5-0.7c0.6-0.3,1.1-0.7,1.7-1.1c0.2-0.1,0.3-0.2,0.5-0.3c0.3-0.1,0.5-0.1,0.8,0c0.2,0.1,0.7,0.3,1,0.4
	c0.1,0,0.2,0.1,0.2,0.2c0.5,1.6,1.4,2.8,2.7,3.8c0.2,0.1,0.3,0.3,0.3,0.5c0.1,1.2,0.3,2.5,0.5,3.7c0,0,0,0.1,0,0.2
	c-0.3-0.2-0.8-0.6-1.1-0.9c0-0.1,0-0.1,0.1-0.2c0.1-0.4,0-0.8-0.5-0.8c-0.3-0.1-0.6-0.2-0.9-0.4c-0.5-0.3-1-0.6-1.3-1
	c-0.1-0.1-0.1-0.1-0.2-0.2c-0.3-0.4-0.5-0.8-0.2-1.3c0.1-0.1,0.1-0.2,0.1-0.4c0.1-0.3-0.1-0.4-0.4-0.3c-0.1,0-0.3,0.1-0.4,0.2
	c-0.9,0.5-1.9,0.7-3,0.8c-0.3,0-0.6,0.1-0.9,0.1c-1.2,0.2-1.9,0.3-3,0L13.9,54C13.7,53.8,13.4,53.3,13.6,53.2z M20.6,57.9
	c-0.3,0-0.6,0-1-0.1c-0.1-0.1,0-0.4,0-0.6c0-0.2,0.2-0.2,0.4-0.2c0.5,0,1.1,0.1,1.6,0.2c0.7,0.1,1.4,0.5,2.1,0.8
	c0.8,0.4,1.6,1,2.3,1.6c0.3,0.3,0.7,0.6,0.9,1.1c0.1,0.3,0.4,1,0.5,1.3c0,0-0.4-0.4-0.5-0.4c-0.3-0.3-0.6-0.6-0.9-0.9
	c-0.7-0.7-1.5-1.4-2.4-1.9c-0.1-0.1-0.2-0.1-0.3-0.2C22.3,58.5,21.5,58,20.6,57.9z M22.4,59.6c-0.1,0.3-0.3,0.6-0.6,0.8
	c-0.6-0.3-1-0.7-1.6-1L20,59.3c0.2,0,0.4,0.1,0.6,0.1c0.3,0,0.6,0.1,0.9,0.1C21.9,59.3,22.2,59.4,22.4,59.6z M19.4,56.2
	c-0.1-0.2-0.2-0.4-0.3-0.7c0.3-0.1,0.6-0.2,0.9-0.3c0.2-0.1,0.4-0.1,0.6-0.1c0.4-0.1,0.6,0,0.8,0.3c0.2,0.3,0.3,0.6,0.5,0.9
	C21.1,56.2,20.3,56.2,19.4,56.2z M18.6,56.7c0,0.2,0,0.5,0,0.7c-0.7,0-1.3-0.1-2-0.1c0-0.2,0-0.5-0.1-0.6
	C17.3,56.4,17.9,56.6,18.6,56.7z M6.4,62.6c-0.1,0.8-0.1,1.5-0.4,2.3c-0.1,0.5-0.4,0.8-0.8,1.1c-0.2,0.1-0.3,0.1-0.5,0
	c0.1-0.3,0.2-0.7,0.2-1c0.1-0.4,0-0.9,0.2-1.3c0-0.1,0-0.2,0-0.4c0-0.5,0-0.9,0-1.4c0-1.1,0-2.3,0-3.4c0-0.6-0.1-1.1-0.2-1.7
	c-0.2-1.3-0.4-2.6-0.6-3.9c-0.1-0.6-0.2-1.1-0.5-1.6c0,0,0-0.1,0-0.2c0.4,0,0.8,0.1,1.2,0.3c0.1,0,0.2,0.2,0.3,0.4
	c0.3,0.9,0.5,1.9,0.7,2.8c0,0.1,0,0.1,0,0.2c-0.1,1.4,0.3,2.7,0.3,4.1c0,0.6,0,1.3,0,1.9c0,0.1,0,0.1,0,0.2
	C6.6,61.6,6.4,62.1,6.4,62.6z M12.5,60.5c-0.7-0.1-1.4,0.2-2,0.5c-0.8,0.3-1.4,0.8-2.1,1.2c-0.3,0.2-0.6,0.4-1,0.7
	c-0.1-0.2-0.1-0.5,0-0.7c0-0.1,0.1-0.2,0.2-0.2c0.3-0.2,0.7-0.4,1-0.6c0.1,0,0.1,0,0.2-0.1c0.7-0.3,1.3-0.5,2-0.8
	c0.4-0.2,0.9-0.2,1.3-0.3c0.2,0,0.4,0,0.7-0.1C12.7,60.3,12.7,60.5,12.5,60.5z M13.1,59.2c-0.9,0-1.7,0.2-2.5,0.4
	c-1,0.3-1.8,0.8-2.6,1.3c-0.2,0.1-0.2,0.2-0.5,0.3c0-0.4,0-0.6,0-0.9c-0.1-0.9-0.1-4.1-0.2-4.7c-0.1-0.7-0.3-1.4-0.4-2.1
	c0-0.1,0-0.1,0-0.3c0.3,0.1,0.5,0.3,0.7,0.4c1,0.5,2.1,0.7,3.1,1c0.9,0.3,1.8,0.4,2.8,0.4c0.1,0,0.3,0.1,0.4,0.2
	c0.4,0.4,1,0.5,1.6,0.5c0.2,0,0.3,0.1,0.3,0.3c0.1,0.3,0.1,0.6,0.1,0.9c0,0.5-0.1,0.9-0.1,1.5c-0.8-0.2-1.6,0-2.2,0.4
	C13.2,58.9,13.2,59.2,13.1,59.2z M30,74c-0.5,0.5-1.1,0.7-1.7,1c-1,0.5-2.1,0.9-3.3,1.3c-0.1-0.4-0.2-0.8-0.3-1.2
	c-0.2-0.8-0.4-1.5-0.6-2.3c0-0.1-0.1-0.2-0.2-0.3c-0.6-0.5-1.3-1-1.9-1.5c-0.9-0.6-1.5-1.5-2-2.4c-0.3-0.6-0.6-1.3-0.8-2
	c-0.1-0.2-0.2-0.5-0.3-0.8c-0.2-0.3-0.3-0.6-0.3-1c0-0.2-0.2-0.5-0.3-0.7c-0.1-0.2-0.2-0.3-0.3-0.4c-0.3-0.6-0.9-1-1.4-1.3
	c-0.7-0.4-1.5-0.7-2.2-1.1c-0.2-0.1-0.8-0.2-0.2-1.5c0.1-0.3,0.3-0.5,0.6-0.5c0.2-0.1,0.4-0.1,0.7-0.1c0.6,0,1.2,0,1.8,0.1
	c0.5,0.1,1,0.2,1.5,0.3c0.8,0.2,1.7,0.9,2.3,1.4c0.8,0.7,1.6,1.3,2.5,2c0.2,0.1,0.3,0.1,0.5,0.2c0.3,0.2,0.5,0.2,0.6,0
	s0.1-0.5-0.1-0.7c-0.3-0.2-0.6-0.5-0.8-0.7c-0.1-0.1-0.3-0.2-0.4-0.4c-0.2-0.1-0.2-0.3-0.1-0.5c0.2-0.3,0.3-0.3,0.5-0.6
	c0.4,0.1,0.7,0.3,1,0.6c0.5,0.5,1.1,0.9,1.7,1.4c0.4,0.3,0.7,0.7,1,1.1c0.4,0.6,0.8,1.2,1.3,1.8c0.2,0.3,0.3,0.6,0.5,0.9
	c0.2,0.6,0.3,0.9,0.5,1.4c0.5,1.6,0.8,3.4,1.2,5C30.6,73.3,30.4,73.6,30,74z M42.7,79.1c0.2,0.7,0.4,1.4,0.8,2
	c0.1,0.2,0.5,0.6,0.5,0.8c-0.5,1.4-1.3,3-1.9,4.4c-0.3,0.8-0.7,1.7-1,2.5c-0.1,0.2-0.3,0.4-0.2,0.7c0,0.2,0,0.4-0.1,0.5
	c-0.2,0.6-0.4,1.1-0.6,1.7c-0.2,0.6-0.4,1.2-0.6,1.9c0,0.1-0.1,0.2-0.2,0.4c-0.1-0.2-0.3-0.5-0.3-0.7c-0.2-0.5-0.3-1.1-0.5-1.6
	c-0.4-1.2-0.9-2.4-1.3-3.6c-0.1-0.4-0.3-0.8-0.4-1.2c-0.5-1.3-0.8-2.6-1.1-4c-0.1-0.5-0.3-0.9-0.4-1.3c-0.2-0.8-0.5-1.7-0.7-2.5
	c-0.1-0.5-0.3-1-0.4-1.4c0-0.1,0.1-0.3,0-0.3c-0.2-0.2-0.2-0.3-0.2-0.5c-0.1-1-0.4-2-0.5-3c0-0.4,0-0.7-0.1-1.1c0-0.1,0-0.2,0-0.3
	c-0.1-0.8-0.3-1.7-0.4-2.5c0-0.1-0.1-0.9-0.2-1c0.1,0,0,0,0.1,0.1c0.7,0.4,1.4,0.6,2.2,0.8c0.4,0.1,0.9,0.3,1.3,0.4
	c0.6,0.2,1.3,0.3,1.9,0.4c0.9,0.1,1.8,0.1,2.8,0.2c0.1,0,0.4-0.1,0.5-0.1c0,0.2,0,0.7,0,0.9c-0.1,1.1-0.1,2.2,0.1,3.3
	C41.9,76.2,42.2,77.7,42.7,79.1z M48.2,74.6c-0.5,0.8-1.1,1.7-1.7,2.5c-0.1,0.1-0.3,0.3-0.5,0.4c-0.1-0.3-0.1-0.5-0.2-0.7
	c-0.1-0.9-0.3-1.8-0.4-2.7c0-0.1-0.1-0.3,0-0.4c0.1-0.5,0-1.1,0-1.6c0-0.3,0-0.6,0-0.9c0-0.2-0.1-0.3,0.1-0.4c0.3,0,0.7-0.1,1-0.2
	c0.2,0,0.4,0,0.5,0.2c0.4,0.8,0.8,1.5,1.1,2.3C48.3,73.6,48.5,74.2,48.2,74.6z M53.5,52.7c0,0.1-0.2,0.4-0.2,0.5
	c0-0.1-0.3-0.2-0.3-0.2c-0.3-0.3-0.7-0.4-1-0.8c-0.1-0.2-0.3-0.4-0.4-0.5c-0.1-0.1-0.2-0.1-0.3-0.1c0,0.3-0.1,0.5,0.1,0.7
	c0.1,0.2,0.2,0.4,0.3,0.5c0.1,0.2,0.2,0.4,0.4,0.5c0.4,0.3,0.8,0.6,1.2,0.9c0,0.3-0.1,0.7-0.1,1.1c-0.1,1.3-0.2,2.6-0.3,3.8
	c0,0.2,0,0.4-0.1,0.6c-0.1,0.4-0.2,0.9-0.2,1.3c-0.1,0.8-0.2,1.7-0.4,2.5c-0.4,1.5-0.8,3-1.2,4.5c-0.2,0.6-0.4,1.2-0.6,1.8
	c-0.1,0.3-0.2,0.5-0.3,0.8c-0.2,0.5-0.4,1.1-0.7,1.6c0,0.1-0.1,0.2-0.2,0.3c-0.1-0.2-0.2-0.4-0.3-0.6c-0.3-0.6-0.4-1.1-0.8-1.7
	c-0.4-0.7-1.1-0.9-1.8-0.9c-0.6,0-1.1,0.1-1.7,0.2c-0.1,0-0.3,0.1-0.4,0c-0.4-0.1-0.8,0-1.2,0.1c-0.8,0.1-1.6,0.3-2.4,0.2
	c-0.5,0-1.1-0.1-1.6-0.1c-0.8,0-1.5-0.3-2.2-0.4c-0.1,0-0.1-0.1-0.2-0.1c-0.1-0.1-0.3-0.1-0.4-0.2c-0.9-0.2-1.9-0.4-2.7-0.8
	c-0.7-0.4-1.4-0.7-1.9-1.3c-0.1-0.1-0.1-0.2-0.2-0.2c-0.3-0.3-0.5-0.7-0.8-1c-0.4-0.4-0.8-0.7-1-1.3c-0.3-0.6-0.7-1.2-1-1.8
	c-0.5-1.2-0.8-2.4-1.1-3.7v-0.1c0.4,0,0.8,0,1.2,0c0.5,0,0.9-0.1,1.3-0.3c0.7-0.3,1.3-0.7,1.9-1.1c0.6-0.4,1.2-0.8,1.5-1.5
	c0.1-0.1,0.2-0.3,0-0.4c-0.1-0.1-0.3-0.1-0.4,0c-0.2,0.1-0.3,0.3-0.4,0.4c-0.3,0.4-0.6,0.8-1.1,1.1c-0.2,0.1-0.4,0.3-0.6,0.4
	c-1,0.6-2.1,1-3.3,0.8c-0.4-0.1-0.4,0-0.4-0.4C27,57,27,56.1,26.9,55.3c0-0.3-0.1-0.6-0.1-0.9c0-0.2-0.1-0.4-0.3-0.5
	c-0.4-0.4-0.8-0.8-1.1-1.2c-0.6-0.6-1.1-1.2-1.4-2c-0.1-0.2-0.1-0.4,0.1-0.6c0.4-0.4,0.8-0.7,1.1-1.2c0.8-1,1.7-2,2.3-3.2
	c0.3-0.6,0.7-1.1,0.7-1.8c0-0.1,0-0.2,0.1-0.2c0.3-0.3,0.2-0.6,0.2-0.9c-0.1-0.5-0.2-1-0.2-1.6c0-0.8-0.2-1.6-0.3-2.4
	c-0.3-1.2-0.4-2.4-0.4-3.5c0-1.3,0.1-2.5,0.1-3.8c0-0.1,0-0.2,0-0.2c0.2-0.9,0.4-1.8,0.6-2.7c0.2-1.2,0.7-2.3,1.1-3.4
	c0.2-0.6,0.5-1.1,0.8-1.6c0-0.1,0.1-0.2,0.2-0.2c0.3-0.1,0.4-0.5,0.6-0.7c0.3-0.5,0.7-1.1,1-1.6c0.5-0.8,1.2-1.4,1.9-2
	c0.4-0.4,0.9-0.7,1.4-1c0.7-0.6,1.6-1.1,2.4-1.5c0.1,0,0.2-0.1,0.4-0.1c0,0.2,0,0.3,0,0.4c0,0.9-0.1,1.7,0.1,2.6
	c0.2,1.1,0.5,2.2,0.8,3.4c0.2,0.9,0.6,1.7,1.3,2.4c0.2,0.2,0.4,0.3,0.6,0.3c0.1,0,0.2,0,0.3,0c0,0.1,0.1,0.1,0.1,0.2
	c0.2,1.1,0.7,2,1.2,2.9c0.1,0.1,0.2,0.3,0.2,0.5c0.2,0.9,0.6,1.7,1.2,2.4c0.5,0.7,1,1.3,1.5,2c0.1,0.1,0.2,0.3,0.2,0.3
	c-0.1,0.2,0.1,0.3,0.1,0.4c0.4,0.6,0.7,1.1,1.1,1.7c0.4,0.7,0.5,1.3,0.5,2.1c0,0.3,0.1,0.9,0.1,1.2c0.1,1,0,1.3-0.2,2.2
	c-0.1,0.3,0.1,0.6,0.4,0.6c0.2,0,0.5-0.2,0.7-0.3c0.6-0.3,1-0.3,1.4-0.8c0.2-0.2,0.4-0.4,0.6-0.6c0.1-0.1,0.1-0.1,0.1-0.2
	c0.1-0.3,0.2-0.6,0.2-0.9c0-0.3,0.1-0.5,0.2-0.7c0.4-0.5,0.7-1,1-1.5c0.2-0.3,0.4-0.5,0.8-0.7c0.5-0.2,1-0.5,1.6-0.6
	c0.7-0.2,1.3-0.5,2-0.3c1,0.2,1.9,0.7,2.5,1.6c0.8,1.2,1.1,2.6,1.4,3.9c0.5,2.1,0,5,0,5.5c0,0.4,0,0.9-0.1,1.3l0,0
	c-0.1,0.3-0.1,0.7-0.2,1.1c-0.3,0.6-0.7,1.2-1,1.8c-0.3,0.4-0.6,0.8-0.9,1.2c-0.4,0.4-0.8,0.7-1.4,0.9c0-0.3,0-0.5,0-0.7
	c0-1.2,0-2.5,0.1-3.7c0-0.1,0-0.9,0.1-1c0-0.5-0.1-0.7,0.1-1.2c0.1-0.3,0.2-0.7,0.2-1c0.1-0.6,0.1-1.2-0.2-1.7
	c-0.6-0.9-0.7-1.4-1.8-1.5c-0.3,0-0.7-0.1-1,0c-0.2,0.1-0.5,0.1-0.4,0c0.2-0.3,0.4-0.6,0.5-0.8c0.1-0.1,0.2-0.2,0.3-0.4
	c0.4-0.5,0.9-0.7,1.5-0.8c0.3,0,0.5-0.2,0.6-0.5c-0.4,0.1-0.9,0.2-1.3,0.3c-0.2,0.1-0.4,0.1-0.6,0.2c-0.6,0.5-1.2,1-1.5,1.8
	c-0.2,0.6-0.4,1.2-0.7,1.9c-0.2,0.5-0.2,0.9,0,1.4c0.1,0.2,0.1,0.3,0.1,0.5c0.1,0.4,0.2,0.8,0.6,1.2c0.4,0.4,0.6,0.8,0.6,1.4
	C53.4,49.6,53.5,51.2,53.5,52.7z M53.9,45.9c-0.2-0.3-0.2-0.4,0.1-0.5c0.3-0.2,0.5-0.2,0.8,0.1C54.5,45.6,54.2,45.8,53.9,45.9z
	 M55.2,45.2c-0.4-0.4-0.9-0.4-1.4-0.2c-0.3,0.1-0.5,0.2-0.8,0.3c-0.3-0.9-0.2-1.7,0.5-2.5c0.3-0.3,0.5-0.3,0.9-0.2
	c0.8,0.2,1.3,0.7,1.7,1.4c0.1,0.1,0.1,0.2,0.1,0.3c0,0.6-0.1,1.1-0.2,1.7C55.7,45.7,55.5,45.4,55.2,45.2z"/>
</svg>
