<?xml version="1.0" encoding="utf-8"?>
<!-- Generator: Adobe Illustrator 24.1.0, SVG Export Plug-In . SVG Version: 6.00 Build 0)  -->
<svg version="1.0" id="레이어_1" xmlns="http://www.w3.org/2000/svg" xmlns:xlink="http://www.w3.org/1999/xlink" x="0px"
	 y="0px" width="43px" height="100px" viewBox="0 0 43 100" style="enable-background:new 0 0 43 100;" xml:space="preserve">
<style type="text/css">
	.st0{fill-rule:evenodd;clip-rule:evenodd;fill:#E6BFAB;}
	.st1{fill-rule:evenodd;clip-rule:evenodd;fill:#5E66AD;}
	.st2{fill-rule:evenodd;clip-rule:evenodd;fill:#925626;}
	.st3{fill-rule:evenodd;clip-rule:evenodd;fill:#F0BF9E;}
	.st4{fill-rule:evenodd;clip-rule:evenodd;fill:#F8CEB0;}
	.st5{fill-rule:evenodd;clip-rule:evenodd;fill:#3D3355;}
	.st6{fill-rule:evenodd;clip-rule:evenodd;fill:#100964;}
	.st7{fill-rule:evenodd;clip-rule:evenodd;fill:#EB6D80;}
	.st8{fill-rule:evenodd;clip-rule:evenodd;fill:#FFFFFF;}
</style>
<g>
	<path class="st0" d="M28.9,34.9c0,0-1.3,1-0.9,4.3s0.6,10.6,0.6,10.6s3.4-1.2,4.2-5.6C33.6,39.8,33.7,33.5,28.9,34.9z"/>
	<path class="st1" d="M0,83.7V100h42.3c0,0-5.1-9.4-13.9-15.7l-9.7-6.6c0,0-0.3,2.2-4,4.1S7.1,85.4,0,83.7z"/>
	<path class="st2" d="M0,3.1v24l5.6-1.6l0.4,1l5.8-2.8l2,0.4l7-5.1c0,0,5.1,3.1,6.9,16.8l2.6-1.8c0,0,2.8-9.9-4-19.5L18,7
		C18.1,6.9,12.3,1.8,0,3.1z"/>
	<path class="st3" d="M0,75.6v8.1c0,0,13.3,3.4,17.9-5.7l-0.5-5.3C17.4,72.7,7.2,77.5,0,75.6z"/>
	<path class="st4" d="M0,75.6V26.7c0,0,2.7,0.2,4.9-1l0.8,0.6c0,0,4.4-1.2,5.6-2.4c0,0,0.8,2.2,9.3-5c0,0,1,0,2,1.8S27,27.8,28,39.4
		c1,11.7,0.2,19.7-2.6,25s-8.1,9.5-11.9,9.9C9.7,74.6,5.6,76.8,0,75.6z"/>
	<path class="st5" d="M0,26.5c0.6,0,2.7-0.2,3.2-0.5c0.2-0.1,0.5-0.3,0.7-0.2c0.1,0,0.2,0,0.3-0.1c0.6-0.3,1.1-0.6,1.7-0.9
		c0.1-0.1,0.2-0.1,0.3-0.2c0.5-0.2,0.6-0.2,0.9,0.3c-0.1,0.4-0.5,0.5-0.6,0.8c0,0.2,0.2,0.2,0.3,0.1c0.3-0.1,0.6-0.2,0.8-0.3
		c0.8-0.4,1.6-0.8,2.4-1.3c0.7-0.4,1.2-0.9,1.8-1.4c0.1-0.1,0.2-0.2,0.3-0.2c0.2-0.1,0.4-0.1,0.6,0c0.2,0.2,0.1,0.3,0,0.5
		c-0.1,0.1-0.1,0.2-0.2,0.4c0.2-0.1,0.3-0.1,0.4-0.2c0.1,0,0.3-0.1,0.4,0c0.2,0.1,0.4,0,0.6-0.1c1-0.5,1.8-1.1,2.7-1.7
		c1-0.6,1.8-1.4,2.7-2.1c0.1-0.1,0.2-0.2,0.3-0.3c0.3-0.3,0.6-0.6,1-0.8c0.2-0.2,0.5-0.1,0.7,0c0.3,0.1,0.5,0.3,0.7,0.5
		c0.3,0.3,0.5,0.6,0.7,0.9c0.2,0.2,0.3,0.5,0.5,0.7c0.4,0.4,0.5,0.9,0.8,1.3c0.1,0.2,0.3,0.4,0.4,0.5c0.2,0.2,0.3,0.4,0.3,0.7
		c0,0.2,0.2,0.4,0.3,0.5c0.3,0.4,0.5,0.9,0.7,1.4c0.2,0.6,0.5,1.1,0.8,1.7c0.1,0.2,0.2,0.5,0.1,0.8c-0.1,0.1,0.1,0.3,0.1,0.5
		c0.2,0.4,0.3,0.8,0.5,1.2c0.1,0.2,0.1,0.4-0.1,0.6C27,29.7,27,29.9,27,30c0.1,0.5,0.3,0.9,0.5,1.3c0.1,0.2,0.1,0.4,0.1,0.6
		s0,0.4,0,0.6c0.1,0.4,0.2,0.8,0.4,1.2c0.1,0.3,0.1,0.5,0.1,0.8c0,0.1,0.1,0.2,0.1,0.3c0.4-0.2,0.8-0.5,1.2-0.7
		c0.1,0,0.1-0.1,0.1-0.2c0.4-0.7,0.6-1.4,0.6-2.1c0-0.4,0.1-0.8,0.3-1.1c0.1-0.2,0.1-0.5,0.1-0.7c-0.1-0.8-0.1-1.6-0.2-2.4
		c-0.1-0.7-0.1-1.4-0.2-2c-0.1-0.7-0.1-1.4-0.3-2c-0.2-0.8-0.5-1.6-0.6-2.5c-0.1-0.7-0.5-1.3-0.7-1.9c-0.1-0.2-0.2-0.5-0.3-0.7
		c-0.1-0.2-0.1-0.4-0.2-0.6v-0.1c-0.4-0.7-0.7-1.5-1.4-2c-0.2-0.2-0.4-0.4-0.6-0.6c-0.2-0.2-0.3-0.3-0.3-0.6c0-0.1-0.1-0.2-0.2-0.3
		c-0.3-0.3-0.7-0.6-0.8-1c0-0.1-0.1-0.1-0.2-0.2c-0.9-0.5-1.7-1.1-2.6-1.5c-0.3-0.1-0.3-0.1-0.2-0.6c-0.1-0.1-0.2-0.1-0.3-0.2
		c-0.1,0-0.2-0.1-0.2-0.2c0-0.3-0.3-0.4-0.5-0.6c-0.2-0.2-0.4-0.4-0.6-0.6c-0.2-0.2-0.5-0.4-0.7-0.6c-0.2-0.1-0.4-0.2-0.5-0.4
		c-0.7-0.8-1.6-1.3-2.5-1.8c-0.7-0.4-1.5-0.8-2.3-1.2c-0.5-0.2-1-0.4-1.5-0.6c-0.1,0-0.2,0-0.2-0.1c-0.2-0.3-0.5-0.3-0.8-0.4
		C10.7,4,9.8,3.9,9,4C8.9,4,8.7,4,8.7,4C8.4,3.8,8.1,3.8,7.8,3.8c-0.2,0-0.3,0-0.5-0.1c-0.5-0.1-1-0.3-1.4-0.4c-0.5,0-1-0.2-1.5,0
		C4.2,3.4,4,3.3,3.8,3.2c-0.2,0-0.3,0-0.4,0C2.8,3.3,0.6,3.4,0,3.4C0,3.2,0,3,0,2.8c0.1-0.1,0.3-0.2,0.4-0.3
		c0.4-0.3,2.5-0.3,2.9-0.4C3.6,2,3.9,2,4.2,2S4.8,1.9,5,1.9c0.1,0,0.3,0,0.3,0.1C5.6,2.4,6,2.3,6.4,2.3c0.5,0,0.9-0.1,1.4-0.1
		c0.1,0,0.3,0,0.5,0c0.1,0.3,0.3,0.4,0.6,0.5c0.2,0,0.4,0.1,0.7,0.2C9.7,2.9,9.8,3,9.9,3c1.2,0,2.2,0.5,3.3,0.9
		c1.2,0.5,2.3,1.2,3.5,1.9c0.6,0.3,1.2,0.7,1.7,1.1s0.9,0.7,1.4,1c0.7,0.4,1.1,1,1.6,1.5c0.3,0.3,0.6,0.6,1,0.8
		c0.7,0.4,1.4,0.8,1.9,1.4c0.1,0.1,0.2,0.2,0.3,0.2c0.6,0.5,1.2,0.9,1.7,1.4c0.1,0.1,0.3,0.3,0.3,0.4c0.1,0.3,0.3,0.6,0.5,0.8
		c0.5,0.5,0.7,1.1,1.3,1.6c0.1,0.1,0.1,0.2,0.2,0.3c0.2,0.8,0.7,1.4,1.1,2.1c0.1,0.3,0.3,0.5,0.2,0.8c0,0.1,0,0.2,0.1,0.3
		c0.2,0.4,0.3,0.8,0.5,1.2c0.1,0.3,0.2,0.6,0.2,0.9c0,0.4,0.1,0.7,0.2,1.1c0.3,1.1,0.3,2.2,0.5,3.3c0.1,0.5,0.1,1,0.1,1.5
		c0,0.3,0.1,0.7,0.1,1.1c0,0.5,0,0.9,0,1.4c0,0.4,0,0.8,0,1.2c0,0.3,0,0.6-0.2,1c-0.1,0.3-0.1,0.7-0.1,1s-0.1,0.5-0.3,0.6
		c-0.3,0.2-0.2,0.3,0,0.5c0.6,0.3,1.1,0.8,1.5,1.3l0.1,0.1c0.9,0.8,1,1.9,1.1,3c0.1,0.5,0,1,0.1,1.5c0,0.9,0,1.8-0.2,2.6
		c-0.1,0.3-0.2,0.7-0.3,1c-0.3,1-0.6,1.9-1,2.8c-0.3,0.6-0.6,1.3-1,1.9c-0.2,0.4-0.6,0.8-1,1c-0.3,0.2-0.4,0.4-0.6,0.6
		c-0.3,0.6-0.6,1.2-0.5,1.9c0,0.4-0.1,0.8-0.3,1.2c-0.1,0.2-0.1,0.4-0.1,0.6c-0.1,0.4-0.1,0.8-0.1,1.2c0,0.1,0,0.1,0,0.2
		c0.2,1-0.3,2-0.5,2.9c-0.3,1.1-0.7,2.2-1.1,3.3c-0.3,0.9-0.7,1.7-1.1,2.6c-0.4,0.9-0.9,1.8-1.4,2.7c-0.6,1.1-1.2,2.1-2.2,3
		c-0.7,0.7-1.4,1.5-2.1,2.2c-0.3,0.3-0.6,0.6-1,0.8c-0.5,0.3-0.6,0.7-0.6,1.1c0,0.6,0,1.2,0,1.8c0.1,0.4,0.1,1.1,0.4,1.4
		c0.3,0.4,1,0.8,1.4,1.2c0.6,0.5,1.3,0.8,1.7,1.4c0.3,0.5,0.9,0.7,1.4,1.1c0.9,0.6,1.8,1,2.7,1.5c0.6,0.4,1.1,0.8,1.6,1.2
		c1,0.8,2.1,1.5,3.1,2.3c1.4,0.9,2.6,2,3.8,3.2c0.5,0.6,1.1,1.1,1.7,1.7c0.5,0.5,1,1.1,1.5,1.7s1,1.3,1.6,1.9c0.4,0.5,0.7,0.9,1,1.5
		c0.1,0.4,0.4,0.7,0.6,1c0.2,0.3,1.4,2.2,1.6,2.5c0.2,0.3,0.1,0.6-0.2,0.7c-0.4,0.2-0.6,0.2-0.8-0.1c-0.4-0.6-1.9-2.8-2.2-3.4
		c-0.5-0.9-1.1-1.8-1.8-2.6c-0.7-0.8-1.4-1.7-2.2-2.5c-0.2-0.2-0.4-0.4-0.7-0.6c-0.4-0.4-0.8-0.8-1.2-1.2c-0.5-0.6-1.1-1.1-1.7-1.6
		c-0.3-0.3-0.6-0.5-1-0.8c-0.3-0.2-0.5-0.4-0.9-0.4c-0.3,0-0.5-0.2-0.7-0.4c-0.6-0.5-1.2-1-1.8-1.4c-0.6-0.5-1.2-1-1.8-1.6
		c-0.2-0.2-0.5-0.4-0.8-0.6c-0.5-0.4-1-0.7-1.5-1.1c-0.4-0.2-0.8-0.4-1.2-0.6c-0.8-0.4-1.5-0.9-2.1-1.5c-0.4-0.4-0.9-0.7-1.4-1
		c-0.2,0.4-0.4,0.7-0.6,1c-0.1,0.2-0.2,0.5-0.5,0.6h-0.1c-0.5,0.5-1.1,1-1.6,1.5c-0.1,0.1-0.1,0.2-0.2,0.2c-0.9,0.5-1.7,0.9-2.6,1.4
		c-0.3,0.1-0.6,0.2-0.8,0.3c-0.1,0-0.2,0.1-0.3,0.1c-0.7,0.3-1.5,0.6-2.2,0.8c-0.4,0.1-0.8,0.1-1.2,0.2c-0.8,0.2-1.7,0.3-2.5,0.2
		c-0.6,0-1.1-0.1-1.6-0.1c-0.6,0-2.5,0-3-0.3c-0.2-0.5-1-0.2-1.4-0.4c-0.1,0-0.1,0-0.2,0c0-0.3,0-0.6,0-0.9c0.7,0.2,3,0.3,3.8,0.5
		c0.7,0.2,1.4,0.3,2.2,0.1c0.1,0,0.2,0,0.3,0c0.6,0,1.3,0,1.9-0.1c1.8-0.3,3.4-0.9,5-1.7c0.1,0,0.2-0.1,0.2-0.1
		c0.7-0.3,1.3-0.8,1.9-1.3c0.2-0.2,0.4-0.4,0.6-0.5c0.3-0.3,0.6-0.6,0.9-0.9c0.2-0.2,0.2-0.4,0.4-0.6c0.3-0.2,0.2-0.5,0.2-0.8
		s0-0.6-0.1-0.9c-0.1-0.9-0.1-1.8,0-2.7c0-0.1,0-0.2,0-0.4c0-0.1,0-0.1-0.1-0.2c-0.2,0.1-0.3,0.2-0.5,0.3c-0.3,0.1-0.6,0.2-0.9,0.4
		c-0.3,0.1-0.5,0.2-0.8,0.1c-0.1,0-0.3,0-0.4,0.1c-0.1,0.1-0.3,0.1-0.4,0.2c-1.1,0.5-2.3,0.8-3.5,1.1c-0.7,0.2-1.3,0.4-2,0.3
		c-0.1,0-0.1,0-0.2,0c-0.5,0.1-1.1,0.2-1.6,0.3c-1,0.2-2.1,0.3-3.1,0.3c-0.3,0-0.5,0-0.7-0.2c-0.1-0.1-1.9-0.2-2-0.1
		c-0.4,0-0.7,0-1.1-0.1c0-0.3,0-0.5,0-0.8c1,0,3.7,0,4.7,0.1C5.9,75.4,7,75.1,8.2,75c0.5-0.1,1.1-0.1,1.6-0.2s0.9-0.2,1.4-0.3
		c0.6-0.1,1.2-0.2,1.7-0.5c1-0.4,2-0.9,3.1-1.2c0.7-0.3,1.4-0.6,2-1c0.4-0.2,0.6-0.5,1-0.8c0.2-0.1,0.3-0.3,0.5-0.4
		c0.6-0.3,1.2-0.7,1.6-1.3c0.2-0.3,0.5-0.6,0.8-0.9c0.9-0.9,1.6-1.9,2.2-3.1c0.3-0.7,0.7-1.3,1.1-2c0.3-0.5,0.4-1.1,0.6-1.7
		c0.4-1,0.8-2.1,1-3.2c0.2-0.9,0.4-1.9,0.5-2.8c0.1-0.5,0.2-1,0.3-1.4c0.1-1,0.2-2.1,0.2-3.1c0.1-1.5,0.2-2.9,0.2-4.4
		c0-1.1-0.1-2.1-0.2-3.2c0-0.3,0-0.7,0-1c0.1-0.6-0.1-1.2-0.2-1.8c-0.1-0.5-0.2-0.9-0.1-1.4c0-0.2,0-0.4,0-0.6c0-0.4,0-0.8,0-1.2
		c0-0.1,0-0.3,0-0.4c-0.1-0.6-0.1-1.3-0.3-1.9c-0.1-0.5-0.2-0.9-0.4-1.4c-0.1-0.3-0.2-0.5-0.1-0.8c0-0.2-0.1-0.4-0.1-0.6
		c-0.2-0.6-0.4-1.1-0.4-1.8c0-0.4-0.2-0.8-0.3-1.2c-0.1-0.5-0.3-0.9-0.2-1.4c0-0.1-0.1-0.2-0.1-0.3c-0.2-0.5-0.5-1.1-0.7-1.6
		c-0.1-0.3-0.2-0.5-0.1-0.8c0-0.1,0-0.1-0.1-0.2c-0.4-0.9-0.8-1.8-1.3-2.6c-0.4-0.7-0.9-1.2-1.3-1.8c-0.2-0.3-0.4-0.6-0.6-1
		c-0.3-0.4-0.3-0.4-0.7-0.1c-0.5,0.5-1,1-1.5,1.4c-0.6,0.5-1.3,1-1.9,1.6c-0.1,0.1-0.2,0.1-0.3,0.2c-0.7,0.2-1.2,0.7-1.8,1.1
		c-0.2,0.1-0.4,0.3-0.7,0.2c-0.1,0-0.2,0-0.3,0.1c-0.4,0.2-0.7,0.4-1.1,0.6c-0.3,0.2-0.6,0.3-1,0.1c-0.1,0-0.2,0-0.2,0
		c-0.4,0.2-0.7,0.2-1.1-0.1c-0.1,0.1-0.2,0.2-0.3,0.2c-0.2,0.1-0.4,0.2-0.6,0.3c-0.2,0.1-0.5,0.2-0.7,0.3c-0.7,0.5-1.4,0.7-2.1,1
		c-0.4,0.2-0.9,0.3-1.3,0.5c-0.4,0.2-0.5,0.1-0.7-0.3S5,26.4,4.6,26.6c-0.5,0.2-2.7,0.4-3.2,0.6c-0.2,0.1-0.5,0-0.7,0
		s-0.3,0-0.5-0.1C0,26.9,0,26.7,0,26.5z M29.2,48.9c0.3-0.1,0.5-0.2,0.8-0.4c0.6-0.5,0.9-1.2,1.2-1.9c0.4-0.9,0.8-1.9,1-2.8
		c0.2-0.8,0.4-1.6,0.6-2.4c0-0.3,0-0.6,0.1-0.9c0.1-0.7,0.2-1.5,0-2.2c-0.1-0.5-0.1-0.9-0.5-1.5c-0.1-0.2-0.2-0.4-0.3-0.5
		c-0.2-0.2-0.4-0.5-0.6-0.7c-0.5-0.5-1.1-0.7-1.7-0.4c-0.1,0.1-0.3,0.2-0.4,0.3c-0.5,0.9-0.7,1.9-0.8,3c0,0.2,0.1,0.3,0.1,0.5
		c0.1,0,0.8-0.9,1.2-1.1c0.6-0.3,1.5,0.1,1.8,0.7c0.1,0.2,0.1,0.3,0,0.5c-0.1,0.1-0.3,0.1-0.4,0c-0.2-0.1-0.3-0.3-0.4-0.4
		c-0.2-0.2-0.3-0.2-0.5-0.1c-0.1,0.1-0.2,0.1-0.3,0.2c-0.5,0.6-0.9,1.3-1.1,2c0,0.1,0,0.3,0,0.4c0.2,0.8,0.4,1.6,0.3,2.4
		c0,0.2,0,0.5,0,0.8c0,0.5,0.2,0.9-0.1,1.4v0.1c0.1,1-0.2,0.9,0,2.3C29.2,48.6,29.1,48.7,29.2,48.9z"/>
	<path class="st5" d="M0,61.7c0.1,0,0.2,0,0.3,0C1.4,62.1,4.1,62,5.2,62c0.6,0,1.2-0.2,1.8-0.4c1-0.3,1.9-0.6,2.7-1.3
		c0.2-0.2,0.4-0.4,0.6-0.6c0.4-0.5,0.9-0.4,1.3,0.1c-0.4,0.5-0.8,0.9-1.4,1.2c-0.7,0.5-1.5,0.8-2.3,1.1c-0.7,0.2-1.5,0.5-2.3,0.5
		c-0.8,0.1-1.6,0.1-2.4,0c-0.1,0-1.8-0.1-1.9,0c-0.5,0-0.9-0.3-1.3-0.6C0,62,0,61.8,0,61.7z"/>
	<path class="st5" d="M0,52.5c1,0.2,3.6,0.2,4.6-0.1c0.3,0,0.6-0.2,0.9-0.4c0.4-0.3,0.8-0.6,1.2-0.9C7,50.9,7.2,51,7.2,51.3
		c0,0.2,0,0.5-0.2,0.6c-0.8,0.9-1.7,1.6-3,1.6c-0.4,0-2.3,0.1-2.7,0.1c-0.3,0-0.6,0-0.9-0.2c-0.1-0.1-0.3-0.1-0.4-0.1
		C0,53.1,0,52.8,0,52.5z"/>
	<path class="st6" d="M16.2,38.7c-0.5-0.1-0.8,0-1.1,0.2c-0.6,0.3-1.1,0.9-1.5,1.4c-0.1,0.1-0.1,0.4-0.2,0.5c0,0.1-0.1,0.2-0.2,0.2
		c-0.2,0-0.2-0.1-0.3-0.2c0-0.2,0-0.3,0-0.5c0.6-1.4,1.7-2.5,3.4-2.6c0.3,0,0.5-0.1,0.8-0.1c0.5,0,0.9,0.1,1.4,0.1
		c0.1,0,0.2,0.1,0.3,0.1c0.4,0.3,0.8,0.6,1.1,1c0.7,0.7,0.7,2,0.2,2.8c-0.2,0.3-0.3,0.6-0.5,0.9c-0.2,0.3-0.5,0.6-0.9,0.7
		c-0.1,0-0.2,0.1-0.3,0.1c-0.5,0.3-0.9,0.2-1.4,0c-0.7-0.4-1.3-0.9-1.5-1.8c-0.2-0.9-0.3-1.4,0.2-2.3C15.8,38.9,16.1,38.8,16.2,38.7
		z M17.7,41.3c0-0.5,0-1,0-1.4c-0.2,0-0.4,0-0.6-0.1c-0.1,0.6-0.1,1.1,0,1.7C17.3,41.4,17.5,41.4,17.7,41.3z"/>
	<path class="st5" d="M13.5,28.7c-0.1-0.2,0-0.3,0.1-0.4c0.5-0.5,1.1-0.9,1.9-1.1c0.3-0.1,0.6-0.2,0.9-0.3c0.1,0,0.2-0.1,0.3-0.1
		c0.9,0,1.7-0.2,2.6-0.1c0.4,0.1,0.7,0.2,0.9,0.5c0.1,0.1,0.1,0.2,0.2,0.3c0,0.2,0.1,0.3,0.1,0.5c-0.2,0-0.3,0-0.5,0
		c0.2,0.3,0.3,0.5,0.5,0.7c0,0.1,0.1,0.1,0.1,0.2c0.1,0.2,0.1,0.3,0,0.5s-0.3,0.2-0.5,0.1s-0.3-0.2-0.5-0.2c-0.5-0.3-1-0.6-1.5-0.9
		c-0.2-0.1-0.3-0.1-0.5-0.2c-0.4-0.1-0.7-0.2-1.1-0.2c-0.2,0-0.5,0.1-0.7,0.1c-0.1,0-0.3,0.1-0.4,0.1c-0.3-0.1-0.6,0-0.8,0.1
		C14.1,28.4,13.8,28.5,13.5,28.7z"/>
	<path class="st7" d="M21.7,48.9c0.3-0.1,0.7-0.4,1,0c-0.1,0.1-0.1,0.2-0.2,0.2c-0.6,0-0.9,0.6-1.6,0.7c0.1-0.3,0.1-0.5,0.2-0.8
		c-0.7,0.1-1.1,0.5-1.6,0.9c-0.2-0.2,0-0.3,0-0.5c0.1-0.2,0.2-0.3,0.3-0.5c-0.3-0.1-0.5,0.2-0.9,0.1c0.2-0.1,0.3-0.2,0.5-0.3
		s0.3-0.2,0.5-0.3s0.4-0.2,0.6,0c0,0.1-0.1,0.3-0.2,0.5c0.2-0.1,0.4-0.2,0.5-0.2c0.1-0.1,0.2-0.1,0.4-0.1
		C21.7,48.5,21.7,48.5,21.7,48.9z"/>
	<path class="st8" d="M17.1,39.7c0,0,0.5,0.2,0.7,0.1v1.5L17,41.6C17,41.6,16.9,40.5,17.1,39.7z"/>
</g>
</svg>
