<?xml version="1.0" encoding="utf-8"?>
<!-- Generator: Adobe Illustrator 23.1.1, SVG Export Plug-In . SVG Version: 6.00 Build 0)  -->
<svg version="1.0" xmlns="http://www.w3.org/2000/svg" xmlns:xlink="http://www.w3.org/1999/xlink" x="0px" y="0px" width="100px"
	 height="100px" viewBox="0 0 100 100" style="enable-background:new 0 0 100 100;" xml:space="preserve">
<style type="text/css">
	.st0{display:none;}
	.st1{display:inline;fill:none;stroke:#898989;stroke-width:6;stroke-miterlimit:10;}
	.st2{display:inline;fill:#898989;}
	.st3{fill:#898989;}
</style>
<g id="레이어_2_사본" class="st0">
	<circle class="st1" cx="52.5" cy="32.5" r="19"/>
	<path class="st1" d="M20,82c0-12.6,7.3-23.5,17.9-28.8C42.2,51.2,47,50,52,50c17.7,0,32,14.3,32,32H20z"/>
</g>
<g id="레이어_2_사본_2" class="st0">
	<path class="st2" d="M50.5,56.5c-12.1,0-22-9.9-22-22s9.9-22,22-22s22,9.9,22,22S62.6,56.5,50.5,56.5z M50.5,18.5
		c-8.8,0-16,7.2-16,16s7.2,16,16,16s16-7.2,16-16S59.3,18.5,50.5,18.5z"/>
	<path class="st2" d="M68.3,54.2c-1.7,1.5-3.5,2.8-5.5,3.8c8.7,4.3,15,12.9,16.1,23H21.2c1-9.9,7-18.6,16.1-23.1
		c0.2-0.1,0.3-0.1,0.5-0.2c-2-1.1-3.8-2.4-5.4-3.9C21.6,60,15,71.4,15,84v3h70v-3C85,71.4,78.3,60.3,68.3,54.2z"/>
</g>
<g id="레이어_2">
	<path class="st3" d="M50.6,58.2C35.4,58.2,23,45.8,23,30.6S35.4,3,50.6,3s27.6,12.4,27.6,27.6S65.9,58.2,50.6,58.2z M50.6,10.5
		c-11.1,0-20.1,9-20.1,20.1s9,20.1,20.1,20.1s20.1-9,20.1-20.1S61.7,10.5,50.6,10.5z"/>
	<path class="st3" d="M72.9,55.3c-2.1,1.9-4.4,3.5-6.9,4.8C77,65.5,84.9,76.3,86.2,89H13.8C15.1,76.5,22.6,65.6,34,60
		c0.2-0.1,0.4-0.2,0.6-0.3c-2.5-1.4-4.7-3-6.8-5C14.3,62.7,6.1,76.9,6.1,92.7v3.8h87.9v-3.8C93.9,76.9,85.5,63,72.9,55.3z"/>
</g>
</svg>
