<?xml version="1.0" encoding="utf-8"?>
<!-- Generator: Adobe Illustrator 24.0.3, SVG Export Plug-In . SVG Version: 6.00 Build 0)  -->
<svg version="1.0" id="레이어_1" xmlns="http://www.w3.org/2000/svg" xmlns:xlink="http://www.w3.org/1999/xlink" x="0px"
	 y="0px" width="100px" height="100px" viewBox="0 0 100 100" style="enable-background:new 0 0 100 100;" xml:space="preserve">
<style type="text/css">
	.st0{fill-rule:evenodd;clip-rule:evenodd;fill:#FFFFFF;}
	.st1{fill-rule:evenodd;clip-rule:evenodd;fill:#B39354;}
	.st2{fill-rule:evenodd;clip-rule:evenodd;fill:#F19EC2;}
	.st3{fill-rule:evenodd;clip-rule:evenodd;fill:#00AC97;}
	.st4{fill-rule:evenodd;clip-rule:evenodd;fill:#008CCF;}
	.st5{fill-rule:evenodd;clip-rule:evenodd;fill:#BAE3F9;}
	.st6{fill-rule:evenodd;clip-rule:evenodd;fill:#F5AF7E;}
	.st7{fill-rule:evenodd;clip-rule:evenodd;fill:#3D3455;}
	.st8{fill-rule:evenodd;clip-rule:evenodd;fill:#100964;}
	.st9{fill-rule:evenodd;clip-rule:evenodd;fill:#CD6987;}
</style>
<path class="st0" d="M63.5,4.2C39.5-3,22.8,10,16,25.8C9.3,41.6,18.5,58,18.5,58s1.5-1.2,2.1-0.8l0.2,0.2l0,0
	c0.2,0.3,0.2,0.4,0.2,0.3l0.6,0.6c0,0.1,0,0.2,0,0.2s0.8,1.2,1.2,2c0.5,0.8-0.8,2-0.8,2c5.1,7.3,12.1,10.9,25.2,13.5
	C60.3,78.7,76,66.8,76,66.8c-1.6-4.5,3.9-4.5,3.9-4.5c5.9-5.9,7.6-16,7.6-16C89.6,39.2,87.5,11.4,63.5,4.2z M74,50.6
	C71.3,56.7,63.4,65.1,50.3,65c-10.9-0.1-18.4-7.9-20.5-10.5l0.1-0.1l-3.6-6.2c-0.1-0.8-0.3-1.7-0.6-2.9c-3-10.7,3.6-20.4,3.6-20.4
	c16.6-22.4,38.1-5.6,38.1-5.6C80.7,31.5,76.6,44.5,74,50.6z"/>
<path class="st1" d="M35.9,36.8c0,0,2.1-12.5,15.2-12.8C64.2,23.8,67,38.9,66,41.6c0,0-3.3-0.3-4.5-1.5s-3.2-3.2-3.3-3.3
	s-0.9,1.4-0.9,1.4s-3.2-2.1-5.5-5.6l-0.7,2.2c0,0-3.7-3.4-4.3-5C46.8,29.6,39.1,33.3,35.9,36.8z"/>
<polygon class="st2" points="64.9,88.2 64.9,90.5 67.7,94.2 68.2,94.6 69.3,94 67.3,87.4 "/>
<polygon class="st2" points="16.6,78.1 19.3,84.6 21.2,83.8 20.6,81.3 17.7,77.9 "/>
<polygon class="st3" points="20.7,81.4 22.1,84.8 46.7,81.6 53.9,92.3 65,91.3 64.6,87.8 56.6,87.4 54.1,78.7 38.9,76.5 "/>
<path class="st4" d="M38.3,76.1l0.8-1.7c0,0,10.1,2.6,16,1.8l0.2,2.4C55.2,78.6,41,78.6,38.3,76.1z"/>
<path class="st4" d="M35.1,59.4l4.1,2.6l4.5-1.3l-1.1,2.9c0,0,7.5,2.7,11.6,1.1l0.2-2.5l3.6,1.5c0,0,4-1,4.2-1.6l-8.7-4l-2.3,1.4
	l-1.6-2.2l-2.9,1.4l-1.4-1.4L35.1,59.4z"/>
<polygon class="st5" points="45.1,57.1 46.7,58.8 49.6,57.1 50.9,59.4 53.5,58 52.6,56 46.8,55.6 "/>
<path class="st6" d="M17,59.5c0,0,2.6,4.3,4.2,3.9c1.6-0.3,0.6-0.6,0.6-0.6l0.9-2.4l-1.9-3.1C20.8,57.3,17.1,59,17,59.5z"/>
<path class="st6" d="M76.7,67.2c0,0-1.7-2-0.5-3.6s4.5-0.6,4.5-0.6s-1.2,3.9-2.6,4.8C78,67.7,76.7,67.7,76.7,67.2z"/>
<polygon class="st6" points="48.2,54.2 48.3,55.5 51.1,55.7 51.2,54.5 "/>
<path class="st6" d="M65.9,42.3L65,46.1c0,0,3.2,0,3.4-2C68.6,42,65.9,42.3,65.9,42.3z"/>
<path class="st6" d="M35.4,41.3c0,0-3-0.3-2.5-2.2s2.2-2.4,2.5-2C35.6,37.5,35.4,41.3,35.4,41.3z"/>
<path class="st6" d="M35.8,37c0,0-0.8,6.8,2.4,10.6c3.3,3.8,7.5,6.7,12.5,6.6c5-0.1,11-2.5,13.5-7.5c2.5-5,1.1-4.5,1.1-4.5
	s-6.6-3.9-7.5-5.8c0,0-0.4,1.1-0.6,1.8c-0.2,0.7-5.3-5.4-5.3-5.4l-0.8,1.8l-4.5-5C46.7,29.7,39.2,32.9,35.8,37z"/>
<path class="st7" d="M67.6,59.8c-0.7,0.3-1.3,0.8-2,1.3c-0.6,0.4-1.3,0.8-1.9,1.3c-1.1,0.4-2,0.9-3,1.3c-3,1.2-6.5,2-10.8,1.9
	c-1.7,0-3.6-0.4-5.2-0.8c-7.9-1.9-13.4-6.5-17-12.7c-1.3-2.3-2.7-5.7-3-8.9c0-0.1,0-0.3,0-0.4c0-0.2,0.1-0.2,0.1-0.4
	c0-0.3-0.2-0.4-0.3-0.7c-0.2-0.9-0.1-2.1-0.1-3.1c0-3,0.8-6.1,1.6-8.4c2.4-6.5,6.8-11.3,12.7-14.3c2.2-1.1,4.7-2,7.6-2.5
	c7.7-1.3,14.8,1.1,19.5,4.4c2.1,1.5,3.9,3.1,5.6,5.1c3.1,3.8,5.6,9,5.8,15.2c0.1,3.3-0.3,6.3-1.2,9c-1.5,4.8-4,8.3-7.2,11.4
	C68.5,58.9,68,59.3,67.6,59.8 M66.9,59c0.1-0.1,0.1-0.3,0.2-0.4c1-0.9,2.1-1.7,2.8-2.9c0.6-0.1,0.8-0.8,1.2-1.4
	c0.2-0.3,0.4-0.5,0.6-0.9c0.7-1.1,1.5-2.3,1.9-3.5c0.4-0.3,0.6-0.9,0.9-1.6c0.3-0.9,0.6-1.8,0.9-2.7c0.2-0.5,0.2-1,0.3-1.5
	c0.1-0.2,0.2-0.4,0.3-0.5c0.3-1.1,0.3-2.5,0.3-3.8c0-0.8,0.2-1.8,0.1-2.4c0-0.2-0.2-0.3-0.2-0.5c-0.1-0.5-0.1-1.2-0.2-1.8
	c0-0.2-0.1-0.3-0.2-0.5c0-0.3,0-0.5,0-0.8c-0.2-1.4-0.7-2.7-1.2-3.8c-0.1-0.4-0.4-0.7-0.6-1.1c-0.4-0.9-0.8-1.7-1.3-2.5
	c-0.6-1-1.2-2-1.9-2.8c-0.7-0.8-1.3-1.5-2-2.2c-0.4-0.5-1-0.9-1.5-1.3c-0.5-0.5-1.1-0.8-1.6-1.2c-1.2-0.7-2.2-1.9-3.7-2.1
	c-0.1,0-0.1-0.3-0.3-0.3c-1.6-0.7-3.1-1.3-5-1.8c-0.7-0.2-1.4-0.5-2.1-0.5c-0.1,0-0.3,0.1-0.4,0.1c-1.1,0-2.3-0.5-3.3-0.2
	c-0.3-0.3-0.7-0.1-1.1-0.1c-1.1-0.1-2.2,0.1-3.1,0.3c-0.7,0.1-1.3,0.3-2,0.5c-2,0.5-3.6,1-5.3,1.9c-0.2,0.1-0.5,0.3-0.8,0.4
	s-0.5,0.4-0.8,0.4c-0.7,0.2-1,0.5-1.6,0.9c-0.4,0.3-0.9,0.5-1.2,0.8c-0.1,0,0.1,0.3,0,0.3c-1.3,0.9-2.4,2.1-3.5,3.1
	c-0.1,0.3-0.5,0.6-0.6,0.8c-0.1,0.1-0.1,0.3-0.2,0.3c-0.1,0.1-0.3,0.1-0.3,0.2c-0.2,0.2-0.4,0.6-0.6,0.9s-0.4,0.7-0.5,1
	c-0.3,0.7-0.8,1.3-1.1,1.9c-0.7,1.4-1.2,2.9-1.6,4.4c-0.2,0.2-0.2,0.5-0.3,0.9c-0.6,2.2-0.9,5.2-0.5,7.6c-0.3,0.5,0.1,1.4,0.1,2.2
	c0,0.6,0.1,1.2,0.3,1.4c0.2,2.1,0.7,4.1,1.5,5.7c0.3,0.6,0.6,1,0.9,1.6c0.3,0.7,0.8,1.2,1.2,1.8c0.6,0.9,1.1,1.8,1.8,2.6
	c0.5,0.6,1.2,1.1,1.7,1.6c0.2,0.2,0.6,0.3,0.8,0.5c0.4,0.3,0.7,0.5,1.3,0.5c0.1,0,0.3,0.2,0.9,0.2c0.7,0,1.5-0.2,2.2-0.3
	c2.2-0.3,4.3-0.9,6.2-1.4c0.1,0-0.1-0.5,0-0.5c0.9-0.4,1.6-0.8,2.3-1.3c0.3,0.1,0.2,0,0.6-0.1c0.1-0.2,0-0.4,0.1-0.6
	c-1.7-0.3-3.1-0.8-4.4-1.5c-0.4-0.2-0.8-0.4-1.1-0.6c-0.4-0.2-0.6-0.6-0.9-0.8c-0.2-0.1-0.4-0.1-0.5-0.2c-0.9-0.5-1.1-1.7-2-2.1
	c-1.2-1.5-2.1-3.2-3-5c0-0.2,0.1-0.4,0-0.6c-0.2-0.6-0.2-1.1-0.3-1.9c-0.1-0.1-0.2-0.1-0.3-0.2c-1.1-0.2-2.2-0.2-2.4-2.4
	c-0.1-1.1,0.3-2,0.9-2.5c0.4-0.3,0.9-0.1,1.5-0.4c0.3-1.5,1-3,1.8-4l0.2-1.3c1.1-1.2,1.4-2.1,2.7-3.1c0.2,0,0.3-0.1,0.4-0.1
	c0.9-1.1,2.3-1.9,3.7-2.5c0.3-0.1,0.6-0.3,0.9-0.5c1.4-0.7,2.9-1,4.6-1.2c0.3,0,0.6,0,0.9,0c1.3,0,2.8,0.3,4,0.5
	c0.9,0.2,1.8,0.3,2.6,0.7c1.7,0.7,3.1,1.3,4,2.5c0.6,0.4,0.7,0.9,1.2,1.3c0.2,0.2,0.4,0.2,0.6,0.4c0.6,0.5,0.8,1.5,1.3,2
	c0.1,0.1,0.3,0.2,0.4,0.3c0.1,0.2,0,0.1,0.1,0.4s0.3,0.6,0.4,0.8c1,2.5,1.6,5.7,1.1,9c1.6-0.1,2.8,1.8,2.2,3.1
	c-0.2,0.4-0.7,1-1.1,1.2s-0.9,0.3-1.3,0.4c-0.6,0.1-1.1,0-1.4,0.4c-0.3,0.3-0.4,0.7-0.6,1.1c-0.2,0.3-0.6,0.7-0.9,1
	c-0.3,0.4-0.5,0.9-0.8,1.2c-0.6,0.7-1.2,1.2-2,1.8c-1.2,1.4-5.2,3.1-9,3.1c-0.1,0.3,0,0.1,0,0.4c0.7,0.1,1.5,0.1,1.8,0.6
	c0.2,0.8,0.6,1.1,1.1,1.6c0.1,0.1-0.1,0.4,0,0.5c0.8,0.4,1.6,0.8,2.5,1.1c1.2,0.5,2.4,1,3.7,1.4c0.4,0.1,0.8,0.3,1.1,0.4
	c0.4,0.1,0.8,0.1,1.2,0.4C64,60.8,65.7,60,66.9,59 M64.8,34.2c-0.7-2-1.9-3.8-3.3-5.1c-1.4-1.3-3-2.6-5-3.4c-1.9-0.8-4.9-1.3-7.5-1
	c-3.3,0.4-6.1,1.8-8.1,3.7c-2.1,1.9-3.6,4.4-4.4,7.5c0.6-0.6,1.3-1.2,2.1-1.8c2.1-1.6,4.3-3.1,6.8-4.2c0.4-0.2,1-0.5,1.3-0.5
	c0.4,0,0.9,0.8,1.1,1.2c0.7,1,1.3,1.7,2,2.6c0.4,0.4,0.7,0.9,1.1,1.1c0.3-0.7,0.1-1.8,0.7-2.1c0.6,0.3,0.9,0.9,1.3,1.4
	c0.4,0.5,0.8,1,1.2,1.6c0.6,0.9,1.6,1.7,2.4,2.3c0.1,0.1,0.2,0.3,0.3,0.2c0.3-0.4,0-1.8,0.6-1.9c0.4,0,0.6,0.5,0.8,0.7
	c0.4,0.5,1,1,1.5,1.5c1.4,1.5,3.5,3,5.6,3.4C65.9,38.7,65.6,36.2,64.8,34.2 M48.9,33c-0.8-0.9-1.5-1.9-2.2-2.8h-0.1
	c-0.6,0.2-1.1,0.4-1.6,0.7c-1.4,0.8-2.7,1.5-4.1,2.4c-1.8,1.2-3.3,2.5-4.7,3.9c-0.5,5.9,1.8,10.2,5,13.1c2.7,2.4,6.6,3.9,11.3,3.6
	c1.7-0.1,3.3-0.7,4.7-1.3c4.1-2,6.9-5.3,7.9-10.2c-2.9-0.9-5-2.9-6.9-4.8c-0.1-0.1-0.2-0.4-0.4-0.3c-0.1,0.4-0.1,1.5-0.4,1.6
	c-0.3,0.1-0.7-0.2-0.9-0.4c-0.8-0.6-1.6-1.3-2.2-1.9c-0.7-0.8-1.3-1.5-1.9-2.3c-0.2-0.3-0.3-0.6-0.6-0.7c-0.1,0.6-0.3,1.2-0.3,1.8
	c-0.1,0.1-0.2,0.1-0.3,0.2C50.4,34.9,49.7,33.9,48.9,33 M34.4,37.6c-1,0.7-1.2,3.3,0.6,3.2c0-1.1,0.1-2.4-0.1-3.2
	C34.7,37.7,34.6,37.6,34.4,37.6 M67.6,44.7c0.3-0.6,0.3-1.8-0.5-2.1c-0.4,0.1-0.8-0.1-1.1,0c-0.1,1.1-0.4,1.9-0.8,2.8
	C65.8,45.5,67.2,45.3,67.6,44.7 M48.7,55.5c0.6-0.1,1.2,0.1,1.7,0c0-0.3,0.1-0.4,0.1-0.7c-0.6,0-1.2-0.2-1.7-0.2
	C48.7,54.9,48.7,55.1,48.7,55.5 M47.3,55.9c-0.5,0.5-1.2,0.7-1.7,1.2c0.3,0.4,0.6,0.9,1,1.2c0.9-0.6,1.9-1.2,2.9-1.7
	c0.3,0.1,0.5,0.2,0.6,0.4c0.1,0.8,0.6,1.3,0.9,1.9c0.6-0.3,1.2-0.8,1.9-1c-0.1-0.5-0.5-0.9-0.6-1.6C50.6,56.2,48.9,56.2,47.3,55.9
	 M51.7,59.4c-0.2,0.2-0.4,0.4-0.6,0.4c-0.8,0-1.4-1.9-1.9-2.2c-0.4,0.2-1.5,0.8-1.9,1.2c-0.2,0.2-0.3,0.4-0.5,0.4
	c-0.8,0.1-0.9-0.7-1.5-1.1c-0.6,1.8-1.4,3.7-2.2,5.4c1.7,0.6,3.7,0.9,5.8,1.1c0.3,0,0.5,0.2,0.8,0.2c1.6,0.1,2.8-0.3,4.1-0.2
	c-0.1-1.7-0.6-4.1-0.8-5.9C52.7,58.8,52.1,59.1,51.7,59.4 M35.7,59.7c0.8,0.5,1.6,1,2.5,1.5c0.3,0.2,0.6,0.4,0.9,0.5
	c0.4,0.1,1.5-0.4,2-0.5c0.9-0.2,1.5-0.7,2.4-0.7c0.3-0.8,0.8-1.6,0.9-2.5c-2.7,0.8-5.6,1.3-8.4,1.6 M54.5,61.7
	c0.9,0.2,1.6,0.8,2.4,1.2c0.3,0.1,1,0.5,1.2,0.5s0.4-0.2,0.7-0.2c0.1,0,0.3,0.1,0.3,0c0.2,0,0.3-0.2,0.5-0.2c0.1,0,0.2,0.1,0.3,0
	c0.3-0.1,0.6-0.3,0.9-0.4c0.5-0.1,1-0.1,1.3-0.5c-2.8-0.8-5.7-2-8.1-3.3C54.1,59.8,54.4,60.7,54.5,61.7 M40.4,62.1
	c0.5,0.4,1.2,0.5,1.9,0.8c0.3-0.5,0.5-1,0.7-1.5C42.2,61.6,41.4,61.9,40.4,62.1 M54.9,64.3c0.7-0.1,1.8-0.3,2.3-0.5
	c-0.7-0.3-1.8-0.8-2.5-1c0,0.4,0,1,0,1.4"/>
<path class="st8" d="M43.1,38.1c2.1-0.5,1.8,2.9,0.6,3.1c-0.5,0.1-1.2-0.4-1.4-0.9C42,39.4,42.4,38.3,43.1,38.1"/>
<path class="st7" d="M51.7,42.2c-0.7,0.1-1.2-1.1-1.6-1.4c-0.3,0.7-0.4,1.2-0.6,1.9c-0.3,0-0.6-0.1-0.6-0.3
	c-0.1-0.3,0.7-2.1,0.8-2.4c0.8-0.2,1,0.6,1.5,1.1C51.4,41.4,51.9,41.8,51.7,42.2"/>
<path class="st8" d="M58.5,41.1c2.1-0.3,1.4,2.7,0,2.9c-0.9,0-1.5-0.5-1.5-1.2c0-0.5,0.3-1.4,0.7-1.6C57.9,41.1,58.2,41.1,58.5,41.1
	"/>
<path class="st7" d="M46.7,44.5c1-0.2,0.8,1.4,1.5,1.7c1.2,0.6,2.8,0.3,3.8-0.3c0.3-0.2,0.7-0.8,1.1-0.8c0.2,0,0.5,0.2,0.5,0.5
	s-0.8,0.9-1.1,1.1c-0.6,0.4-1.6,0.6-2.2,0.6c-0.7,0-1.8-0.2-2.3-0.6C47.2,46.3,46.7,45.4,46.7,44.5"/>
<path class="st7" d="M80.8,62.3c0.3,0.2,0.2,0.6,0.1,1.2c-0.4,2-1.6,3.9-2.9,5c-0.7-0.3-1.3-1-1.9-1.3c-2,1.6-4.1,3.2-6.5,4.3
	c-1,0.9-2.6,1.4-4,1.9c-0.6,0.2-1.1,0.6-1.7,0.8c-0.6,0.2-1.2,0.4-1.8,0.6c-0.9,0-2,0.5-3,0.7c-0.7,0.1-1.3,0.2-2,0.4
	c-0.4,0.1-1,0.3-1.6,0.3c0.1,0.3,0.2,1,0.3,1.6c0,0.4,0.3,1.1,0.1,1.3c0,0-0.7,0-1,0c0.1,0.7,0.1,1.3,0.3,1.9
	c0.1,0.6,0.4,1.1,0.5,1.6c0,0.1,0,0.3,0,0.4c0.1,0.3,0.3,0.6,0.5,0.9c0.4,0.9,0.3,2,0.8,3c1.2,0.3,3,0.2,4.1,0.3
	c1.2,0.3,2.7,0.2,3.8,0.3c0.4-0.6,1.3-0.3,2.4-0.6c0.3,0.3,0.5,1.3,0.7,1.9c0.3,1.2,0.6,2.4,0.9,3.6c0.1,0.5,0.5,1.5,0.4,1.8
	c-0.1,0.2-0.3,0.3-0.6,0.4c-0.9,0.5-0.9,0.4-1.4-0.3c-0.6-0.9-1.3-2-1.9-3c-0.2,0.4-0.5,0.3-0.7,0.6c-2.2,0.2-5.1,0.3-7.5,0.3
	c-0.6,0-1.2,0.3-1.7,0.4c-0.2,0-0.4-0.1-0.5,0c-0.2,0.1-0.9,0.2-1.1,0.1c-0.3-0.1-0.4-0.6-0.7-0.9c-2-2.8-3.7-5.3-5.6-8.1
	c-0.2-0.4-0.7-1.4-1-1.5c-0.2-0.1-0.4-0.2-0.7-0.2c-1.4,0.4-3.3,0.2-5,0.5c-0.6,0.1-1.2,0.2-1.7,0.3c-0.4,0-0.9,0-1.3,0.1
	c-0.9,0.1-1.6,0.1-2.5,0.2c-1.8,0.2-3.5,0.5-5.3,0.7c-0.4,0.1-0.9,0.1-1.4,0.3c-1.1,0.3-2.7,0.1-3.5,0.5c-0.4,0-1.1,0.1-1.8,0.2
	c-1,0.2-1.7,0.7-1.9-0.2c-1,0-1.6,1-2.4,0.4c-0.5-1-1-2-1.5-3S17,79.9,16.4,79c0.2-0.4,0.1-0.5,0-0.8c0.7-0.2,1.2-0.6,1.8-0.1
	c0.2,0.2,0.5,0.6,0.7,0.9c0.6,0.8,1.2,1.3,1.8,1.9c5.4-1.7,11.8-2.5,17.2-4.2c-0.4-0.6,0.6-1.3,0.7-1.9c-0.5-0.1-1-0.5-1.4-0.7H37
	c-3.2-0.9-5.7-2.6-8.1-4.3c-1.2-0.8-2.1-2-3.3-2.9c-1.2-0.9-2.4-2.1-3.4-3.2c-0.5,0.1-0.9,0.9-1.6,0.6c-0.4-0.1-0.6-0.8-1.1-1.1
	c-0.8-0.7-1.5-1.3-2.2-2.2c-0.3-0.4-0.6-1.1-0.5-1.4c0-0.3,0.5-0.7,0.7-0.8c0.3-0.3,0.4-0.5,0.7-0.6c-1.2-2-2.7-4.3-3.5-6.8
	c-0.2-0.6-0.4-1.3-0.5-1.9c-0.1-0.6-0.4-1.2-0.6-1.8c-0.1-0.5-0.2-1.2-0.3-1.8s-0.2-1.2-0.3-1.8c-0.2-2.2-0.4-4.3-0.3-6.7
	c0.1-1.1,0.3-2.3,0.4-3.5c0.2-1.2,0.3-2.4,0.6-3.5c0.2-0.9,0.6-1.7,0.8-2.5c0.1,0,0.1-0.2,0.2-0.2c0.4-1.4,1-2.8,1.6-4.1
	c0.7-1.3,1-2.7,1.9-3.8c0.6-1.2,1.5-2.3,2.3-3.4c0.2-0.3,0.5-0.5,0.4-0.9c1-0.8,1.6-2,2.7-2.7c0.2-0.7,1.2-1.2,1.7-1.7
	c1.4-1.4,3.1-2.2,4.8-3.3C31.3,7,32.7,6,33.9,5.4c1-0.5,1.6-0.9,2.7-1.2c0.3-0.1,0.7-0.2,1-0.3c0.2-0.1,0.3-0.3,0.5-0.3
	c0.2-0.1,0.9,0.1,1.2,0c0.2-0.3,0.4-0.5,0.6-0.6c0.6-0.2,1.9,0,2.3-0.5c2.3-0.8,4.4-0.9,6.9-1c1.1-0.1,3.1-0.1,4.2,0
	c0.5,0.1,0.9,0.2,1.3,0.3c0.4,0,0.7-0.1,1,0c0.7,0,1.2,0.2,1.7,0.2c0.5,0.1,1,0.1,1.4,0.4c0.9-0.1,2.1,0.4,3,0.7
	c0.8,0.3,1.7,0.5,2.5,0.8c0.8,0.3,1.5,1,2.3,1.3c1,0.4,1.7,0.9,2.6,1.3c0.5,0.2,1,0.5,1.4,0.8c0.1,0.1,0.3-0.2,0.4,0
	c1.9,1.4,3.8,2.5,5.4,4.2c0.4,0.4,0.8,0.7,1.2,1c1.1,1.1,2.2,2.1,3.1,3.3c0.5,0.6,1,1.2,1.4,1.9c0.3,0.5,0.6,1,1,1.4
	c0.1,0.4,0.4,0.6,0.5,1c0.1,0.1,0.3,0.1,0.4,0.2c0.8,2,2,4.2,2.8,6.3c0.3,0.8,0.4,1.8,0.9,2.5c0.3,1,0.4,2,0.6,3.1
	c0.1,0.3,0.2,0.7,0.3,1c0,0.2,0,0.4,0,0.6c0,0.2,0.2,0.3,0.2,0.5c0.2,1,0,2.1,0.1,3.1c0,0.2,0.1,0.3,0.1,0.5
	c0.1,0.6-0.1,1.2-0.1,1.8c0,0.5,0.1,1.1,0,1.7c0,0.6,0,1.2,0,1.7c0,0.4-0.2,0.7-0.3,1c-0.1,0.4,0,0.8,0,1.2s-0.2,0.8-0.3,1.2
	c-0.1,0.7-0.1,1.5-0.3,2.1c0,0.2-0.2,0.3-0.3,0.5c0,0.1,0,0.3,0,0.5c-0.2,0.8-0.6,1.5-0.8,2.5c-0.1,0.4-0.4,0.8-0.6,1.3
	c-1.1,2.5-2.5,4.9-4,7C81.8,61,81.3,61.6,80.8,62.3 M81.7,59.3c0.6-0.8,1-1.7,1.5-2.5c0.2-0.3,0.3-0.6,0.5-1c1-2,2.1-4.1,2.8-6.4
	c0.2-0.7,0.3-1.6,0.5-2.4c0.5-2.5,0.9-5.5,0.8-8.2c-0.1-2-0.2-3.7-0.5-5.5c-0.2-1.7-0.7-3.3-1.2-4.9c-0.9-3.1-2.3-5.8-3.9-8.3
	c-2-3.1-4.2-5.9-6.9-8.2c-1.7-1.4-3.4-2.7-5.3-3.8c-2.5-1.5-5.2-2.9-8.3-3.9c-3.2-1-6.7-1.8-10.5-1.6C47,2.3,43.3,3.1,39.8,4.2
	C34.4,5.9,29.8,8.6,26,12c-0.5,0.4-0.8,0.9-1.3,1.3c-1.4,1.3-2.7,2.8-3.7,4.4c-0.6,0.6-1.1,1.4-1.6,2.2C18,22.1,17,24.6,16,27.1
	c-0.1,0.2-0.3,0.4-0.3,0.6c-0.2,0.5-0.3,1.2-0.5,1.9c-0.2,0.6-0.4,1.3-0.4,1.9c0,0.2,0.1,0.4,0,0.6c0,0.4-0.2,0.8-0.3,1.2
	c-0.5,2.7-0.7,5.2-0.5,8c0,0.4,0.2,0.9,0.2,1.3c0.1,0.7,0,1.4,0.1,2.1c0.3,1.4,0.6,2.6,0.9,3.8c0.2,0.7,0.3,1.3,0.5,1.9
	c0.9,2.4,1.9,5.2,3.3,7c0.6-0.4,1.2-0.7,2-0.4c0.5,0.2,0.7,0.8,1,1.4c0.4,0.6,1,1.3,1,1.9c0,0.8-0.7,1.3-0.9,1.7
	c0.9,0.9,1.5,2,2.6,2.6c1.3,1.7,3.2,3,5.1,4.4c1.3,0.9,2.9,1.9,4.4,2.7c0.7,0.3,1.4,0.8,2.2,0.7c1.5,0.9,3.2,1.4,5.1,1.9
	c0.6,0.2,1.3,0.2,2,0.4c0.4,0.1,0.8,0.3,1.2,0.3c0.4,0.1,0.9,0.1,1.3,0.2c0.9,0.1,1.9,0.1,2.8,0.2c0.7,0.1,1.4,0.2,2.2,0.2
	c0.7,0,1.4-0.2,2.2-0.2c0.2,0,0.4,0.1,0.6,0.1c0.4,0,0.9-0.2,1.3-0.2c3-0.3,5.8-1.3,8.3-2.2c0.8,0.1,1.4-0.6,2-0.7
	c0.5-0.2,0.9-0.3,1.4-0.6c1.3-0.8,2.7-1.4,4-2.1c0.8-0.5,1.7-1,2.5-1.6s1.6-1.2,2.2-1.9c-0.7-1.4,0.3-2.8,1.1-3.6
	c0.3-0.3,0.5-0.4,0.9-0.3c0.2-0.8,1.2-0.2,1.9-0.2C80.4,61.6,81,60.3,81.7,59.3 M20.5,57.7c-1.4,0.3-2.2,1.3-3,2
	c0.1,0.4,0.4,0.8,0.7,1c0.7-1,1.9-1.6,2.9-2.3C20.8,58.2,20.8,57.6,20.5,57.7 M21.5,59c-1.2,0.5-2.2,1.3-2.9,2.3
	c0.3,0.3,0.5,0.6,0.9,0.8c0.6-1,1.6-1.6,2.5-2.4C21.7,59.6,21.6,59.3,21.5,59 M22.2,60.5c-0.8,0.5-1.7,1.3-2.2,2.2
	c0.3,0.2,0.5,0.5,0.8,0.6c0.2-0.1,0.4-0.1,0.6-0.2C20.3,62.6,22.4,61.4,22.2,60.5 M77.3,63.2c0.8,0.3,1.8,0.6,2.7,0.7
	c0.1-0.3,0.2-0.5,0.3-0.8C79.3,63,77.9,62.6,77.3,63.2 M76.7,63.8c0,0.1-0.1,0.1-0.1,0.2c0.7,0.7,1.7,1.2,2.6,1.6
	c0.2-0.3,0.5-0.6,0.6-1.1C78.7,64.4,77.7,64.1,76.7,63.8 M76.1,64.9c0.3,0.2,0.3,0.4,0.4,0.6c0.5,0.6,1.3,0.8,1.9,1.2
	c0.1-0.2,0.3-0.3,0.3-0.5c-0.9-0.5-1.7-1-2.5-1.6C76.2,64.7,76.1,64.8,76.1,64.9 M77.8,67.4c0.1-0.1,0.2-0.1,0.2-0.3
	c-0.5-0.2-1-0.6-1.5-0.7C77,66.6,77,67.2,77.8,67.4 M38.9,76.1c0.4,0.2,1.1,0.1,1.3,0.5c0.4,0,0.8,0.2,1.2,0.3
	c2,0.5,3.8,0.8,5.9,1.1c2.3,0.3,5,0.7,7.5,0.3c0-0.6-0.1-1-0.1-1.6c-2.3,0.1-4.6,0.2-6.8,0c-0.7-0.1-1.3-0.2-1.9-0.3
	c-0.3,0-0.6,0-0.9,0c-2-0.3-3.8-1-5.6-1.4c0,0,0-0.1,0,0C39.5,75.4,38.8,75.7,38.9,76.1 M38.9,77.3c-0.7,0.3-1.4,0.3-2.2,0.5
	c-0.2,0.1-0.4,0.2-0.7,0.3c-0.4,0.1-0.9,0.1-1.3,0.2c-0.2,0.1-0.4,0.2-0.6,0.3c-0.7,0.2-1.7,0.4-2.6,0.5c-0.9,0.2-1.8,0.5-2.5,0.6
	c-0.5,0.1-0.9,0.2-1.3,0.3c-1.1,0.2-2.2,0.4-3.1,0.7c-1.2,0.4-2.4,0.6-3.5,0.9c0.3,1,0.7,2,1.2,2.8c2.6-0.6,5.3-0.8,8.1-1.3
	c1.4-0.2,2.7-0.4,4.1-0.6c0.9-0.1,1.8-0.3,2.8-0.4c2-0.2,3.9-0.4,5.9-0.6c0.8,0,1.5-0.2,2.3-0.3c0.3,0,0.5,0.1,0.7,0
	c0.2,0,0.5-0.2,0.7-0.1s0.6,0.5,0.8,0.8c0.7,1,1.3,2.2,1.8,3c0.2,0.3,0.4,0.5,0.6,0.8c0.2,0.3,0.4,0.6,0.6,0.9
	c0.4,0.6,0.7,1.3,1.1,1.8c0.2,0.3,0.5,0.4,0.6,0.7c0.6,0.9,1.1,1.7,1.7,2.6c1.6-0.1,3.3-0.2,5-0.3c0.9-0.1,1.8-0.3,2.3,0
	c1-0.1,2-0.2,2.9-0.2c0-1,0.1-2.1,0-3c-1.7-0.3-3.6,0-5.2-0.2c-0.4,0-0.7-0.2-1-0.2c-0.6,0-1.2,0.1-1.7-0.1
	c-0.5-1.3-0.8-2.8-1.3-4.2c-0.5-1.4-0.6-3-1.3-4.3c-0.9,0.1-1.8,0-2.7-0.1c-0.6,0-1.2,0-1.7,0c-0.3,0-0.5-0.2-0.8-0.2s-0.5,0-0.8,0
	c-1.5-0.1-2.9-0.5-4.4-0.8c-1.4-0.3-2.9-0.5-4.2-1C39.1,77.1,39,77.2,38.9,77.3 M20.2,81.5c-1.1-0.9-1.8-2.1-2.6-3.2
	c-0.2,0-0.5,0.1-0.6,0.2c0.6,2.1,1.6,3.8,2.4,5.6c0.6-0.1,1.1-0.3,1.6-0.4C20.8,82.9,20.5,82.2,20.2,81.5 M65.3,88.5
	c0,0.5,0,1,0,1.4c0.2,0,0.2,0.3,0.3,0.4c0.6,0.7,1,1.6,1.5,2.4c0.3,0.5,0.7,1.1,1.1,1.5c0.1,0,0.2-0.1,0.3-0.2c-0.5-2-1-4.2-1.6-6.2
	C66.3,88,65.5,88,65.3,88.5"/>
<path class="st9" d="M66.6,96.7c0,1.5-9.2,2.7-20.6,2.7s-20.6-1.2-20.6-2.7S34.6,94,46,94S66.6,95.2,66.6,96.7"/>
</svg>
